<?xml version="1.0" encoding="utf-8"?>
<!-- Generator: Adobe Illustrator 23.0.0, SVG Export Plug-In . SVG Version: 6.00 Build 0)  -->
<svg version="1.1" id="图层_1" xmlns="http://www.w3.org/2000/svg" xmlns:xlink="http://www.w3.org/1999/xlink" x="0px" y="0px"
	 viewBox="0 0 1024 1024" style="enable-background:new 0 0 1024 1024;" xml:space="preserve">
<style type="text/css">
	.st0{fill:url(#SVGID_1_);}
	.st1{fill:#E1353C;}
	.st2{fill:#F5B18E;}
	.st3{fill:#F39D73;}
	.st4{fill:#C01F28;}
	.st5{clip-path:url(#SVGID_3_);}
	.st6{fill:#6C9FDE;}
	.st7{fill:#FFFFFF;}
</style>
<linearGradient id="SVGID_1_" gradientUnits="userSpaceOnUse" x1="512" y1="47" x2="512" y2="977">
	<stop  offset="0" style="stop-color:#EBE7E4"/>
	<stop  offset="1" style="stop-color:#F2F0EE"/>
</linearGradient>
<circle class="st0" cx="512" cy="512" r="465"/>
<path class="st1" d="M614.23,417.67c0,0-88.7-35.77-145.83,25.91s-30.52,104.71-30.52,104.71l-128.4,15.08l20.5-156.01l116.89-72.87
	h130.14L614.23,417.67z"/>
<g>
	<path class="st2" d="M646.56,548.28c4.28-85.67,10.7-173.16,59.89-224.5s136.9-51.34,136.9-51.34h33.83l5.56-134.76h-214.8
		c0,0-38.5-10.7-55.62,0c-17.11,10.7-293.05,220.32-293.05,220.32s-44.92,21.39-47.06,59.89c-2.14,38.5,0,252.41,0,252.41
		s6.06,32.09,37.26,32.09c31.19,0,33.33-38.5,33.33-38.5l-2.14-192.52c0,0,15.64-74.87,129.75-74.87s125.69,62.03,125.69,62.03
		v207.49c0,0,3.55,17.79,18.11,24.91c6.46-2.56,15.89-7.39,24.49-15.99C653.69,659.98,642.29,633.95,646.56,548.28z"/>
	<path class="st3" d="M659.4,663.9c0,0,0-192.52,25.88-220.32c48.61-52.24,70.38-68.45,96.05-72.73
		c25.67-4.28,91.98-4.28,91.98-4.28l3.88-94.12h-33.83c0,0-87.7,0-136.9,51.34s-55.62,138.83-59.89,224.5
		c-4.28,85.67,7.13,111.69-7.84,126.67c-8.6,8.6-18.03,13.44-24.49,15.99c3.64,1.78,7.95,2.9,13.08,2.9
		C652.98,693.85,659.4,663.9,659.4,663.9z"/>
</g>
<g>
	<path class="st1" d="M1020.9,106.67c0-12.4-10.06-22.46-22.46-22.46H880.79c-12.4,0-22.46,10.06-22.46,22.46v165.78h162.57V106.67z
		"/>
	<path class="st4" d="M880.79,417.91h117.65c12.4,0,22.46-10.06,22.46-22.46v-123H858.33v123
		C858.33,407.85,868.39,417.91,880.79,417.91z"/>
</g>
<g>
	<defs>
		<circle id="SVGID_2_" cx="512" cy="512" r="465"/>
	</defs>
	<clipPath id="SVGID_3_">
		<use xlink:href="#SVGID_2_"  style="overflow:visible;"/>
	</clipPath>
	<g class="st5">
		<path class="st6" d="M581.99,760.69H354.81c-7.8,0-14.13-6.33-14.13-14.13V519.38c0-7.8,6.33-14.13,14.13-14.13h227.18
			c7.8,0,14.13,6.33,14.13,14.13v227.18C596.12,754.37,589.79,760.69,581.99,760.69z"/>
		<path class="st6" d="M1155.26,760.69H928.08c-7.8,0-14.13-6.33-14.13-14.13V519.38c0-7.8,6.33-14.13,14.13-14.13h227.18
			c7.8,0,14.13,6.33,14.13,14.13v227.18C1169.39,754.37,1163.06,760.69,1155.26,760.69z"/>
		<path class="st6" d="M181.86,760.69H-45.32c-7.8,0-14.13-6.33-14.13-14.13V519.38c0-7.8,6.33-14.13,14.13-14.13h227.18
			c7.8,0,14.13,6.33,14.13,14.13v227.18C195.99,754.37,189.67,760.69,181.86,760.69z"/>
		<path class="st6" d="M581.99,1045.9H354.81c-7.8,0-14.13-6.33-14.13-14.13V804.59c0-7.8,6.33-14.13,14.13-14.13h227.18
			c7.8,0,14.13,6.33,14.13,14.13v227.18C596.12,1039.57,589.79,1045.9,581.99,1045.9z"/>
		<path class="st6" d="M295.35,1045.9H68.17c-7.8,0-14.13-6.33-14.13-14.13V804.59c0-7.8,6.33-14.13,14.13-14.13h227.18
			c7.8,0,14.13,6.33,14.13,14.13v227.18C309.48,1039.57,303.16,1045.9,295.35,1045.9z"/>
		<path class="st6" d="M868.62,1045.9H641.44c-7.8,0-14.13-6.33-14.13-14.13V804.59c0-7.8,6.33-14.13,14.13-14.13h227.18
			c7.8,0,14.13,6.33,14.13,14.13v227.18C882.75,1039.57,876.43,1045.9,868.62,1045.9z"/>
		<g>
			<path class="st7" d="M553.11,713.1h-36.2l-14.39-37.44h-65.88l-13.6,37.44h-35.3l64.19-164.82h35.19L553.11,713.1z
				 M491.84,647.89l-22.71-61.16l-22.26,61.16H491.84z"/>
		</g>
		<g>
			<path class="st7" d="M404.6,835.18h65.88c13.04,0,22.77,0.54,29.17,1.63c6.41,1.09,12.14,3.36,17.2,6.8
				c5.06,3.45,9.28,8.04,12.65,13.77c3.37,5.73,5.06,12.16,5.06,19.28c0,7.72-2.08,14.8-6.24,21.25c-4.16,6.45-9.8,11.28-16.92,14.5
				c10.04,2.92,17.76,7.91,23.16,14.95c5.4,7.05,8.09,15.33,8.09,24.85c0,7.5-1.74,14.78-5.23,21.87
				c-3.49,7.08-8.25,12.74-14.28,16.98c-6.03,4.24-13.47,6.84-22.32,7.81c-5.55,0.6-18.93,0.97-40.14,1.12h-56.1V835.18z
				 M437.88,862.62v38.11h21.81c12.97,0,21.02-0.19,24.17-0.56c5.7-0.67,10.17-2.64,13.43-5.9c3.26-3.26,4.89-7.55,4.89-12.87
				c0-5.1-1.41-9.24-4.22-12.42c-2.81-3.18-6.99-5.11-12.54-5.79c-3.3-0.37-12.78-0.56-28.44-0.56H437.88z M437.88,928.16v44.07
				h30.8c11.99,0,19.6-0.34,22.82-1.01c4.95-0.9,8.97-3.09,12.09-6.58c3.11-3.49,4.67-8.15,4.67-14c0-4.95-1.2-9.14-3.6-12.59
				c-2.4-3.45-5.87-5.96-10.4-7.53c-4.54-1.57-14.37-2.36-29.51-2.36H437.88z"/>
		</g>
		<g>
			<path class="st7" d="M117.85,1000V835.18h122.21v27.88h-88.93v36.54h82.74v27.77h-82.74v44.86h92.08V1000H117.85z"/>
		</g>
		<g>
			<path class="st7" d="M796.58,939.4l32.27,10.23c-4.95,17.99-13.17,31.35-24.68,40.08c-11.51,8.73-26.1,13.1-43.79,13.1
				c-21.89,0-39.87-7.48-53.96-22.43c-14.09-14.95-21.14-35.4-21.14-61.33c0-27.43,7.08-48.74,21.25-63.91
				c14.17-15.18,32.79-22.77,55.88-22.77c20.16,0,36.54,5.96,49.13,17.88c7.49,7.05,13.12,17.16,16.86,30.35l-32.94,7.87
				c-1.95-8.54-6.01-15.29-12.2-20.24c-6.18-4.95-13.7-7.42-22.54-7.42c-12.22,0-22.13,4.38-29.74,13.15
				c-7.61,8.77-11.41,22.97-11.41,42.61c0,20.84,3.75,35.68,11.24,44.52c7.49,8.84,17.24,13.27,29.23,13.27
				c8.84,0,16.45-2.81,22.82-8.43C789.23,960.31,793.8,951.47,796.58,939.4z"/>
		</g>
		<g>
			<path class="st7" d="M4.37,548.28h60.82c13.72,0,24.17,1.05,31.37,3.15c9.67,2.85,17.95,7.91,24.85,15.18
				c6.89,7.27,12.14,16.17,15.74,26.7c3.6,10.53,5.4,23.52,5.4,38.96c0,13.57-1.69,25.26-5.06,35.08
				c-4.12,11.99-10.01,21.7-17.65,29.12c-5.77,5.62-13.57,10.01-23.38,13.15c-7.35,2.32-17.16,3.49-29.46,3.49H4.37V548.28z
				 M37.65,576.16v109.16h24.85c9.29,0,16-0.52,20.12-1.57c5.4-1.35,9.87-3.63,13.44-6.86c3.56-3.22,6.46-8.53,8.71-15.91
				c2.25-7.38,3.37-17.44,3.37-30.19c0-12.74-1.12-22.52-3.37-29.34c-2.25-6.82-5.4-12.14-9.44-15.96s-9.18-6.41-15.4-7.76
				c-4.65-1.05-13.75-1.57-27.32-1.57H37.65z"/>
		</g>
	</g>
</g>
</svg>
