<svg xmlns:xlink="http://www.w3.org/1999/xlink" width="1506" viewBox="0 0 1506 980" xmlns="http://www.w3.org/2000/svg" height="980" xmlns:ev="http://www.w3.org/2001/xml-events"><defs/><g id="page2" transform="translate(5.5,5.5)"><rect y="0" fill="#ffffff" width="1496" height="970" x="0"/><g id="group1" transform="translate(38.00,76.00)"><g id="group2"><path id="shape3" fill="none" stroke-width="2" d="M.0,.0L1418.0,.0L1418.0,205.3L.0,205.3L.0,.0z" stroke="#ebebeb"/><g id="shape4" transform="matrix(0.00,-1.00,1.00,0.00,-0.0,205.3)"><path fill="#eff4f8" stroke-width="2" d="M.0,.0L205.3,.0L205.3,56.7L.0,56.7L.0,.0z" fill-rule="nonzero" stroke="#ebebeb"/><text xml:space="preserve" style="fill:#454545;font-family:Microsoft YaHei;font-size:12.00pt"><tspan y="35.0" x="62.7">与二手车主</tspan></text></g></g><g id="group5" transform="translate(0.00,205.33)"><path id="shape6" fill="none" stroke-width="2" d="M.0,.0L1418.0,.0L1418.0,205.3L.0,205.3L.0,.0z" stroke="#ebebeb"/><g id="shape7" transform="matrix(0.00,-1.00,1.00,0.00,-0.0,205.3)"><path fill="#eff4f8" stroke-width="2" d="M.0,.0L205.3,.0L205.3,56.7L.0,56.7L.0,.0z" fill-rule="nonzero" stroke="#ebebeb"/><text xml:space="preserve" style="fill:#454545;font-family:Microsoft YaHei;font-size:12.00pt"><tspan y="35.0" x="30.7">整车销售与置换环节</tspan></text></g></g><g id="group8" transform="translate(0.00,410.67)"><path id="shape9" fill="none" stroke-width="2" d="M.0,.0L1418.0,.0L1418.0,257.3L.0,257.3L.0,.0z" stroke="#ebebeb"/><g id="shape10" transform="matrix(0.00,-1.00,1.00,0.00,-0.0,257.3)"><path fill="#eff4f8" stroke-width="2" d="M.0,.0L257.3,.0L257.3,56.7L.0,56.7L.0,.0z" fill-rule="nonzero" stroke="#ebebeb"/><text xml:space="preserve" style="fill:#454545;font-family:Microsoft YaHei;font-size:12.00pt"><tspan y="35.0" x="72.7">二手车销售环节</tspan></text></g></g><g id="group11" transform="translate(0.00,668.00)"><path id="shape12" fill="none" stroke-width="2" d="M.0,.0L1418.0,.0L1418.0,205.3L.0,205.3L.0,.0z" stroke="#ebebeb"/><g id="shape13" transform="matrix(0.00,-1.00,1.00,0.00,-0.0,205.3)"><path fill="#eff4f8" stroke-width="2" d="M.0,.0L205.3,.0L205.3,56.7L.0,56.7L.0,.0z" fill-rule="nonzero" stroke="#ebebeb"/><text xml:space="preserve" style="fill:#454545;font-family:Microsoft YaHei;font-size:12.00pt"><tspan y="35.0" x="54.7">财务处理环节</tspan></text></g></g></g><g id="shape14" transform="translate(120.00,303.00)"><path fill="#eff4f8" stroke-width="2" d="M22.0,44.0L78.0,44.0L78.0,44.0C90.2,44.0,100.0,34.2,100.0,22.0C100.0,9.8,90.2,.0,78.0,.0L22.0,.0L22.0,.0C9.8,.0,.0,9.8,.0,22.0C.0,34.2,9.8,44.0,22.0,44.0z" fill-rule="nonzero" stroke="#305c74"/><text xml:space="preserve" style="fill:#454545;font-family:Microsoft YaHei;font-size:12.00pt"><tspan y="28.5" x="34.0">开始</tspan></text></g><g id="shape15" transform="translate(39.00,24.00)"><path fill="#eff4f8" stroke-width="2" d="M.0,.0L1418.0,.0L1418.0,52.0L.0,52.0L.0,.0z" fill-rule="nonzero" stroke="#ebebeb"/><text xml:space="preserve" style="fill:#454545;font-family:Microsoft YaHei;font-size:12.00pt;font-weight:bold"><tspan y="32.0" x="4.0">EAS系统二手车置换收购流程（Auto4S-VM-SV-01）</tspan></text></g><g id="shape16" transform="translate(436.50,359.00)"><path fill="#d2e7f9" stroke-width="2" d="M136.0,60.0L136.0,.0L.0,.0L.0,60.0L136.0,60.0z" fill-rule="nonzero" stroke="#0070c0"/><text xml:space="preserve" style="fill:#454545;font-family:Microsoft YaHei;font-size:12.00pt"><tspan y="26.0" x="12.0">关联生成及维护</tspan><tspan y="47.0" x="20.0">二手车收购单</tspan></text></g><g id="shape17" transform="translate(1046.00,794.50)"><path fill="#d2e7f9" stroke-width="2" d="M136.0,60.0L136.0,.0L.0,.0L.0,60.0L136.0,60.0z" fill-rule="nonzero" stroke="#0070c0"/><text xml:space="preserve" style="fill:#454545;font-family:Microsoft YaHei;font-size:12.00pt"><tspan y="26.0" x="12.0">关联生成及维护</tspan><tspan y="47.0" x="44.0">付款单</tspan></text></g><g id="shape18" transform="translate(214.50,419.00)"><path fill="#eef7f7" stroke-width="2" d="M.0,52.5L.0,.0L136.0,.0L136.0,52.5L136.0,52.5C125.7,47.7,114.2,45.0,102.0,45.0C89.8,45.0,78.3,47.7,68.0,52.5L68.0,52.5C57.7,57.3,46.2,60.0,34.0,60.0C21.8,60.0,10.3,57.3,.0,52.5z" fill-rule="nonzero" stroke="#226e6d"/><text xml:space="preserve" style="fill:#454545;font-family:Microsoft YaHei;font-size:12.00pt"><tspan y="29.0" x="4.0">整车销售订单订单</tspan></text></g><g id="shape19" transform="translate(214.50,144.00)"><path fill="#ffc000" stroke-dasharray="11,5,2.5,5" stroke-width="2" d="M136.0,53.0L136.0,7.0C136.0,3.1,132.9,.0,129.0,.0L7.0,.0C3.1,.0,.0,3.1,.0,7.0L.0,53.0C.0,56.9,3.1,60.0,7.0,60.0L129.0,60.0C132.9,60.0,136.0,56.9,136.0,53.0z" fill-rule="nonzero" stroke="#226e6d"/><text xml:space="preserve" style="fill:#454545;font-family:Microsoft YaHei;font-size:12.00pt"><tspan y="26.0" x="4.0">与客户沟通二手车</tspan><tspan y="47.0" x="36.0">置换事宜</tspan></text></g><g id="shape20" transform="translate(1304.00,794.50)"><path fill="#fbf2ef" stroke-width="2" d="M136.0,60.0L136.0,.0L.0,.0L.0,60.0L136.0,60.0z" fill-rule="nonzero" stroke="#0070c0"/><text xml:space="preserve" style="fill:#454545;font-family:Microsoft YaHei;font-size:12.00pt"><tspan y="26.0" x="36.0">生成凭证</tspan><tspan y="47.0" x="36.0">财务记账</tspan></text></g><g id="shape21" transform="translate(1322.00,367.00)"><path fill="#eff4f8" stroke-width="2" d="M22.0,44.0L78.0,44.0L78.0,44.0C90.2,44.0,100.0,34.2,100.0,22.0C100.0,9.8,90.2,.0,78.0,.0L22.0,.0L22.0,.0C9.8,.0,.0,9.8,.0,22.0C.0,34.2,9.8,44.0,22.0,44.0z" fill-rule="nonzero" stroke="#305c74"/><text xml:space="preserve" style="fill:#454545;font-family:Microsoft YaHei;font-size:12.00pt"><tspan y="28.5" x="34.0">结束</tspan></text></g><g id="shape22" transform="translate(1046.00,854.50)"><path fill="#eef7f7" stroke-width="2" d="M.0,52.5L.0,.0L136.0,.0L136.0,52.5L136.0,52.5C125.7,47.7,114.2,45.0,102.0,45.0C89.8,45.0,78.3,47.7,68.0,52.5L68.0,52.5C57.7,57.3,46.2,60.0,34.0,60.0C21.8,60.0,10.3,57.3,.0,52.5z" fill-rule="nonzero" stroke="#226e6d"/><text xml:space="preserve" style="fill:#454545;font-family:Microsoft YaHei;font-size:12.00pt"><tspan y="29.0" x="44.0">付款单</tspan></text></g><g id="shape23" transform="translate(1304.00,854.50)"><path fill="#eef7f7" stroke-width="2" d="M.0,52.5L.0,.0L136.0,.0L136.0,52.5L136.0,52.5C125.7,47.7,114.2,45.0,102.0,45.0C89.8,45.0,78.3,47.7,68.0,52.5L68.0,52.5C57.7,57.3,46.2,60.0,34.0,60.0C21.8,60.0,10.3,57.3,.0,52.5z" fill-rule="nonzero" stroke="#226e6d"/><text xml:space="preserve" style="fill:#454545;font-family:Microsoft YaHei;font-size:12.00pt"><tspan y="29.0" x="52.0">凭证</tspan></text></g><g id="shape24" transform="translate(228.00,204.00)"><path fill="none" stroke-width="2" d="" stroke="#226e6d"/></g><g id="shape25" transform="translate(214.50,359.00)"><path fill="#eef7f7" d="M136.0,60.0L136.0,.0L.0,.0L.0,60.0L136.0,60.0z" fill-rule="nonzero"/><path fill="none" stroke-width="2" d="M136.0,60.0L136.0,.0L.0,.0L.0,60.0L136.0,60.0zM15.0,60.0L15.0,.0L15.0,60.0zM121.0,60.0L121.0,.0L121.0,60.0z" stroke="#226e6d"/><text xml:space="preserve" style="fill:#454545;font-family:Microsoft YaHei;font-size:10.00pt"><tspan y="35.5" x="29.0">整车销售流程</tspan></text></g><g id="shape26" transform="translate(628.00,255.00)"><path fill="#eef7f7" stroke-width="2" d="M68.0,60.0L136.0,30.0L68.0,.0L.0,30.0L68.0,60.0z" fill-rule="nonzero" stroke="#226e6d"/><text xml:space="preserve" style="fill:#454545;font-family:Microsoft YaHei;font-size:10.00pt"><tspan y="26.0" x="42.0">收购价格</tspan><tspan y="45.0" x="29.0">客户是否接受</tspan></text></g><g id="group27" transform="translate(378.00,149.00)"><path id="shape28" fill="#eef7f7" stroke-width="2" d="M8.8,.0L29.1,.0C34.0,.0,38.0,3.6,38.0,8.1L38.0,22.6C38.0,27.0,34.0,30.7,29.1,30.7L8.8,30.7C3.9,30.7,.0,27.0,.0,22.6L.0,8.1C.0,3.6,3.9,.0,8.8,.0z" fill-rule="nonzero" stroke="#226e6d" transform="translate(0.00,19.33)"/><path id="shape29" fill="#eef7f7" stroke-width="2" d="M-0.0,11.4C-0.0,5.1,5.2,.0,11.6,.0C18.1,.0,23.3,5.1,23.3,11.4C23.3,17.6,18.1,22.7,11.6,22.7C5.2,22.7,-0.0,17.6,-0.0,11.4z" fill-rule="nonzero" stroke="#226e6d" transform="translate(7.33,-0.03)"/></g><g id="shape30" transform="translate(282.50,204.00)"><path fill="none" stroke-dasharray="2.5,2.5" stroke-width="2" d="M.0,.0L.0,148.8" stroke="#226e6d"/><path fill="#226e6d" stroke-width="1" stroke-linecap="round" d="M.0,155.0L4.2,147.7C3.0,148.4,1.5,148.8,.0,148.8C-1.5,148.8,-3.0,148.4,-4.2,147.7L.0,155.0" stroke="#226e6d"/></g><g id="shape31" transform="translate(339.50,255.00)"><path fill="#ffc000" stroke-dasharray="11,5,2.5,5" stroke-width="2" d="M136.0,53.0L136.0,7.0C136.0,3.1,132.9,.0,129.0,.0L7.0,.0C3.1,.0,.0,3.1,.0,7.0L.0,53.0C.0,56.9,3.1,60.0,7.0,60.0L129.0,60.0C132.9,60.0,136.0,56.9,136.0,53.0z" fill-rule="nonzero" stroke="#226e6d"/><text xml:space="preserve" style="fill:#454545;font-family:Microsoft YaHei;font-size:12.00pt"><tspan y="36.5" x="20.0">车辆评估事宜</tspan></text></g><g id="shape32" transform="translate(407.50,315.00)"><path fill="none" stroke-dasharray="2.5,2.5" stroke-width="2" d="M.0,.0L.0,28.0L97.0,28.0L97.0,37.8" stroke="#226e6d"/><path fill="#226e6d" stroke-width="1" stroke-linecap="round" d="M97.0,44.0L101.2,36.7C100.0,37.4,98.5,37.8,97.0,37.8C95.5,37.8,94.0,37.4,92.8,36.7L97.0,44.0" stroke="#226e6d"/></g><g id="shape33" transform="translate(350.50,389.00)"><path fill="none" stroke-width="2" d="M.0,.0L79.8,.0" stroke="#226e6d"/><path fill="#226e6d" stroke-width="1" stroke-linecap="round" d="M86.0,.0L78.7,-4.2C79.4,-3.0,79.8,-1.5,79.8,.0C79.8,1.5,79.4,3.0,78.7,4.2L86.0,.0" stroke="#226e6d"/><rect y="-9.5" fill="#ffffff" width="52.0" height="19.0" x="17.7"/><text xml:space="preserve" style="fill:#454545;font-family:Microsoft YaHei;font-size:10.00pt"><tspan y="5.5" x="17.7">关联生成</tspan></text></g><g id="shape34" transform="translate(572.50,389.00)"><path fill="none" stroke-width="2" d="M.0,.0L23.5,.0L23.5,-104.0L49.3,-104.0" stroke="#226e6d"/><path fill="#226e6d" stroke-width="1" stroke-linecap="round" d="M55.5,-104.0L48.2,-108.2C48.9,-107.0,49.3,-105.5,49.3,-104.0C49.3,-102.5,48.9,-101.0,48.2,-99.8L55.5,-104.0" stroke="#226e6d"/></g><g id="shape35" transform="translate(784.00,359.00)"><path fill="#eef7f7" stroke-width="2" d="M.0,52.5L.0,.0L136.0,.0L136.0,52.5L136.0,52.5C125.7,47.7,114.2,45.0,102.0,45.0C89.8,45.0,78.3,47.7,68.0,52.5L68.0,52.5C57.7,57.3,46.2,60.0,34.0,60.0C21.8,60.0,10.3,57.3,.0,52.5z" fill-rule="nonzero" stroke="#226e6d"/><text xml:space="preserve" style="fill:#454545;font-family:Microsoft YaHei;font-size:12.00pt"><tspan y="29.0" x="20.0">二手车收购单</tspan></text></g><g id="shape36" transform="translate(696.00,315.00)"><path fill="none" stroke-width="2" d="M.0,.0L.0,28.0L156.0,28.0L156.0,37.8" stroke="#226e6d"/><path fill="#226e6d" stroke-width="1" stroke-linecap="round" d="M156.0,44.0L160.2,36.7C159.0,37.4,157.5,37.8,156.0,37.8C154.5,37.8,153.0,37.4,151.8,36.7L156.0,44.0" stroke="#226e6d"/><rect y="18.5" fill="#ffffff" width="26.0" height="19.0" x="43.6"/><text xml:space="preserve" style="fill:#454545;font-family:Microsoft YaHei;font-size:10.00pt"><tspan y="33.5" x="43.6">接受</tspan></text></g><g id="shape37" transform="matrix(0.00,1.00,-1.00,0.00,1025.0,142.4)"><path fill="none" stroke-width="2" d="M36.5,272.0L126.2,298.0M73.0,166.7L73.0,272.0L.0,272.0L.0,166.7" stroke="#f4b5be"/><text xml:space="preserve" style="fill:#454545;font-family:Microsoft YaHei;font-size:10.00pt" transform="matrix(0.00,-1.00,1.00,0.00,36.5,36.5)"><tspan y="-13.5" x="-231.0">1、如接受，收购状态设置为“达成收购”；</tspan><tspan y="5.5" x="-231.0">2、如不接受，收购状态不要修改，仍为“收</tspan><tspan y="24.5" x="-231.0">购未达成”</tspan></text></g><g id="shape38" transform="translate(799.77,416.93)"><path fill="none" stroke-dasharray="11,5,2.5,5" stroke-width="2" d="M.0,.0L.0,32.1L-443.1,32.1" stroke="#226e6d"/><path fill="#226e6d" stroke-width="1" stroke-linecap="round" d="M-449.3,32.1L-441.9,36.3C-442.6,35.1,-443.1,33.6,-443.1,32.1C-443.1,30.5,-442.6,29.1,-441.9,27.8L-449.3,32.1" stroke="#226e6d"/><rect y="13.1" fill="#ffffff" width="156.0" height="19.0" x="-317.2"/><rect y="32.1" fill="#ffffff" width="78.0" height="19.0" x="-278.2"/><text xml:space="preserve" style="fill:#454545;font-family:Microsoft YaHei;font-size:10.00pt"><tspan y="28.1" x="-317.2">置换金额反写整车销售订单</tspan><tspan y="47.1" x="-278.2">二手车收购价</tspan></text></g><g id="shape39" transform="translate(1372.00,794.50)"><path fill="none" stroke-width="2" d="M.0,.0L.0,-377.3" stroke="#226e6d"/><path fill="#226e6d" stroke-width="1" stroke-linecap="round" d="M.0,-383.5L-4.2,-376.2C-3.0,-376.9,-1.5,-377.3,.0,-377.3C1.5,-377.3,3.0,-376.9,4.2,-376.2L.0,-383.5" stroke="#226e6d"/></g><g id="shape40" transform="translate(784.00,557.00)"><path fill="#eef7f7" d="M136.0,60.0L136.0,.0L.0,.0L.0,60.0L136.0,60.0z" fill-rule="nonzero"/><path fill="none" stroke-width="2" d="M136.0,60.0L136.0,.0L.0,.0L.0,60.0L136.0,60.0zM15.0,60.0L15.0,.0L15.0,60.0zM121.0,60.0L121.0,.0L121.0,60.0z" stroke="#226e6d"/><text xml:space="preserve" style="fill:#454545;font-family:Microsoft YaHei;font-size:10.00pt"><tspan y="35.5" x="22.5">二手车销售流程</tspan></text></g><g id="shape41" transform="translate(920.00,389.00)"><path fill="none" stroke-width="2" d="M.0,.0L194.0,.0L194.0,399.3" stroke="#226e6d"/><path fill="#226e6d" stroke-width="1" stroke-linecap="round" d="M194.0,405.5L198.2,398.2C197.0,398.9,195.5,399.3,194.0,399.3C192.5,399.3,191.0,398.9,189.8,398.2L194.0,405.5" stroke="#226e6d"/><rect y="14.6" fill="#ffffff" width="284.0" height="19.0" x="53.0"/><rect y="33.6" fill="#ffffff" width="234.0" height="19.0" x="78.0"/><text xml:space="preserve" style="fill:#454545;font-family:Microsoft YaHei;font-size:10.00pt"><tspan y="29.6" x="53.0">如应付客户金额（=收购价格-置换金额）大于0，</tspan><tspan y="48.6" x="78.0">即除抵新车的金额还有剩余，需付给客户</tspan></text></g><g id="shape42" transform="translate(170.00,347.00)"><path fill="none" stroke-width="2" d="M.0,.0L.0,42.0L38.3,42.0" stroke="#226e6d"/><path fill="#226e6d" stroke-width="1" stroke-linecap="round" d="M44.5,42.0L37.2,37.8C37.9,39.0,38.3,40.5,38.3,42.0C38.3,43.5,37.9,45.0,37.2,46.2L44.5,42.0" stroke="#226e6d"/></g><g id="shape43" transform="translate(1182.00,824.50)"><path fill="none" stroke-width="2" d="M.0,.0L115.8,.0" stroke="#226e6d"/><path fill="#226e6d" stroke-width="1" stroke-linecap="round" d="M122.0,.0L114.7,-4.2C115.4,-3.0,115.8,-1.5,115.8,.0C115.8,1.5,115.4,3.0,114.7,4.2L122.0,.0" stroke="#226e6d"/></g><g id="shape44" transform="translate(852.00,411.50)"><path fill="none" stroke-width="2" d="M.0,.0L.0,139.3" stroke="#226e6d"/><path fill="#226e6d" stroke-width="1" stroke-linecap="round" d="M.0,145.5L4.2,138.2C3.0,138.9,1.5,139.3,.0,139.3C-1.5,139.3,-3.0,138.9,-4.2,138.2L.0,145.5" stroke="#226e6d"/></g><g id="shape45" transform="translate(696.00,255.00)"><path fill="none" stroke-width="2" d="M.0,.0L.0,-81.0L-273.8,-81.0" stroke="#226e6d"/><path fill="#226e6d" stroke-width="1" stroke-linecap="round" d="M-280.0,-81.0L-272.7,-76.8C-273.4,-78.0,-273.8,-79.5,-273.8,-81.0C-273.8,-82.5,-273.4,-84.0,-272.7,-85.2L-280.0,-81.0" stroke="#226e6d"/><rect y="-109.5" fill="#ffffff" width="39.0" height="19.0" x="-101.4"/><rect y="-90.5" fill="#ffffff" width="91.0" height="19.0" x="-127.4"/><rect y="-71.5" fill="#ffffff" width="52.0" height="19.0" x="-107.9"/><text xml:space="preserve" style="fill:#454545;font-family:Microsoft YaHei;font-size:10.00pt"><tspan y="-94.5" x="-101.4">不接受</tspan><tspan y="-75.5" x="-127.4">车辆还给客户，</tspan><tspan y="-56.5" x="-107.9">流程接束</tspan></text></g><g id="shape46" transform="matrix(0.00,1.00,-1.00,0.00,240.0,525.0)"><path fill="none" stroke-width="2" d="M27.0,.0L-46.2,-14.2M54.0,52.6L54.0,.0L.0,.0L.0,52.6" stroke="#f4b5be"/><text xml:space="preserve" style="fill:#454545;font-family:Microsoft YaHei;font-size:10.00pt" transform="matrix(0.00,-1.00,1.00,0.00,27.0,27.0)"><tspan y="-4.0" x="-80.0">购车形态必须</tspan><tspan y="15.0" x="-67.0">“置换”</tspan></text></g></g></svg>