<svg xml:space="preserve" style="enable-background:new 0 0 242.697 242.697;" viewBox="0 0 242.697 242.697" height="242.697px" width="242.697px" y="0px" x="0px" xmlns:xlink="http://www.w3.org/1999/xlink" xmlns="http://www.w3.org/2000/svg" id="Layer_1" version="1.1">
<g style="opacity:0.12;enable-background:new    ;">
	<circle r="121.349" cy="121.349" cx="121.349" style="fill:#6E6E96;"></circle>
</g>
<g>
	<g>
		<path d="M200.083,180.692c0,4.627-3.784,8.41-8.411,8.41H77.71c-4.625,0-8.41-3.783-8.41-8.41V31.408
			c0-4.625,3.785-8.411,8.41-8.411h113.962c4.627,0,8.411,3.785,8.411,8.411V180.692z" style="fill:#EEEEFA;"></path>
		<path d="M191.672,189.603H77.71c-4.913,0-8.91-3.997-8.91-8.91V31.408c0-4.914,3.997-8.911,8.91-8.911
			h113.962c4.914,0,8.911,3.998,8.911,8.911v149.284C200.583,185.605,196.586,189.603,191.672,189.603z M77.71,23.497
			c-4.362,0-7.91,3.549-7.91,7.911v149.284c0,4.361,3.548,7.91,7.91,7.91h113.962c4.362,0,7.911-3.549,7.911-7.91V31.408
			c0-4.362-3.549-7.911-7.911-7.911H77.71z" style="fill:#6E6E96;"></path>
	</g>
	<g>
		<path d="M200.083,180.692c0,4.627-3.784,8.41-8.411,8.41H77.71c-4.625,0-8.41-3.783-8.41-8.41V31.408
			c0-4.625,3.785-8.411,8.41-8.411h113.962c4.627,0,8.411,3.785,8.411,8.411V180.692z" style="fill:#EEEEFA;"></path>
		<path d="M191.672,190.603H77.71c-5.464,0-9.91-4.445-9.91-9.91V31.408c0-5.465,4.446-9.911,9.91-9.911
			h113.962c5.465,0,9.911,4.446,9.911,9.911v149.284C201.583,186.157,197.137,190.603,191.672,190.603z M77.71,24.497
			c-3.81,0-6.91,3.1-6.91,6.911v149.284c0,3.811,3.1,6.91,6.91,6.91h113.962c3.811,0,6.911-3.1,6.911-6.91V31.408
			c0-3.811-3.101-6.911-6.911-6.911H77.71z" style="fill:#6E6E96;"></path>
	</g>
</g>
<g style="opacity:0.15;enable-background:new    ;">
	<path d="M200.185,172.144c-0.021,4.607-3.797,8.371-8.41,8.371H77.813c-4.625,0-8.412-3.783-8.412-8.41
		v8.334c0,4.625,3.787,8.41,8.412,8.41h113.961c4.627,0,8.412-3.785,8.412-8.41h-0.002V172.144z" style="fill:#6E6E96;"></path>
</g>
<g>
	<g>
		<path d="M174.853,204.243c0,4.626-3.785,8.41-8.412,8.41H52.479c-4.625,0-8.411-3.784-8.411-8.41V54.957
			c0-4.625,3.785-8.41,8.411-8.41H166.44c4.627,0,8.41,3.784,8.41,8.41L174.853,204.243L174.853,204.243z" style="fill:#FFFFFF;"></path>
		<path d="M166.44,213.153H52.479c-4.914,0-8.911-3.997-8.911-8.91V54.957c0-4.913,3.998-8.91,8.911-8.91
			H166.44c4.913,0,8.91,3.997,8.91,8.91l0.002,149.286C175.353,209.156,171.354,213.153,166.44,213.153z M52.479,47.047
			c-4.362,0-7.911,3.548-7.911,7.91v149.286c0,4.361,3.549,7.91,7.911,7.91H166.44c4.362,0,7.912-3.549,7.912-7.91l-0.002-149.286
			c0-4.362-3.549-7.91-7.91-7.91H52.479z" style="fill:#6E6E96;"></path>
	</g>
	<g>
		<path d="M174.853,204.243c0,4.626-3.785,8.41-8.412,8.41H52.479c-4.625,0-8.411-3.784-8.411-8.41V54.957
			c0-4.625,3.785-8.41,8.411-8.41H166.44c4.627,0,8.41,3.784,8.41,8.41L174.853,204.243L174.853,204.243z" style="fill:#FFFFFF;"></path>
		<path d="M166.44,214.153H52.479c-5.465,0-9.911-4.445-9.911-9.91V54.957c0-5.464,4.446-9.91,9.911-9.91
			H166.44c5.465,0,9.91,4.446,9.91,9.91l0.002,149.286C176.353,209.708,171.906,214.153,166.44,214.153z M52.479,48.047
			c-3.811,0-6.911,3.1-6.911,6.91v149.286c0,3.811,3.1,6.91,6.911,6.91H166.44c3.812,0,6.912-3.1,6.912-6.91l-0.002-149.286
			c0-3.81-3.1-6.91-6.91-6.91H52.479z" style="fill:#6E6E96;"></path>
	</g>
</g>
<g>
	<rect height="41.491" width="130.783" style="fill:#FFE596;" y="87.478" x="44.068"></rect>
	<path d="M176.351,130.469H42.568V85.978h133.783V130.469z M45.568,127.469h127.783V88.978H45.568V127.469z" style="fill:#6E6E96;"></path>
</g>
<g>
	<rect height="3" width="67.283" style="fill:#6E6E96;" y="66.635" x="86.262"></rect>
	<rect height="3" width="11.214" style="fill:#6E6E96;" y="66.635" x="65.515"></rect>
</g>
<g>
	<rect height="3" width="67.283" style="fill:#6E6E96;" y="98.348" x="86.262"></rect>
	<rect height="3" width="11.214" style="fill:#6E6E96;" y="98.348" x="65.515"></rect>
</g>
<g>
	<rect height="3" width="67.283" style="fill:#6E6E96;" y="168.349" x="86.262"></rect>
	<rect height="3" width="11.214" style="fill:#6E6E96;" y="168.349" x="65.515"></rect>
</g>
<g>
	<rect height="3" width="45.586" style="fill:#6E6E96;" y="183.258" x="86.262"></rect>
	<rect height="3" width="11.214" style="fill:#6E6E96;" y="183.258" x="65.515"></rect>
</g>
<circle r="7.5" cy="17.215" cx="8.785" style="fill:#77BD91;"></circle>
<circle r="8" cy="229.215" cx="230.785" style="fill:#ED8EDE;"></circle>
<circle r="4.5" cy="109.215" cx="10.785" style="fill:#FFBF00;"></circle>
<g>
	<rect height="3" width="67.283" style="fill:#6E6E96;" y="152.349" x="86.262"></rect>
	<rect height="3" width="11.214" style="fill:#6E6E96;" y="152.349" x="65.515"></rect>
</g>
<g>
	<rect height="3" width="40.586" style="fill:#6E6E96;" y="113.348" x="86.262"></rect>
	<rect height="3" width="11.214" style="fill:#6E6E96;" y="113.348" x="65.515"></rect>
</g>
<g style="opacity:0.15;enable-background:new    ;">
	<path d="M175.185,194.948c-0.021,4.607-3.797,8.371-8.41,8.371H52.813c-4.625,0-8.411-3.783-8.411-8.409
		v8.333c0,4.626,3.786,8.41,8.411,8.41h113.961c4.627,0,8.412-3.784,8.412-8.41h-0.002V194.948z" style="fill:#6E6E96;"></path>
</g>
</svg>
