<svg xml:space="preserve" style="enable-background:new 0 0 255.975 251.146;" viewBox="0 0 255.975 251.146" height="251.146px" width="255.975px" y="0px" x="0px" xmlns:xlink="http://www.w3.org/1999/xlink" xmlns="http://www.w3.org/2000/svg" id="Layer_1" version="1.1">
<path d="M252.896,115.048c0-42.68-33.093-77.272-73.912-77.272c-0.636,0-1.262,0.031-1.894,0.049
	C164.203,15.18,140.573,0,113.541,0C72.72,0,39.628,34.6,39.628,77.28c0,0.554,0.029,1.1,0.04,1.652
	C17.342,92.227,2.277,117.317,2.277,146.104c0,42.678,33.095,77.27,73.914,77.27c2.321,0,4.615-0.123,6.885-0.342
	c13.558,17.17,35.067,28.115,58.027,28.115c37.732,0,67.832-29.563,72.33-67.734C236.896,170.465,252.896,144.715,252.896,115.048z" style="fill:#F7E3F4;"></path>
<g style="display:none;" id="Layer_3_1_">
	<g style="display:inline;">
		<path d="M83.635,140.439c0-11.564-10.059-20.938-22.467-20.938
			c-0.194,0-0.385,0.011-0.576,0.017c-3.917-6.137-11.102-10.245-19.318-10.245c-12.406,0-22.469,9.372-22.469,20.935
			c0,0.15,0.009,0.297,0.012,0.447c-6.782,3.602-11.362,10.397-11.362,18.197c0,11.562,10.059,20.934,22.468,20.934
			c0.705,0,1.403-0.033,2.092-0.094c4.122,4.647,10.358,7.617,17.335,7.617c11.471,0,20.925-8.013,22.293-18.353
			C78.772,155.451,83.635,148.477,83.635,140.439z" style="fill:#D7F7E4;stroke:#CCCCDE;stroke-width:3;"></path>
		<path d="M60.789,118.75c-0.193,0-0.387,0.011-0.575,0.017
			c-3.141-4.918-8.383-8.534-14.573-9.775c4.898,1.229,9.023,4.208,11.561,8.175c0.163-0.004,2.416,3.887,2.583,3.887
			c10.646,0,15.601,5.737,15.601,15.658c0,6.896-2.583,11.291-8.704,14.304c-1.173,8.875-9.287,15.746-19.129,15.746
			c-5.99,0-11.34-2.544-14.877-6.529c-0.591,0.049-1.189,0.076-1.794,0.076c-10.649,0-19.013-5.05-19.013-14.97
			c0-6.682,2.987-9.973,8.432-13.938c-0.146-0.855-0.75-8.42,1.267-10.438c4.792-4.793,6.963-8.907,11.25-11.038
			c-8.414,3.025-14.385,10.627-14.385,19.535c0,0.148,0.009,0.299,0.012,0.447C11.655,133.51,7.076,140.3,7.076,148.1
			c0,11.562,10.059,20.938,22.468,20.938c0.707,0,1.4-0.035,2.093-0.098c4.121,4.646,10.356,7.617,17.336,7.617
			c11.469,0,20.924-8.015,22.291-18.354c7.133-3.506,11.997-10.479,11.997-18.52C83.258,128.123,73.199,118.75,60.789,118.75z" style="opacity:0.1;fill:#6E6E96;enable-background:new    ;"></path>
		<path d="M28.811,151.761c0,0,11.635,2.275,11.635,13.66
			c0,0,3.135,19.345-8.976,33.027h27.96c-0.277-0.387-24.422-32.646,2.449-51.814C45.491,156.004,28.811,151.761,28.811,151.761z" style="fill:#EDE3DA;stroke:#CCCCDE;stroke-width:3;"></path>
		<g>
			<path d="M36.178,128.922" style="fill:#D57E58;"></path>
		</g>
		<path d="M54.905,151.73c0,0-17.651,22.793-4.085,46.721h8.611
			C59.43,198.451,41.515,173.414,54.905,151.73z" style="opacity:0.11;fill:#6E6E96;enable-background:new    ;"></path>
	</g>
	<g style="display:inline;">
		<path d="M253.475,139.156c0-10.828-9.42-19.604-21.04-19.604
			c-0.183,0-0.357,0.009-0.539,0.014c-3.669-5.744-10.396-9.596-18.091-9.596c-11.62,0-21.041,8.775-21.041,19.604
			c0,0.141,0.009,0.279,0.012,0.418c-6.354,3.375-10.644,9.74-10.644,17.043c0,10.826,9.421,19.605,21.04,19.605
			c0.66,0,1.312-0.033,1.96-0.093c3.858,4.354,9.698,7.138,16.233,7.138c10.735,0,19.596-7.5,20.875-17.188
			C248.92,153.213,253.475,146.684,253.475,139.156z" style="fill:#D7F7E4;stroke:#CCCCDE;stroke-width:3;"></path>
		<path d="M232.081,118.845c-0.187,0-0.358,0.009-0.539,0.013
			c-2.94-4.606-7.854-7.992-13.646-9.154c4.586,1.15,8.449,3.94,10.822,7.655c0.154-0.004,2.263,3.639,2.419,3.639
			c9.971,0,14.608,5.374,14.608,14.664c0,6.459-2.42,10.574-8.148,13.396c-1.1,8.311-8.698,14.739-17.914,14.739
			c-5.604,0-10.619-2.381-13.934-6.114c-0.56,0.047-1.112,0.069-1.685,0.069c-9.975,0-17.806-4.727-17.806-14.016
			c0-6.258,2.8-9.34,7.896-13.055c-0.14-0.81-0.7-7.889,1.188-9.772c4.485-4.488,6.521-8.343,10.534-10.337
			c-7.879,2.833-13.471,9.952-13.471,18.291c0,0.139,0.006,0.275,0.012,0.418c-6.354,3.373-10.646,9.736-10.646,17.041
			c0,10.824,9.421,19.604,21.041,19.604c0.661,0,1.313-0.032,1.959-0.092c3.859,4.355,9.699,7.138,16.234,7.138
			c10.739,0,19.594-7.5,20.875-17.188c6.68-3.285,11.229-9.812,11.229-17.342C253.122,127.623,243.702,118.845,232.081,118.845z" style="opacity:0.1;fill:#6E6E96;enable-background:new    ;"></path>
		<path d="M202.135,149.758c0,0,10.896,2.136,10.896,12.8
			c0,0,2.936,18.106-8.404,30.928h26.184c-0.26-0.359-22.87-30.566,2.294-48.521C217.754,153.732,202.135,149.758,202.135,149.758z" style="fill:#EDE3DA;stroke:#CCCCDE;stroke-width:3;"></path>
		<g>
			<path d="M209.036,128.373" style="fill:#D57E58;"></path>
		</g>
		<path d="M226.571,149.73c0,0-16.528,21.344-3.821,43.752h8.062
			C230.808,193.482,214.032,170.035,226.571,149.73z" style="opacity:0.11;fill:#6E6E96;enable-background:new    ;"></path>
	</g>
	<g style="display:inline;">
		<path d="M216.773,140.916c0-16.621-14.461-30.094-32.299-30.094
			c-0.278,0-0.554,0.012-0.828,0.019c-5.632-8.814-15.959-14.729-27.771-14.729c-17.838,0-32.301,13.475-32.301,30.096
			c0,0.215,0.014,0.43,0.018,0.646c-9.755,5.181-16.339,14.942-16.339,26.155c0,16.619,14.462,30.099,32.3,30.099
			c1.014,0,2.018-0.049,3.008-0.14c5.926,6.688,14.892,10.949,24.921,10.949c16.489,0,30.081-11.514,32.049-26.379
			C209.782,162.498,216.773,152.469,216.773,140.916z" style="fill:#D7F7E4;stroke:#CCCCDE;stroke-width:3;"></path>
		<path d="M183.931,109.738c-0.276,0-0.552,0.012-0.827,0.019
			c-4.516-7.068-12.051-12.269-20.949-14.052c7.041,1.769,12.974,6.049,16.614,11.751c0.237-0.006,3.477,5.586,3.713,5.586
			c15.311,0,22.432,8.248,22.432,22.513c0,9.912-3.718,16.23-12.516,20.563c-1.687,12.754-13.353,22.635-27.5,22.635
			c-8.607,0-16.302-3.653-21.387-9.395c-0.851,0.069-1.71,0.112-2.58,0.112c-15.31,0-27.332-7.256-27.332-21.518
			c0-9.604,4.298-14.336,12.12-20.039c-0.209-1.231-1.077-12.104,1.82-15.002c6.89-6.89,10.011-12.808,16.174-15.868
			c-12.096,4.352-20.679,15.277-20.679,28.08c0,0.215,0.011,0.43,0.017,0.646c-9.756,5.177-16.34,14.944-16.34,26.155
			c0,16.619,14.461,30.099,32.3,30.099c1.017,0,2.017-0.049,3.008-0.138c5.925,6.688,14.893,10.947,24.922,10.947
			c16.487,0,30.078-11.514,32.046-26.379c10.257-5.043,17.244-15.068,17.244-26.623C216.231,123.211,201.77,109.738,183.931,109.738
			z" style="opacity:0.1;fill:#6E6E96;enable-background:new    ;"></path>
		<path d="M137.959,157.193c0,0,16.727,3.271,16.727,19.643
			c0,0,4.504,27.81-12.901,47.48h40.192c-0.396-0.56-35.104-46.922,3.521-74.484C161.939,163.293,137.959,157.193,137.959,157.193z" style="fill:#EDE3DA;stroke:#CCCCDE;stroke-width:3;"></path>
		<g>
			<path d="M148.552,124.362" style="fill:#D57E58;"></path>
		</g>
		<path d="M175.472,157.148c0,0-25.378,32.766-5.873,67.164h12.378
			C181.977,224.313,156.223,188.32,175.472,157.148z" style="opacity:0.11;fill:#6E6E96;enable-background:new    ;"></path>
	</g>
	<g style="display:inline;">
		<path d="M144.936,142.027c0-13.646-11.873-24.707-26.517-24.707
			c-0.229,0-0.454,0.01-0.683,0.016c-4.621-7.236-13.102-12.092-22.8-12.092c-14.644,0-26.518,11.063-26.518,24.706
			c0,0.178,0.012,0.354,0.015,0.529c-8.01,4.252-13.414,12.271-13.414,21.477c0,13.646,11.872,24.707,26.521,24.707
			c0.832,0,1.652-0.041,2.469-0.104c4.864,5.481,12.224,8.981,20.46,8.981c13.537,0,24.695-9.451,26.309-21.649
			C139.196,159.746,144.936,151.514,144.936,142.027z" style="fill:#D7F7E4;stroke:#CCCCDE;stroke-width:3;"></path>
		<path d="M117.973,116.432c-0.228,0-0.452,0.009-0.679,0.015
			c-3.707-5.805-9.896-10.072-17.199-11.537c5.78,1.45,10.648,4.966,13.641,9.647c0.194-0.006,2.854,4.586,3.051,4.586
			c12.564,0,18.414,6.771,18.414,18.479c0,8.141-3.053,13.326-10.271,16.881c-1.384,10.476-10.961,18.584-22.576,18.584
			c-7.066,0-13.384-3.004-17.559-7.715c-0.698,0.063-1.404,0.098-2.118,0.098c-12.568,0-22.438-5.957-22.438-17.663
			c0-7.888,3.528-11.771,9.949-16.451c-0.171-1.019-0.884-9.938,1.496-12.316c5.655-5.657,8.218-10.515,13.277-13.026
			c-9.933,3.569-16.979,12.542-16.979,23.055c0,0.176,0.013,0.352,0.018,0.524c-8.014,4.25-13.415,12.271-13.415,21.479
			c0,13.645,11.873,24.707,26.518,24.707c0.834,0,1.655-0.041,2.469-0.109c4.864,5.488,12.227,8.988,20.462,8.988
			c13.535,0,24.692-9.451,26.312-21.656c8.418-4.141,14.158-12.371,14.158-21.854C144.491,127.494,132.618,116.432,117.973,116.432z" style="opacity:0.1;fill:#6E6E96;enable-background:new    ;"></path>
		<path d="M80.232,155.391c0,0,13.731,2.688,13.731,16.129
			c0,0,3.697,22.821-10.595,38.977h33c-0.328-0.455-28.824-38.52,2.89-61.149C99.918,160.398,80.232,155.391,80.232,155.391z" style="fill:#EDE3DA;stroke:#CCCCDE;stroke-width:3;"></path>
		<g>
			<path d="M88.928,128.438" style="fill:#D57E58;"></path>
		</g>
		<path d="M111.028,155.355c0,0-20.835,26.896-4.818,55.141h10.162
			C116.369,210.496,95.225,180.945,111.028,155.355z" style="opacity:0.11;fill:#6E6E96;enable-background:new    ;"></path>
	</g>
	<g style="display:inline;">
		<path d="M252.159,166.164c0-12.344-10.74-22.35-23.988-22.35
			c-0.202,0-0.406,0.008-0.61,0.014c-4.187-6.549-11.854-10.938-20.625-10.938c-13.248,0-23.982,10.008-23.982,22.35
			c0,0.162,0.012,0.318,0.014,0.479c-7.244,3.851-12.135,11.104-12.135,19.433c0,12.348,10.733,22.354,23.982,22.354
			c0.753,0,1.497-0.039,2.229-0.104c4.397,4.969,11.062,8.135,18.512,8.135c12.245,0,22.339-8.553,23.799-19.592
			C246.965,182.191,252.159,174.746,252.159,166.164z" style="fill:#D7F7E4;stroke:#CCCCDE;stroke-width:3;"></path>
		<path d="M227.767,143.008c-0.206,0-0.409,0.015-0.614,0.019
			c-3.354-5.25-8.946-9.111-15.558-10.438c5.229,1.313,9.633,4.492,12.339,8.729c0.175-0.004,2.579,4.146,2.757,4.146
			c11.368,0,16.655,6.123,16.655,16.722c0,7.358-2.757,12.055-9.291,15.27c-1.252,9.474-9.915,16.814-20.423,16.814
			c-6.396,0-12.106-2.724-15.884-6.98c-0.631,0.055-1.271,0.086-1.916,0.086c-11.368,0-20.299-5.389-20.299-15.979
			c0-7.138,3.188-10.646,9.002-14.888c-0.156-0.918-0.807-8.983,1.353-11.141c5.116-5.117,7.438-9.514,12.011-11.785
			c-8.979,3.229-15.354,11.348-15.354,20.854c0,0.157,0.013,0.313,0.017,0.479c-7.246,3.848-12.138,11.104-12.138,19.43
			c0,12.345,10.738,22.353,23.988,22.353c0.754,0,1.494-0.035,2.229-0.103c4.401,4.968,11.062,8.134,18.509,8.134
			c12.245,0,22.338-8.556,23.802-19.595c7.612-3.739,12.812-11.188,12.812-19.77C251.754,153.016,241.016,143.008,227.767,143.008z" style="opacity:0.1;fill:#6E6E96;enable-background:new    ;"></path>
		<path d="M193.625,178.252c0,0,12.422,2.435,12.422,14.588
			c0,0,3.345,20.646-9.584,35.263h29.853c-0.296-0.41-26.07-34.851,2.615-55.318C211.435,182.783,193.625,178.252,193.625,178.252z" style="fill:#EDE3DA;stroke:#CCCCDE;stroke-width:3;"></path>
		<g>
			<path d="M201.493,153.871" style="fill:#D57E58;"></path>
		</g>
		<path d="M221.485,178.219c0,0-18.847,24.334-4.358,49.882h9.189
			C226.316,228.1,207.189,201.369,221.485,178.219z" style="opacity:0.11;fill:#6E6E96;enable-background:new    ;"></path>
	</g>
	<g style="display:inline;">
		<path d="M87.893,164.313c0-13.111-11.408-23.738-25.479-23.738
			c-0.223,0-0.438,0.008-0.653,0.014c-4.443-6.953-12.589-11.61-21.907-11.61c-14.068,0-25.479,10.629-25.479,23.733
			c0,0.17,0.011,0.336,0.015,0.508C6.694,157.302,1.5,165.011,1.5,173.857c0,13.104,11.407,23.735,25.479,23.735
			c0.8,0,1.59-0.041,2.372-0.104c4.674,5.271,11.745,8.639,19.659,8.639c13.007,0,23.729-9.082,25.279-20.809
			C82.378,181.336,87.893,173.427,87.893,164.313z" style="fill:#D7F7E4;stroke:#CCCCDE;stroke-width:3;"></path>
		<path d="M61.986,139.719c-0.219,0-0.435,0.011-0.649,0.017
			c-3.563-5.578-9.506-9.678-16.525-11.086c5.554,1.393,10.231,4.771,13.106,9.27c0.186-0.004,2.736,4.406,2.928,4.406
			c12.076,0,17.692,6.506,17.692,17.758c0,7.82-2.932,12.808-9.87,16.224c-1.33,10.062-10.531,17.854-21.693,17.854
			c-6.792,0-12.858-2.885-16.871-7.412c-0.67,0.06-1.348,0.092-2.035,0.092c-12.073,0-21.561-5.723-21.561-16.975
			c0-7.574,3.391-11.307,9.561-15.807c-0.165-0.978-0.85-9.552,1.438-11.837c5.435-5.436,7.896-10.104,12.758-12.518
			c-9.541,3.432-16.312,12.051-16.312,22.146c0,0.17,0.011,0.338,0.015,0.508c-7.696,4.084-12.89,11.793-12.89,20.639
			c0,13.107,11.405,23.736,25.479,23.736c0.801,0,1.591-0.039,2.373-0.105c4.674,5.273,11.745,8.642,19.659,8.642
			c13.006,0,23.728-9.08,25.275-20.812c8.092-3.979,13.604-11.891,13.604-21.002C87.466,150.345,76.058,139.719,61.986,139.719z" style="opacity:0.1;fill:#6E6E96;enable-background:new    ;"></path>
		<path d="M25.723,177.152c0,0,13.193,2.584,13.193,15.496
			c0,0,3.553,21.932-10.182,37.451h31.707c-0.312-0.438-27.691-37.019,2.777-58.763C44.638,181.963,25.723,177.152,25.723,177.152z" style="fill:#EDE3DA;stroke:#CCCCDE;stroke-width:3;"></path>
		<g>
			<path d="M34.078,151.254" style="fill:#D57E58;"></path>
		</g>
		<path d="M55.313,177.117c0,0-20.02,25.848-4.633,52.982h9.764
			C60.444,230.1,40.129,201.707,55.313,177.117z" style="opacity:0.11;fill:#6E6E96;enable-background:new    ;"></path>
	</g>
</g>
<g style="display:none;" id="Layer_3">
	<g style="display:inline;">
		<path d="M84.635,140.439c0-11.564-10.059-20.938-22.467-20.938
			c-0.194,0-0.385,0.011-0.576,0.017c-3.917-6.137-11.102-10.245-19.318-10.245c-12.406,0-22.469,9.372-22.469,20.935
			c0,0.15,0.009,0.297,0.012,0.447c-6.782,3.602-11.362,10.397-11.362,18.197c0,11.562,10.059,20.934,22.468,20.934
			c0.705,0,1.403-0.033,2.092-0.094c4.122,4.647,10.358,7.617,17.335,7.617c11.471,0,20.925-8.013,22.293-18.353
			C79.772,155.451,84.635,148.477,84.635,140.439z" style="fill:#D7F7E4;stroke:#CCCCDE;stroke-width:3;"></path>
		<path d="M61.789,118.75c-0.193,0-0.387,0.011-0.575,0.017
			c-3.141-4.918-8.383-8.534-14.573-9.775c4.898,1.229,9.023,4.208,11.561,8.175c0.163-0.004,2.416,3.887,2.583,3.887
			c10.646,0,15.601,5.737,15.601,15.658c0,6.896-2.583,11.291-8.704,14.304c-1.173,8.875-9.287,15.746-19.129,15.746
			c-5.99,0-11.34-2.544-14.877-6.531c-0.591,0.051-1.189,0.078-1.794,0.078c-10.649,0-19.013-5.05-19.013-14.97
			c0-6.682,2.987-9.973,8.432-13.938c-0.146-0.857-0.75-8.421,1.267-10.438c4.792-4.793,6.963-8.907,11.25-11.038
			c-8.414,3.025-14.385,10.627-14.385,19.534c0,0.148,0.009,0.299,0.012,0.447c-6.786,3.604-11.363,10.396-11.363,18.197
			c0,11.562,10.059,20.936,22.468,20.936c0.707,0,1.401-0.035,2.093-0.096c4.121,4.646,10.356,7.617,17.336,7.617
			c11.469,0,20.924-8.015,22.291-18.354c7.133-3.506,11.997-10.479,11.997-18.52C84.258,128.123,74.199,118.75,61.789,118.75z" style="opacity:0.1;fill:#6E6E96;enable-background:new    ;"></path>
		<path d="M29.811,151.761c0,0,11.635,2.275,11.635,13.66
			c0,0,3.135,19.345-8.976,33.027h27.96c-0.277-0.387-24.422-32.643,2.449-51.814C46.491,156.004,29.811,151.761,29.811,151.761z" style="fill:#EDE3DA;stroke:#CCCCDE;stroke-width:3;"></path>
		<g>
			<path d="M37.178,128.922" style="fill:#D57E58;"></path>
		</g>
		<path d="M55.905,151.73c0,0-17.651,22.793-4.085,46.721h8.611
			C60.43,198.451,42.515,173.414,55.905,151.73z" style="opacity:0.11;fill:#6E6E96;enable-background:new    ;"></path>
	</g>
	<g style="display:inline;">
		<path d="M254.475,139.156c0-10.828-9.42-19.604-21.04-19.604
			c-0.183,0-0.357,0.009-0.539,0.014c-3.669-5.744-10.396-9.596-18.091-9.596c-11.62,0-21.041,8.775-21.041,19.604
			c0,0.141,0.009,0.279,0.012,0.418c-6.354,3.375-10.644,9.74-10.644,17.043c0,10.826,9.421,19.605,21.04,19.605
			c0.66,0,1.312-0.033,1.96-0.093c3.858,4.355,9.698,7.138,16.233,7.138c10.736,0,19.596-7.5,20.875-17.188
			C249.92,153.213,254.475,146.684,254.475,139.156z" style="fill:#D7F7E4;stroke:#CCCCDE;stroke-width:3;"></path>
		<path d="M233.081,118.845c-0.186,0-0.358,0.009-0.539,0.013
			c-2.94-4.606-7.854-7.992-13.646-9.154c4.586,1.15,8.449,3.94,10.822,7.655c0.154-0.004,2.263,3.639,2.419,3.639
			c9.971,0,14.608,5.374,14.608,14.664c0,6.459-2.42,10.574-8.148,13.396c-1.1,8.311-8.698,14.739-17.914,14.739
			c-5.604,0-10.619-2.381-13.934-6.114c-0.559,0.047-1.112,0.069-1.684,0.069c-9.975,0-17.806-4.727-17.806-14.016
			c0-6.256,2.8-9.338,7.896-13.055c-0.141-0.808-0.701-7.888,1.188-9.771c4.486-4.488,6.521-8.343,10.535-10.337
			c-7.879,2.833-13.471,9.952-13.471,18.292c0,0.139,0.006,0.275,0.012,0.418c-6.355,3.373-10.646,9.736-10.646,17.041
			c0,10.824,9.42,19.604,21.041,19.604c0.661,0,1.313-0.03,1.959-0.089c3.859,4.354,9.699,7.135,16.234,7.135
			c10.74,0,19.594-7.5,20.875-17.188c6.68-3.285,11.232-9.812,11.232-17.342C254.122,127.623,244.702,118.845,233.081,118.845z" style="opacity:0.1;fill:#6E6E96;enable-background:new    ;"></path>
		<path d="M203.135,149.758c0,0,10.896,2.136,10.896,12.8
			c0,0,2.936,18.106-8.404,30.928h26.184c-0.26-0.359-22.87-30.566,2.294-48.521C218.754,153.732,203.135,149.758,203.135,149.758z" style="fill:#EDE3DA;stroke:#CCCCDE;stroke-width:3;"></path>
		<g>
			<path d="M210.036,128.373" style="fill:#D57E58;"></path>
		</g>
		<path d="M227.571,149.73c0,0-16.528,21.344-3.821,43.752h8.062
			C231.808,193.482,215.032,170.035,227.571,149.73z" style="opacity:0.11;fill:#6E6E96;enable-background:new    ;"></path>
	</g>
	<g style="display:inline;">
		<path d="M217.773,140.916c0-16.621-14.461-30.094-32.299-30.094
			c-0.278,0-0.554,0.012-0.828,0.019c-5.632-8.814-15.959-14.729-27.771-14.729c-17.838,0-32.301,13.475-32.301,30.096
			c0,0.215,0.014,0.43,0.018,0.646c-9.755,5.18-16.339,14.943-16.339,26.156c0,16.619,14.462,30.099,32.3,30.099
			c1.014,0,2.018-0.051,3.008-0.14c5.926,6.688,14.892,10.949,24.921,10.949c16.489,0,30.081-11.514,32.049-26.379
			C210.782,162.498,217.773,152.469,217.773,140.916z" style="fill:#D7F7E4;stroke:#CCCCDE;stroke-width:3;"></path>
		<path d="M184.931,109.738c-0.276,0-0.552,0.012-0.827,0.019
			c-4.516-7.068-12.051-12.269-20.949-14.052c7.041,1.769,12.974,6.049,16.614,11.751c0.237-0.006,3.477,5.586,3.713,5.586
			c15.311,0,22.432,8.248,22.432,22.513c0,9.912-3.718,16.23-12.516,20.563c-1.687,12.754-13.353,22.635-27.5,22.635
			c-8.607,0-16.302-3.653-21.387-9.395c-0.851,0.069-1.71,0.112-2.58,0.112c-15.31,0-27.332-7.256-27.332-21.518
			c0-9.604,4.298-14.336,12.12-20.039c-0.209-1.231-1.077-12.104,1.82-15.002c6.89-6.89,10.011-12.808,16.174-15.868
			c-12.096,4.352-20.679,15.277-20.679,28.08c0,0.215,0.011,0.43,0.017,0.646c-9.756,5.177-16.34,14.944-16.34,26.155
			c0,16.619,14.461,30.099,32.3,30.099c1.017,0,2.017-0.049,3.008-0.135c5.925,6.688,14.893,10.944,24.922,10.944
			c16.487,0,30.078-11.514,32.046-26.379c10.257-5.043,17.244-15.065,17.244-26.623C217.231,123.211,202.77,109.738,184.931,109.738
			z" style="opacity:0.1;fill:#6E6E96;enable-background:new    ;"></path>
		<path d="M138.959,157.193c0,0,16.727,3.271,16.727,19.643
			c0,0,4.504,27.808-12.901,47.479h40.192c-0.396-0.556-35.104-46.922,3.521-74.484
			C162.939,163.293,138.959,157.193,138.959,157.193z" style="fill:#EDE3DA;stroke:#CCCCDE;stroke-width:3;"></path>
		<g>
			<path d="M149.552,124.362" style="fill:#D57E58;"></path>
		</g>
		<path d="M176.472,157.148c0,0-25.378,32.766-5.873,67.164h12.378
			C182.977,224.313,157.223,188.32,176.472,157.148z" style="opacity:0.11;fill:#6E6E96;enable-background:new    ;"></path>
	</g>
	<g style="display:inline;">
		<path d="M145.936,142.027c0-13.646-11.873-24.707-26.517-24.707
			c-0.229,0-0.454,0.01-0.683,0.016c-4.621-7.236-13.102-12.092-22.8-12.092c-14.644,0-26.518,11.063-26.518,24.706
			c0,0.178,0.012,0.354,0.015,0.529c-8.01,4.252-13.414,12.271-13.414,21.477c0,13.646,11.872,24.707,26.521,24.707
			c0.832,0,1.652-0.041,2.469-0.104c4.864,5.483,12.224,8.983,20.46,8.983c13.537,0,24.695-9.451,26.309-21.651
			C140.196,159.746,145.936,151.514,145.936,142.027z" style="fill:#D7F7E4;stroke:#CCCCDE;stroke-width:3;"></path>
		<path d="M118.973,116.432c-0.228,0-0.452,0.009-0.679,0.015
			c-3.707-5.805-9.896-10.072-17.199-11.537c5.78,1.45,10.648,4.966,13.641,9.647c0.194-0.006,2.854,4.586,3.051,4.586
			c12.564,0,18.414,6.771,18.414,18.479c0,8.141-3.053,13.326-10.271,16.881c-1.384,10.476-10.961,18.584-22.576,18.584
			c-7.066,0-13.384-3.004-17.559-7.715c-0.698,0.063-1.404,0.098-2.118,0.098c-12.568,0-22.438-5.957-22.438-17.663
			c0-7.888,3.528-11.771,9.949-16.451c-0.171-1.019-0.884-9.938,1.496-12.316c5.655-5.657,8.218-10.515,13.277-13.026
			c-9.933,3.569-16.979,12.542-16.979,23.055c0,0.176,0.013,0.352,0.018,0.524c-8.014,4.25-13.415,12.271-13.415,21.479
			c0,13.645,11.873,24.707,26.518,24.707c0.834,0,1.655-0.041,2.469-0.109c4.864,5.488,12.227,8.988,20.462,8.988
			c13.535,0,24.692-9.451,26.312-21.656c8.418-4.141,14.158-12.371,14.158-21.854C145.491,127.494,133.618,116.432,118.973,116.432z" style="opacity:0.1;fill:#6E6E96;enable-background:new    ;"></path>
		<path d="M81.232,155.391c0,0,13.731,2.688,13.731,16.129
			c0,0,3.697,22.821-10.595,38.977h33c-0.328-0.455-28.824-38.52,2.89-61.149C100.918,160.398,81.232,155.391,81.232,155.391z" style="fill:#EDE3DA;stroke:#CCCCDE;stroke-width:3;"></path>
		<g>
			<path d="M89.928,128.438" style="fill:#D57E58;"></path>
		</g>
		<path d="M112.028,155.355c0,0-20.835,26.896-4.818,55.141h10.162
			C117.369,210.496,96.225,180.945,112.028,155.355z" style="opacity:0.11;fill:#6E6E96;enable-background:new    ;"></path>
	</g>
	<g style="display:inline;">
		<path d="M253.159,166.164c0-12.344-10.74-22.35-23.988-22.35
			c-0.203,0-0.407,0.008-0.611,0.014c-4.186-6.549-11.854-10.938-20.625-10.938c-13.248,0-23.983,10.008-23.983,22.35
			c0,0.162,0.012,0.318,0.014,0.479c-7.244,3.851-12.135,11.104-12.135,19.433c0,12.346,10.734,22.352,23.983,22.352
			c0.753,0,1.497-0.039,2.23-0.102c4.397,4.967,11.061,8.133,18.511,8.133c12.245,0,22.339-8.551,23.799-19.592
			C247.965,182.191,253.159,174.746,253.159,166.164z" style="fill:#D7F7E4;stroke:#CCCCDE;stroke-width:3;"></path>
		<path d="M228.767,143.008c-0.206,0-0.409,0.015-0.614,0.019
			c-3.354-5.25-8.946-9.111-15.558-10.438c5.229,1.313,9.633,4.492,12.339,8.729c0.175-0.004,2.579,4.146,2.757,4.146
			c11.368,0,16.655,6.123,16.655,16.722c0,7.358-2.757,12.055-9.291,15.27c-1.252,9.474-9.915,16.814-20.423,16.814
			c-6.396,0-12.106-2.724-15.884-6.98c-0.631,0.055-1.271,0.086-1.916,0.086c-11.368,0-20.299-5.389-20.299-15.979
			c0-7.138,3.188-10.646,9.002-14.888c-0.156-0.918-0.806-8.983,1.353-11.141c5.116-5.117,7.438-9.512,12.011-11.785
			c-8.979,3.23-15.354,11.348-15.354,20.855c0,0.157,0.012,0.313,0.016,0.479c-7.246,3.849-12.137,11.104-12.137,19.43
			c0,12.345,10.738,22.351,23.988,22.351c0.754,0,1.496-0.035,2.229-0.101c4.401,4.968,11.062,8.134,18.509,8.134
			c12.245,0,22.338-8.556,23.802-19.593c7.612-3.743,12.811-11.19,12.811-19.771C252.754,153.016,242.016,143.008,228.767,143.008z" style="opacity:0.1;fill:#6E6E96;enable-background:new    ;"></path>
		<path d="M194.625,178.252c0,0,12.422,2.435,12.422,14.588
			c0,0,3.345,20.646-9.584,35.263h29.853c-0.296-0.41-26.07-34.851,2.615-55.318C212.435,182.783,194.625,178.252,194.625,178.252z" style="fill:#EDE3DA;stroke:#CCCCDE;stroke-width:3;"></path>
		<g>
			<path d="M202.493,153.871" style="fill:#D57E58;"></path>
		</g>
		<path d="M222.485,178.219c0,0-18.847,24.334-4.358,49.882h9.189
			C227.316,228.1,208.189,201.369,222.485,178.219z" style="opacity:0.11;fill:#6E6E96;enable-background:new    ;"></path>
	</g>
	<g style="display:inline;">
		<path d="M88.893,164.313c0-13.111-11.408-23.738-25.479-23.738
			c-0.223,0-0.438,0.008-0.653,0.014c-4.443-6.953-12.589-11.612-21.907-11.612c-14.068,0-25.479,10.629-25.479,23.735
			c0,0.17,0.011,0.336,0.015,0.508C7.694,157.302,2.5,165.011,2.5,173.857c0,13.104,11.407,23.735,25.479,23.735
			c0.8,0,1.59-0.041,2.372-0.104c4.674,5.271,11.745,8.639,19.659,8.639c13.007,0,23.729-9.082,25.279-20.809
			C83.378,181.336,88.893,173.427,88.893,164.313z" style="fill:#D7F7E4;stroke:#CCCCDE;stroke-width:3;"></path>
		<path d="M62.986,139.719c-0.219,0-0.435,0.011-0.649,0.017
			c-3.563-5.578-9.506-9.678-16.525-11.086c5.554,1.393,10.231,4.771,13.106,9.27c0.186-0.004,2.736,4.406,2.928,4.406
			c12.076,0,17.692,6.506,17.692,17.758c0,7.82-2.932,12.808-9.87,16.224c-1.33,10.062-10.531,17.854-21.693,17.854
			c-6.792,0-12.858-2.885-16.871-7.412c-0.67,0.06-1.348,0.092-2.035,0.092c-12.073,0-21.561-5.723-21.561-16.975
			c0-7.574,3.391-11.307,9.561-15.807c-0.165-0.978-0.85-9.552,1.438-11.837c5.435-5.436,7.896-10.104,12.758-12.518
			c-9.541,3.432-16.312,12.051-16.312,22.148c0,0.17,0.011,0.338,0.015,0.508c-7.696,4.084-12.89,11.791-12.89,20.637
			c0,13.107,11.405,23.736,25.479,23.736c0.801,0,1.591-0.039,2.373-0.104c4.674,5.273,11.745,8.642,19.659,8.642
			c13.006,0,23.728-9.082,25.275-20.812c8.092-3.979,13.604-11.891,13.604-21.002C88.466,150.345,77.058,139.719,62.986,139.719z" style="opacity:0.1;fill:#6E6E96;enable-background:new    ;"></path>
		<path d="M26.723,177.152c0,0,13.193,2.584,13.193,15.496
			c0,0,3.553,21.932-10.182,37.451h31.707c-0.312-0.438-27.691-37.019,2.777-58.763C45.638,181.963,26.723,177.152,26.723,177.152z" style="fill:#EDE3DA;stroke:#CCCCDE;stroke-width:3;"></path>
		<g>
			<path d="M35.078,151.254" style="fill:#D57E58;"></path>
		</g>
		<path d="M56.313,177.117c0,0-20.02,25.848-4.633,52.982h9.764
			C61.444,230.1,41.129,201.707,56.313,177.117z" style="opacity:0.11;fill:#6E6E96;enable-background:new    ;"></path>
	</g>
</g>
<path d="M214.225,57.646h-14c-0.828,0-1.5-0.671-1.5-1.5s0.672-1.5,1.5-1.5h14c0.828,0,1.5,0.671,1.5,1.5
	S215.053,57.646,214.225,57.646z" style="fill:#FFFFFF;"></path>
<path d="M228.225,57.646h-4c-0.828,0-1.5-0.671-1.5-1.5s0.672-1.5,1.5-1.5h4c0.828,0,1.5,0.671,1.5,1.5
	S229.053,57.646,228.225,57.646z" style="fill:#FFFFFF;"></path>
<path d="M238.26,66.646h-18.035c-0.828,0-1.5-0.671-1.5-1.5s0.672-1.5,1.5-1.5h18.035
	c0.828,0,1.5,0.671,1.5,1.5S239.088,66.646,238.26,66.646z" style="fill:#FFFFFF;"></path>
<path d="M209.225,66.646h-5c-0.828,0-1.5-0.671-1.5-1.5s0.672-1.5,1.5-1.5h5c0.828,0,1.5,0.671,1.5,1.5
	S210.053,66.646,209.225,66.646z" style="fill:#FFFFFF;"></path>
<path d="M32.225,134.146h-9c-0.829,0-1.5-0.672-1.5-1.5s0.671-1.5,1.5-1.5h9c0.829,0,1.5,0.672,1.5,1.5
	S33.053,134.146,32.225,134.146z" style="fill:#FFFFFF;"></path>
<path d="M17.725,134.146h-5.5c-0.829,0-1.5-0.672-1.5-1.5s0.671-1.5,1.5-1.5h5.5c0.829,0,1.5,0.672,1.5,1.5
	S18.553,134.146,17.725,134.146z" style="fill:#FFFFFF;"></path>
<path d="M24.975,126.896h-15.5c-0.829,0-1.5-0.672-1.5-1.5c0-0.829,0.671-1.5,1.5-1.5h15.5
	c0.829,0,1.5,0.671,1.5,1.5C26.475,126.224,25.803,126.896,24.975,126.896z" style="fill:#FFFFFF;"></path>
<path d="M36.725,126.896h-4.5c-0.829,0-1.5-0.672-1.5-1.5c0-0.829,0.671-1.5,1.5-1.5h4.5
	c0.829,0,1.5,0.671,1.5,1.5C38.225,126.224,37.553,126.896,36.725,126.896z" style="fill:#FFFFFF;"></path>
<g id="Layer_3_2_">
</g>
<g>
	<path d="M124.803,74.65h31.417c0,0,20.348-2.5,10.711-19.636C158.179,39.458,124.803,60.728,124.803,74.65z" style="fill:#FFFFFF;"></path>
	<path d="M156.22,76.15h-31.417c-0.829,0-1.5-0.671-1.5-1.5c0-11.182,19.383-26.589,33.45-26.589
		c5.226,0,9.196,2.15,11.485,6.218c3.033,5.394,3.594,10.062,1.666,13.874c-3.372,6.669-13.09,7.935-13.502,7.986
		C156.342,76.146,156.281,76.15,156.22,76.15z M126.445,73.15h29.672c0.883-0.129,8.612-1.395,11.114-6.359
		c1.443-2.863,0.902-6.578-1.607-11.042c-1.75-3.111-4.734-4.688-8.87-4.688C145.147,51.061,128.164,63.754,126.445,73.15z" style="fill:#6E6E96;"></path>
	<g>
		<path d="M187.074,184.149c0,2.71-2.216,4.924-4.922,4.924H68.945c-2.707,0-4.92-2.214-4.92-4.924V92.755
			c0-2.708,2.215-4.922,4.92-4.922h113.208c2.706,0,4.922,2.214,4.922,4.922V184.149z" style="fill:#FF9FB7;"></path>
	</g>
	<path d="M181.658,181.197H68.453c-2.708,0-4.924-2.214-4.924-4.924
		v7.875c0,2.709,2.216,4.923,4.924,4.923h113.206c2.708,0,4.922-2.214,4.922-4.923v-7.875
		C186.581,178.981,184.366,181.197,181.658,181.197z" style="opacity:0.24;fill:#C2304A;enable-background:new    ;"></path>
	<rect height="5.412" width="123.048" style="opacity:0.24;fill:#C2304A;enable-background:new    ;" y="97.676" x="64.022"></rect>
	<g>
		<path d="M182.153,190.574H68.945c-3.54,0-6.42-2.882-6.42-6.424V92.755c0-3.541,2.88-6.422,6.42-6.422
			h113.208c3.541,0,6.422,2.881,6.422,6.422c0,0.829-0.672,1.5-1.5,1.5s-1.5-0.671-1.5-1.5c0-1.887-1.535-3.422-3.422-3.422H68.945
			c-1.886,0-3.42,1.535-3.42,3.422v91.396c0,1.888,1.534,3.424,3.42,3.424h113.208c1.887,0,3.422-1.536,3.422-3.424V97.676
			c0-0.829,0.672-1.5,1.5-1.5s1.5,0.671,1.5,1.5v86.475C188.574,187.692,185.694,190.574,182.153,190.574z" style="fill:#6E6E96;"></path>
	</g>
	<g>
		<path d="M196.424,97.676V79.957c0-2.708-2.213-4.923-4.921-4.923H59.594c-2.709,0-4.923,2.216-4.923,4.923
			v17.719H196.424z" style="fill:#FF9FB7;"></path>
	</g>
	<path d="M191.503,74.051H59.594c-2.709,0-4.923,2.215-4.923,4.924
		v5.904c0-2.706,2.214-4.922,4.923-4.922h131.91c2.708,0,4.921,2.216,4.921,4.922v-5.904
		C196.424,76.264,194.21,74.051,191.503,74.051z" style="opacity:0.21;fill:#FFFFFF;enable-background:new    ;"></path>
	<rect height="6.396" width="141.754" style="opacity:0.24;fill:#C2304A;enable-background:new    ;" y="91.278" x="54.67"></rect>
	<path d="M125.162,75.006H93.747c0,0-21.025-5.068-10.708-19.633
		C95.176,38.236,125.162,61.082,125.162,75.006z" style="fill:#FFFFFF;"></path>
	<path d="M102.657,62.95c0,0-4.628,5.613,2.017,5.613H98.03
		c0,0-21.706-2.227-9.13-18.71c0,0-20.569,16.883,3.264,24.195h30.165C122.324,74.051,111.717,62.95,102.657,62.95z" style="opacity:0.16;fill:#6E6E96;enable-background:new    ;"></path>
	<g>
		<path d="M104.1,65.01c0,0,11.602,0.535,21.063,9.995" style="fill:#FFFFCC;"></path>
		<path d="M125.163,76.505c-0.384,0-0.768-0.146-1.061-0.439c-8.91-8.907-19.964-9.552-20.075-9.558
			c-0.826-0.041-1.465-0.743-1.425-1.569c0.04-0.826,0.709-1.463,1.566-1.427c0.497,0.023,12.294,0.674,22.055,10.433
			c0.586,0.585,0.586,1.535,0,2.121C125.931,76.358,125.547,76.505,125.163,76.505z" style="fill:#6E6E96;"></path>
	</g>
	<path d="M147.252,63.269c0,0,4.629,5.613-2.018,5.613h6.646
		c0,0,21.707-2.226,9.13-18.708c0,0,20.57,16.886-3.263,24.194h-30.165C127.583,74.369,138.192,63.269,147.252,63.269z" style="opacity:0.16;fill:#6E6E96;enable-background:new    ;"></path>
	<path d="M124.803,76.15c-0.384,0-0.768-0.146-1.061-0.439c-0.586-0.586-0.586-1.536,0-2.121
		c9.763-9.761,21.559-10.412,22.056-10.435c0.821-0.041,1.529,0.602,1.567,1.429s-0.601,1.529-1.428,1.568
		c-0.165,0.008-11.186,0.672-20.074,9.559C125.571,76.004,125.187,76.15,124.803,76.15z" style="fill:#6E6E96;"></path>
	<g>
		<path d="M196.424,99.176H54.671c-0.829,0-1.5-0.671-1.5-1.5V79.957c0-3.542,2.881-6.423,6.423-6.423
			h131.909c3.54,0,6.421,2.881,6.421,6.423v17.719C197.924,98.504,197.252,99.176,196.424,99.176z M56.171,96.176h138.753V79.957
			c0-1.887-1.534-3.423-3.421-3.423H59.594c-1.887,0-3.423,1.536-3.423,3.423V96.176z" style="fill:#6E6E96;"></path>
	</g>
	<path d="M125.182,76.506c-0.006,0-0.013-0.001-0.02,0H93.747c-0.118,0-0.236-0.014-0.352-0.042
		c-0.462-0.111-11.341-2.81-14.084-10.121c-1.351-3.602-0.509-7.584,2.504-11.837c3.129-4.418,7.667-6.754,13.124-6.754
		c13.537,0,31.454,15.306,31.72,26.991c0.015,0.085,0.023,0.173,0.023,0.263C126.682,75.834,126.011,76.506,125.182,76.506z
		 M93.937,73.506h29.601c-1.498-9.364-16.236-22.754-28.599-22.754c-4.505,0-8.097,1.847-10.676,5.488
		c-2.402,3.392-3.124,6.436-2.143,9.049C84.154,70.71,92.656,73.164,93.937,73.506z" style="fill:#6E6E96;"></path>
	<g>
		<circle r="7.441" cy="67.924" cx="124.415" style="fill:#FFFFCC;"></circle>
		<path d="M124.415,76.865c-4.93,0-8.941-4.011-8.941-8.941c0-4.93,4.011-8.94,8.941-8.94
			c4.93,0,8.94,4.011,8.94,8.94C133.356,72.854,129.345,76.865,124.415,76.865z M124.415,61.983c-3.276,0-5.941,2.665-5.941,5.94
			c0,3.276,2.666,5.941,5.941,5.941c3.275,0,5.94-2.666,5.94-5.941C130.356,64.648,127.691,61.983,124.415,61.983z" style="fill:#6E6E96;"></path>
	</g>
	<rect height="114.038" width="22.972" style="fill:#FFFFFF;" y="75.033" x="113.652"></rect>
	<rect height="7.876" width="22.972" style="opacity:0.15;fill:#6E6E96;enable-background:new    ;" y="181.197" x="113.652"></rect>
	<rect height="4.923" width="22.972" style="fill:#FFFFFF;" y="75.033" x="113.652"></rect>
	<rect height="13.453" width="22.972" style="opacity:0.3;fill:#FFFFFF;enable-background:new    ;" y="79.957" x="113.652"></rect>
	<path d="M136.623,190.571h-22.972c-0.829,0-1.5-0.672-1.5-1.5V75.033c0-0.829,0.671-1.5,1.5-1.5h22.972
		c0.828,0,1.5,0.671,1.5,1.5v114.038C138.123,189.899,137.451,190.571,136.623,190.571z M115.152,187.571h19.972V76.533h-19.972
		V187.571z" style="fill:#6E6E96;"></path>
</g>
<g>
	<path d="M231.879,115.553c0.725-2.221,2.993-4.943,5.045-6.059l0.009-0.004c2.054-1.113,2.054-2.932,0-4.043
		l-0.009-0.006c-2.052-1.111-4.438-3.617-5.3-5.566c-0.863-1.949-2.275-1.949-3.143,0c-0.859,1.951-3.248,4.455-5.303,5.566
		l-0.01,0.006c-2.055,1.111-2.055,2.93,0,4.043l0.01,0.004c2.055,1.112,4.321,3.838,5.045,6.059l0.517,1.566
		c0.724,2.22,1.897,2.22,2.627,0L231.879,115.553z" style="fill:#FFBF00;"></path>
</g>
<g>
	<path d="M34.945,47.154c1.023-3.143,4.237-7.002,7.146-8.575l0.012-0.007c2.906-1.575,2.906-4.151,0-5.725
		l-0.012-0.01c-2.905-1.572-6.283-5.119-7.507-7.884c-1.224-2.761-3.224-2.761-4.44,0c-1.221,2.765-4.601,6.312-7.504,7.884
		l-0.015,0.01c-2.903,1.57-2.903,4.146,0,5.725l0.015,0.007c2.903,1.573,6.119,5.437,7.146,8.575l0.723,2.22
		c1.023,3.146,2.697,3.146,3.721,0L34.945,47.154z" style="fill:#FFB0B8;"></path>
</g>
<g>
	<path d="M22.524,171.389c0.615-1.89,2.546-4.207,4.292-5.151l0.01-0.005c1.743-0.944,1.743-2.493,0-3.438
		l-0.01-0.006c-1.746-0.94-3.772-3.076-4.508-4.732c-0.732-1.658-1.936-1.658-2.67,0c-0.733,1.656-2.763,3.792-4.509,4.732
		l-0.007,0.006c-1.746,0.943-1.746,2.492,0,3.438l0.007,0.005c1.746,0.944,3.677,3.267,4.292,5.151l0.435,1.334
		c0.615,1.89,1.621,1.89,2.235,0L22.524,171.389z" style="fill:#7FDCFF;"></path>
</g>
<g id="Layer_7_2_">
	<path d="M232.903,222.396c1.077-3.31,4.459-7.369,7.521-9.027l0.014-0.006c3.063-1.66,3.063-4.371,0-6.022
		l-0.014-0.013c-3.063-1.655-6.613-5.391-7.899-8.299c-1.285-2.901-3.396-2.901-4.685,0c-1.281,2.908-4.841,6.644-7.9,8.299
		l-0.012,0.013c-3.062,1.651-3.062,4.362,0,6.022l0.012,0.006c3.063,1.658,6.443,5.729,7.521,9.027l0.768,2.336
		c1.072,3.311,2.842,3.311,3.912,0L232.903,222.396z" style="fill:#DEC2FF;"></path>
</g>
</svg>
