<?xml version="1.0" encoding="utf-8"?>
<!-- Generator: Adobe Illustrator 23.0.0, SVG Export Plug-In . SVG Version: 6.00 Build 0)  -->
<svg version="1.1" id="图层_1" xmlns="http://www.w3.org/2000/svg" xmlns:xlink="http://www.w3.org/1999/xlink" x="0px" y="0px"
	 viewBox="0 0 1024 1024" style="enable-background:new 0 0 1024 1024;" xml:space="preserve">
<style type="text/css">
	.st0{fill:url(#SVGID_1_);}
	.st1{clip-path:url(#SVGID_3_);fill:#E0AC89;}
	.st2{clip-path:url(#SVGID_3_);}
	.st3{fill:#B0805B;}
	.st4{fill:#B98661;}
	.st5{fill:#976841;}
	.st6{fill:#D3AF93;}
	.st7{fill:#B7916F;}
	.st8{fill:#C19C7F;}
</style>
<linearGradient id="SVGID_1_" gradientUnits="userSpaceOnUse" x1="512" y1="47" x2="512" y2="977">
	<stop  offset="0" style="stop-color:#F9BDA0"/>
	<stop  offset="1" style="stop-color:#FBD8C7"/>
</linearGradient>
<circle class="st0" cx="512" cy="512" r="465"/>
<g>
	<defs>
		<circle id="SVGID_2_" cx="512" cy="512" r="465"/>
	</defs>
	<clipPath id="SVGID_3_">
		<use xlink:href="#SVGID_2_"  style="overflow:visible;"/>
	</clipPath>
	<polygon class="st1" points="-395.39,1022.81 245.65,623.32 1193.26,823.06 319.97,1208.61 	"/>
	<g class="st2">
		<g>
			<g>
				<polygon class="st3" points="409.7,413.8 566.39,365.32 728.57,411.78 571.11,472.39 				"/>
				<polygon class="st4" points="409.7,589.16 409.7,413.8 571.11,472.39 571.11,659.87 				"/>
				<polygon class="st5" points="728.57,585.12 571.11,659.87 571.11,472.39 728.57,411.78 				"/>
				<polygon class="st6" points="464.97,469.43 471.69,466.2 475.2,474.55 481.93,466.47 486.31,476.43 493.04,480.47 
					498.59,485.32 502.98,474.28 506.49,479.13 509.12,482.09 512.92,479.13 512.92,451.25 464.97,433.86 				"/>
				<polygon class="st7" points="464.97,433.86 614.13,379 638.15,385.88 491.17,443.37 				"/>
				<polygon class="st8" points="512.92,451.25 491.17,443.37 638.15,385.88 662.33,392.81 				"/>
				<polygon class="st6" points="508.57,632.48 508.57,609.67 501.26,611.18 500.27,605.43 496.33,604.21 491.94,609.87 
					489.64,605.22 487.01,603.41 487.01,600.07 480.87,598.86 475.49,592.4 472.64,598.56 471.98,602.4 467.71,600.07 
					465.29,597.45 459.92,600.68 459.92,611.16 				"/>
			</g>
			<g>
				<polygon class="st3" points="592.7,480.58 761.12,428.46 935.45,478.4 766.2,543.55 				"/>
				<polygon class="st4" points="592.7,669.06 592.7,480.58 766.2,543.55 766.2,745.07 				"/>
				<polygon class="st5" points="935.45,664.72 766.2,745.07 766.2,543.55 935.45,478.4 				"/>
				<polygon class="st6" points="652.11,540.36 659.34,536.89 663.11,545.87 670.34,537.18 675.05,547.89 682.28,552.24 
					688.25,557.45 692.97,545.58 696.74,550.79 699.57,553.97 703.65,550.79 703.65,520.83 652.11,502.14 				"/>
				<polygon class="st7" points="652.11,502.14 812.44,443.16 838.26,450.56 680.27,512.35 				"/>
				<polygon class="st8" points="703.65,520.83 680.27,512.35 838.26,450.56 864.25,458.01 				"/>
				<polygon class="st6" points="698.98,715.62 698.98,691.1 691.12,692.73 690.06,686.54 685.82,685.24 681.1,691.32 
					678.63,686.33 675.8,684.37 675.8,680.79 669.2,679.49 663.42,672.54 660.36,679.16 659.65,683.29 655.05,680.79 652.46,677.97 
					646.69,681.44 646.69,692.71 				"/>
			</g>
			<g>
				<polygon class="st3" points="793.73,547 976.19,490.54 1165.05,544.65 981.69,615.23 				"/>
				<polygon class="st4" points="793.73,751.21 793.73,547 981.69,615.23 981.69,833.55 				"/>
				<polygon class="st5" points="1165.05,746.5 981.69,833.55 981.69,615.23 1165.05,544.65 				"/>
				<polygon class="st6" points="858.09,611.78 865.92,608.01 870,617.74 877.84,608.33 882.94,619.93 890.78,624.64 897.24,630.28 
					902.35,617.42 906.44,623.07 909.5,626.52 913.93,623.07 913.93,590.61 858.09,570.36 				"/>
				<polygon class="st7" points="858.09,570.36 1031.79,506.47 1059.76,514.48 888.6,581.43 				"/>
				<polygon class="st8" points="913.93,590.61 888.6,581.43 1059.76,514.48 1087.92,522.55 				"/>
				<polygon class="st6" points="908.87,801.64 908.87,775.08 900.35,776.85 899.2,770.14 894.61,768.73 889.5,775.32 
					886.82,769.91 883.75,767.79 883.75,763.91 876.6,762.5 870.34,754.97 867.02,762.15 866.26,766.62 861.28,763.91 
					858.47,760.85 852.21,764.62 852.21,776.83 				"/>
			</g>
		</g>
		<g>
			<g>
				<polygon class="st3" points="149.73,485.59 313.45,430.6 482.93,483.3 318.39,552.05 				"/>
				<polygon class="st4" points="149.73,684.5 149.73,485.59 318.39,552.05 318.39,764.71 				"/>
				<polygon class="st5" points="482.93,679.92 318.39,764.71 318.39,552.05 482.93,483.3 				"/>
				<polygon class="st6" points="207.48,548.69 214.51,545.02 218.17,554.49 225.2,545.33 229.78,556.63 236.81,561.22 
					242.62,566.72 247.2,554.19 250.87,559.69 253.62,563.05 257.59,559.69 257.59,528.07 207.48,508.35 				"/>
				<polygon class="st7" points="207.48,508.35 363.34,446.11 388.44,453.92 234.86,519.13 				"/>
				<polygon class="st8" points="257.59,528.07 234.86,519.13 388.44,453.92 413.71,461.78 				"/>
				<polygon class="st6" points="253.04,733.63 253.04,707.76 245.4,709.48 244.37,702.95 240.25,701.57 235.66,707.99 
					233.26,702.72 230.51,700.66 230.51,696.88 224.09,695.5 218.48,688.17 215.5,695.16 214.81,699.51 210.34,696.88 207.82,693.9 
					202.21,697.56 202.21,709.46 				"/>
			</g>
			<g>
				<polygon class="st3" points="340.96,561.33 516.94,502.22 699.1,558.87 522.24,632.76 				"/>
				<polygon class="st4" points="340.96,775.13 340.96,561.33 522.24,632.76 522.24,861.34 				"/>
				<polygon class="st5" points="699.1,770.21 522.24,861.34 522.24,632.76 699.1,558.87 				"/>
				<polygon class="st6" points="403.03,629.15 410.58,625.21 414.52,635.39 422.08,625.54 427,637.69 434.55,642.62 440.79,648.53 
					445.72,635.06 449.66,640.97 452.62,644.59 456.89,640.97 456.89,606.99 403.03,585.79 				"/>
				<polygon class="st7" points="403.03,585.79 570.56,518.89 597.54,527.28 432.46,597.37 				"/>
				<polygon class="st8" points="456.89,606.99 432.46,597.37 597.54,527.28 624.7,535.73 				"/>
				<polygon class="st6" points="452,827.94 452,800.13 443.79,801.98 442.68,794.96 438.25,793.48 433.32,800.38 430.74,794.71 
					427.78,792.5 427.78,788.43 420.88,786.96 414.85,779.07 411.65,786.59 410.91,791.27 406.11,788.43 403.4,785.23 
					397.36,789.17 397.36,801.96 				"/>
			</g>
			<g>
				<polygon class="st3" points="551.01,636.68 741.67,572.64 939.01,634.01 747.41,714.07 				"/>
				<polygon class="st4" points="551.01,868.31 551.01,636.68 747.41,714.07 747.41,961.7 				"/>
				<polygon class="st5" points="939.01,862.97 747.41,961.7 747.41,714.07 939.01,634.01 				"/>
				<polygon class="st6" points="618.26,710.15 626.44,705.88 630.71,716.91 638.9,706.24 644.23,719.4 652.42,724.74 
					659.18,731.14 664.51,716.56 668.78,722.96 671.99,726.88 676.61,722.96 676.61,686.15 618.26,663.18 				"/>
				<polygon class="st7" points="618.26,663.18 799.76,590.7 828.99,599.79 650.14,675.73 				"/>
				<polygon class="st8" points="676.61,686.15 650.14,675.73 828.99,599.79 858.41,608.94 				"/>
				<polygon class="st6" points="671.32,925.52 671.32,895.39 662.42,897.39 661.22,889.79 656.42,888.19 651.08,895.66 
					648.28,889.52 645.08,887.12 645.08,882.72 637.61,881.11 631.07,872.57 627.6,880.71 626.8,885.78 621.6,882.72 618.66,879.25 
					612.12,883.52 612.12,897.36 				"/>
			</g>
		</g>
		<g>
			<g>
				<polygon class="st3" points="299.74,254.79 473.15,207.75 653.16,262.43 478.95,322.41 				"/>
				<polygon class="st4" points="300.67,442.34 299.74,254.79 478.95,322.41 479.94,522.92 				"/>
				<polygon class="st5" points="654.08,447.81 479.94,522.92 478.95,322.41 653.16,262.43 				"/>
				<polygon class="st6" points="361.29,315.98 368.73,312.73 372.66,321.77 380.07,313.33 384.99,324.13 392.46,328.65 
					398.65,334.01 403.45,322.33 407.36,327.63 410.3,330.88 414.49,327.82 414.35,298.02 361.11,277.94 				"/>
				<polygon class="st7" points="361.11,277.94 526.14,223.85 552.8,231.94 390.19,288.91 				"/>
				<polygon class="st8" points="414.35,298.02 390.19,288.91 552.8,231.94 579.64,240.1 				"/>
				<polygon class="st6" points="410.48,491.7 410.36,467.3 402.27,468.7 401.14,462.51 396.76,461.09 391.93,467.01 389.35,461.97 
					386.43,459.94 386.41,456.38 379.6,454.89 373.61,447.81 370.48,454.32 369.77,458.4 365.02,455.79 362.33,452.9 356.39,456.19 
					356.45,467.41 				"/>
			</g>
			<g>
				<polygon class="st3" points="502.93,331.83 689.33,281.26 882.81,340.03 695.56,404.51 				"/>
				<polygon class="st4" points="503.93,533.41 502.93,331.83 695.56,404.51 696.63,620.03 				"/>
				<polygon class="st5" points="883.8,539.3 696.63,620.03 695.56,404.51 882.81,340.03 				"/>
				<polygon class="st6" points="569.09,397.59 577.08,394.1 581.31,403.82 589.28,394.75 594.56,406.35 602.6,411.22 
					609.24,416.97 614.4,404.42 618.61,410.11 621.76,413.61 626.28,410.33 626.12,378.29 568.89,356.71 				"/>
				<polygon class="st7" points="568.89,356.71 746.29,298.56 774.94,307.27 600.16,368.5 				"/>
				<polygon class="st8" points="626.12,378.29 600.16,368.5 774.94,307.27 803.79,316.03 				"/>
				<polygon class="st6" points="621.97,586.47 621.84,560.25 613.14,561.75 611.93,555.1 607.22,553.57 602.02,559.93 
					599.25,554.51 596.11,552.34 596.09,548.51 588.77,546.91 582.33,539.3 578.97,546.29 578.21,550.68 573.1,547.87 
					570.21,544.77 563.83,548.31 563.88,560.36 				"/>
			</g>
		</g>
	</g>
</g>
</svg>
