<svg xml:space="preserve" style="enable-background:new 0 0 255.975 251.146;" viewBox="0 0 255.975 251.146" height="251.146px" width="255.975px" y="0px" x="0px" xmlns:xlink="http://www.w3.org/1999/xlink" xmlns="http://www.w3.org/2000/svg" id="Layer_1" version="1.1">
<g id="Layer_1_1_">
	<path d="M252.896,115.048c0-42.68-33.093-77.271-73.912-77.271c-0.636,0-1.262,0.031-1.894,0.049
		C164.203,15.18,140.573,0,113.541,0C72.72,0,39.628,34.6,39.628,77.28c0,0.554,0.029,1.1,0.04,1.652
		C17.342,92.227,2.277,117.317,2.277,146.104c0,42.678,33.097,77.27,73.914,77.27c2.321,0,4.615-0.123,6.887-0.342
		c13.558,4.969,35.065,28.115,58.025,28.115c37.732,0,67.832-29.563,72.33-67.734C236.896,170.465,252.896,144.715,252.896,115.048z" style="fill:#E6E3F7;"></path>
	<g style="display:none;" id="Layer_3_3_">
		<g style="display:inline;">
			<g>
				<path d="M83.635,140.439c0-11.564-10.059-20.938-22.467-20.938c-0.194,0-0.385,0.014-0.576,0.019
					c-3.917-6.139-11.102-10.245-19.318-10.245c-12.404,0-22.469,9.372-22.469,20.935c0,0.15,0.009,0.297,0.012,0.447
					c-6.78,3.602-11.36,10.397-11.36,18.197c0,11.562,10.059,20.934,22.468,20.934c0.705,0,1.403-0.033,2.092-0.094
					c4.122,4.646,10.358,7.617,17.335,7.617c11.471,0,20.925-8.015,22.293-18.354C78.772,155.451,83.635,148.477,83.635,140.439z" style="fill:#D7F7E4;"></path>
				<path d="M49.351,178.81c-6.89,0-13.388-2.749-17.95-7.568c-0.499,0.03-0.993,0.045-1.477,0.045
					c-13.216,0-23.968-10.063-23.968-22.434c0-7.767,4.327-14.996,11.353-19.075c0.247-12.172,10.902-22.004,23.964-22.004
					c8.092,0,15.715,3.898,20.109,10.228c13.117,0.108,23.752,10.132,23.752,22.438c0,8.109-4.625,15.513-12.124,19.502
					C71.165,170.754,61.14,178.81,49.351,178.81z M32.636,168.133l0.501,0.565c4.011,4.52,9.92,7.112,16.213,7.112
					c10.575,0,19.52-7.33,20.806-17.051l0.105-0.796l0.72-0.354c6.88-3.383,11.153-9.963,11.153-17.171
					c0-10.719-9.406-19.438-20.967-19.438c-0.097,0-0.192,0.004-0.288,0.009l-1.097,0.031l-0.456-0.714
					c-3.759-5.892-10.677-9.552-18.054-9.552c-11.562,0-20.969,8.718-20.969,19.435l0.029,1.34l-0.814,0.433
					c-6.516,3.461-10.564,9.926-10.564,16.872c0,10.716,9.406,19.434,20.968,19.434c0.637,0,1.296-0.029,1.96-0.088L32.636,168.133z" style="fill:#CCCCDE;"></path>
			</g>
			<path d="M60.789,118.75c-0.193,0-0.389,0.013-0.575,0.019
				c-3.141-4.918-8.383-8.534-14.573-9.775c4.898,1.229,9.023,4.208,11.562,8.175c0.161-0.004,2.416,3.89,2.583,3.89
				c10.646,0,15.601,5.734,15.601,15.655c0,6.896-2.583,11.291-8.704,14.306c-1.173,8.875-9.287,15.747-19.129,15.747
				c-5.99,0-11.34-2.546-14.877-6.53c-0.591,0.049-1.189,0.076-1.794,0.076c-10.649,0-19.013-5.051-19.013-14.972
				c0-6.682,2.985-9.973,8.432-13.938c-0.146-0.855-0.75-8.42,1.267-10.438c4.792-4.793,6.964-8.904,11.25-11.038
				c-8.414,3.025-14.385,10.628-14.385,19.535c0,0.148,0.009,0.299,0.012,0.447C11.655,133.51,7.076,140.3,7.076,148.1
				c0,11.562,10.059,20.938,22.468,20.938c0.707,0,1.398-0.035,2.093-0.098c4.121,4.646,10.356,7.617,17.336,7.617
				c11.469,0,20.924-8.017,22.291-18.354c7.133-3.506,11.997-10.479,11.997-18.52C83.258,128.123,73.199,118.75,60.789,118.75z" style="opacity:0.1;fill:#6E6E96;enable-background:new    ;"></path>
			<g>
				<path d="M28.811,151.761c0,0,11.635,2.273,11.635,13.658c0,0,3.137,19.347-8.976,33.027h27.96
					c-0.277-0.387-24.422-32.646,2.449-51.813C45.491,156.004,28.811,151.761,28.811,151.761z" style="fill:#EDE3DA;"></path>
				<path d="M59.43,199.947H28.138l2.208-2.494c11.508-12.998,8.648-31.606,8.618-31.793l-0.02-0.24
					c0-9.075-8.396-11.678-10.14-12.12c-0.239-0.053-0.364-0.084-0.364-0.084l0.657-2.927c0,0,0.14,0.027,0.393,0.09
					c0.935,0.204,4.231,0.841,8.798,0.841c5.724,0,14.334-1.021,22.845-5.888l1.616,2.522c-6.63,4.73-10.567,10.708-11.702,17.767
					c-2.415,15.029,8.337,30.228,9.571,31.911l1.75,2.387L59.43,199.947z M34.606,196.947H56.6
					c-3.447-5.394-10.64-18.567-8.514-31.802c0.803-5,2.847-9.499,6.1-13.452c-6.069,2.011-11.71,2.526-15.896,2.526
					c-0.462,0-0.913-0.006-1.349-0.018c2.653,2.276,4.971,5.784,5.005,11.1C42.206,167.039,44.38,183.637,34.606,196.947z" style="fill:#CCCCDE;"></path>
			</g>
			<g>
				<path d="M36.178,128.922" style="fill:#D57E58;"></path>
			</g>
			<path d="M54.905,151.73c0,0-17.649,22.793-4.085,46.721h8.611
				C59.43,198.451,41.515,173.414,54.905,151.73z" style="opacity:0.11;fill:#6E6E96;enable-background:new    ;"></path>
		</g>
		<g style="display:inline;">
			<g>
				<path d="M253.475,139.156c0-10.828-9.42-19.604-21.04-19.604c-0.183,0-0.355,0.009-0.539,0.014
					c-3.669-5.744-10.396-9.596-18.091-9.596c-11.62,0-21.041,8.773-21.041,19.604c0,0.141,0.009,0.279,0.012,0.418
					c-6.354,3.375-10.644,9.74-10.644,17.043c0,10.826,9.421,19.605,21.04,19.605c0.66,0,1.312-0.033,1.96-0.095
					c3.858,4.354,9.698,7.14,16.233,7.14c10.733,0,19.596-7.5,20.875-17.188C248.92,153.213,253.475,146.684,253.475,139.156z" style="fill:#D7F7E4;"></path>
				<path d="M221.365,175.185c-6.464,0-12.559-2.573-16.845-7.087c-0.455,0.027-0.906,0.042-1.349,0.042
					c-12.429,0-22.54-9.468-22.54-21.105c0-7.289,4.053-14.077,10.637-17.92c0.262-11.426,10.271-20.646,22.536-20.646
					c7.589,0,14.744,3.651,18.884,9.583c12.312,0.128,22.286,9.545,22.286,21.103c0,7.613-4.335,14.567-11.367,18.325
					C241.852,167.629,232.437,175.185,221.365,175.185z M205.749,164.98l0.506,0.57c3.735,4.217,9.243,6.635,15.11,6.635
					c9.857,0,18.192-6.829,19.388-15.885l0.105-0.796l0.72-0.354c6.413-3.153,10.396-9.282,10.396-15.995
					c0-9.982-8.766-18.104-19.54-18.104c-0.107,0-0.21,0.004-0.314,0.007l-1.032,0.028l-0.456-0.714
					c-3.508-5.492-9.956-8.903-16.827-8.903c-10.775,0-19.541,8.122-19.541,18.104l0.031,1.31l-0.815,0.433
					c-6.074,3.227-9.848,9.25-9.848,15.719c0,9.983,8.766,18.105,19.54,18.105c0.592,0,1.203-0.029,1.818-0.088L205.749,164.98z" style="fill:#CCCCDE;"></path>
			</g>
			<path d="M232.081,118.845c-0.188,0-0.358,0.009-0.539,0.013
				c-2.94-4.606-7.854-7.992-13.646-9.154c4.586,1.15,8.449,3.94,10.822,7.655c0.154-0.004,2.263,3.639,2.419,3.639
				c9.971,0,14.608,5.374,14.608,14.664c0,6.459-2.42,10.574-8.148,13.396c-1.1,8.311-8.698,14.737-17.914,14.737
				c-5.604,0-10.619-2.381-13.934-6.112c-0.562,0.047-1.112,0.067-1.687,0.067c-9.975,0-17.806-4.727-17.806-14.016
				c0-6.258,2.8-9.34,7.896-13.056c-0.14-0.811-0.698-7.89,1.188-9.771c4.485-4.488,6.521-8.343,10.534-10.337
				c-7.879,2.833-13.473,9.952-13.473,18.291c0,0.139,0.008,0.274,0.014,0.418c-6.354,3.373-10.646,9.736-10.646,17.041
				c0,10.824,9.421,19.604,21.041,19.604c0.661,0,1.313-0.032,1.959-0.094c3.859,4.355,9.699,7.139,16.234,7.139
				c10.739,0,19.594-7.5,20.875-17.188c6.68-3.285,11.229-9.813,11.229-17.342C253.122,127.623,243.702,118.845,232.081,118.845z" style="opacity:0.1;fill:#6E6E96;enable-background:new    ;"></path>
			<g>
				<path d="M202.135,149.758c0,0,10.896,2.138,10.896,12.802c0,0,2.938,18.104-8.402,30.928h26.184
					c-0.26-0.359-22.87-30.566,2.294-48.521C217.754,153.732,202.135,149.758,202.135,149.758z" style="fill:#EDE3DA;"></path>
				<path d="M230.813,194.987H201.3l2.205-2.494c10.745-12.149,8.074-29.52,8.046-29.693l-0.02-0.24
					c0-8.436-7.806-10.857-9.431-11.27c-0.221-0.049-0.336-0.078-0.336-0.078l0.659-2.926c0,0,0.13,0.024,0.364,0.083
					c0.876,0.191,3.958,0.787,8.235,0.787c5.346,0,13.388-0.953,21.339-5.493l1.615,2.523c-6.193,4.419-9.868,10.003-10.923,16.596
					c-2.249,14.062,7.798,28.227,8.951,29.796l1.755,2.388L230.813,194.987z M207.751,191.987h20.234
					c-3.271-5.143-9.863-17.358-7.893-29.679c0.736-4.604,2.591-8.759,5.536-12.42c-5.577,1.802-10.75,2.268-14.605,2.268
					c-0.347,0-0.686-0.003-1.017-0.01c2.418,2.149,4.491,5.414,4.524,10.295C214.781,164.106,216.784,179.529,207.751,191.987z" style="fill:#CCCCDE;"></path>
			</g>
			<g>
				<path d="M209.036,128.373" style="fill:#D57E58;"></path>
			</g>
			<path d="M226.571,149.73c0,0-16.526,21.344-3.819,43.752h8.062
				C230.808,193.482,214.032,170.035,226.571,149.73z" style="opacity:0.11;fill:#6E6E96;enable-background:new    ;"></path>
		</g>
		<g style="display:inline;">
			<g>
				<path d="M216.773,140.916c0-16.621-14.461-30.094-32.299-30.094c-0.278,0-0.554,0.012-0.828,0.019
					c-5.632-8.812-15.959-14.729-27.771-14.729c-17.838,0-32.301,13.475-32.301,30.096c0,0.215,0.014,0.433,0.018,0.646
					c-9.755,5.181-16.339,14.94-16.339,26.155c0,16.617,14.462,30.099,32.3,30.099c1.014,0,2.018-0.049,3.008-0.14
					c5.926,6.688,14.894,10.947,24.921,10.947c16.489,0,30.081-11.514,32.049-26.379
					C209.782,162.498,216.773,152.469,216.773,140.916z" style="fill:#D7F7E4;"></path>
				<path d="M167.482,195.416c-9.841,0-19.103-3.961-25.536-10.893c-0.805,0.057-1.606,0.085-2.393,0.085
					c-18.637,0-33.8-14.175-33.8-31.599c0-11.044,6.23-21.321,16.322-27.034c0.134-17.315,15.245-31.363,33.8-31.363
					c11.533,0,22.396,5.615,28.566,14.71c0.011,0,0.021,0,0.032,0c18.637,0,33.799,14.173,33.799,31.594
					c0,11.517-6.636,22.026-17.37,27.608C198.444,183.91,184.226,195.416,167.482,195.416z M143.18,181.405l0.504,0.568
					c5.879,6.637,14.553,10.442,23.798,10.442c15.53,0,28.67-10.78,30.562-25.076l0.105-0.795l0.72-0.354
					c10.119-4.974,16.404-14.658,16.404-25.275c0-15.767-13.816-28.594-30.799-28.594c-0.182,0-0.362,0.006-0.543,0.011
					l-1.094,0.028l-0.455-0.713c-5.533-8.658-15.69-14.036-26.507-14.036c-16.983,0-30.801,12.828-30.801,28.596
					c0,0.107,0.004,0.216,0.008,0.323l0.026,1.216l-0.813,0.433c-9.587,5.091-15.542,14.605-15.542,24.83
					c0,15.77,13.817,28.599,30.8,28.599c0.939,0,1.906-0.045,2.871-0.134L143.18,181.405z" style="fill:#CCCCDE;"></path>
			</g>
			<path d="M183.931,109.738c-0.276,0-0.552,0.012-0.827,0.019
				c-4.516-7.066-12.051-12.269-20.949-14.052c7.041,1.771,12.976,6.049,16.614,11.751c0.237-0.006,3.479,5.586,3.713,5.586
				c15.312,0,22.434,8.248,22.434,22.516c0,9.909-3.72,16.229-12.518,20.562c-1.687,12.754-13.353,22.635-27.5,22.635
				c-8.605,0-16.302-3.651-21.387-9.395c-0.851,0.069-1.71,0.113-2.58,0.113c-15.31,0-27.332-7.259-27.332-21.521
				c0-9.604,4.298-14.336,12.12-20.039c-0.209-1.229-1.077-12.104,1.82-15.002c6.89-6.89,10.011-12.808,16.174-15.868
				c-12.096,4.354-20.679,15.277-20.679,28.08c0,0.215,0.011,0.433,0.017,0.646c-9.756,5.177-16.34,14.942-16.34,26.155
				c0,16.617,14.461,30.099,32.3,30.099c1.017,0,2.017-0.049,3.008-0.138c5.925,6.688,14.895,10.945,24.922,10.945
				c16.487,0,30.078-11.514,32.046-26.379c10.259-5.043,17.244-15.066,17.244-26.623
				C216.231,123.211,201.77,109.738,183.931,109.738z" style="opacity:0.1;fill:#6E6E96;enable-background:new    ;"></path>
			<g>
				<path d="M137.959,157.193c0,0,16.727,3.271,16.727,19.643c0,0,4.504,27.812-12.899,47.48h40.19
					c-0.396-0.562-35.104-46.922,3.521-74.484C161.939,163.293,137.959,157.193,137.959,157.193z" style="fill:#EDE3DA;"></path>
				<path d="M181.977,225.816h-43.521l2.207-2.494c16.711-18.887,12.585-45.976,12.542-46.247l-0.02-0.239
					c0-13.556-12.513-17.42-15.085-18.07c-0.336-0.073-0.512-0.118-0.512-0.118l0.658-2.926c0,0,0.193,0.037,0.54,0.123
					c1.35,0.295,6.156,1.228,12.81,1.228c8.306,0,20.8-1.482,33.157-8.543l1.615,2.523c-9.665,6.897-15.411,15.62-17.08,25.928
					c-3.526,21.784,12.068,43.94,13.858,46.396l1.738,2.384L181.977,225.816z M144.976,222.816h34.147
					c-4.566-6.942-15.976-26.67-12.795-46.315c1.27-7.846,4.706-14.826,10.248-20.847c-9.523,3.546-18.482,4.418-24.979,4.418
					c-1.403,0-2.726-0.039-3.955-0.104c4.313,3.099,8.505,8.286,8.544,16.749C156.523,178.925,159.876,203.592,144.976,222.816z" style="fill:#CCCCDE;"></path>
			</g>
			<g>
				<path d="M148.552,124.362" style="fill:#D57E58;"></path>
			</g>
			<path d="M175.472,157.148c0,0-25.378,32.766-5.873,67.164h12.378
				C181.977,224.313,156.223,188.32,175.472,157.148z" style="opacity:0.11;fill:#6E6E96;enable-background:new    ;"></path>
		</g>
		<g style="display:inline;">
			<g>
				<path d="M144.936,142.027c0-13.646-11.873-24.707-26.517-24.707c-0.229,0-0.454,0.01-0.685,0.016
					c-4.619-7.234-13.102-12.092-22.8-12.092c-14.644,0-26.518,11.063-26.518,24.706c0,0.178,0.012,0.354,0.015,0.529
					c-8.01,4.252-13.414,12.271-13.414,21.477c0,13.646,11.872,24.707,26.521,24.707c0.832,0,1.65-0.041,2.469-0.104
					c4.864,5.479,12.224,8.979,20.46,8.979c13.537,0,24.695-9.451,26.309-21.647C139.196,159.746,144.936,151.514,144.936,142.027z" style="fill:#D7F7E4;"></path>
				<path d="M104.468,187.039c-8.107,0-15.746-3.247-21.08-8.934c-0.66,0.038-1.27,0.058-1.849,0.058
					c-15.451,0-28.021-11.757-28.021-26.207c0-9.118,5.111-17.604,13.402-22.355c0.2-14.29,12.69-25.856,28.015-25.856
					c9.511,0,18.47,4.606,23.595,12.076c15.398,0.056,27.906,11.791,27.906,26.207c0,9.51-5.455,18.196-14.289,22.85
					C130.049,177.566,118.298,187.039,104.468,187.039z M84.636,175.007l0.494,0.557c4.782,5.387,11.83,8.476,19.338,8.476
					c12.616,0,23.288-8.746,24.821-20.344l0.105-0.795l0.719-0.354c8.218-4.046,13.322-11.908,13.322-20.519
					c0-12.797-11.223-23.207-25.017-23.207c-0.147,0-0.292,0.005-0.438,0.009l-1.055,0.027l-0.456-0.714
					c-4.49-7.031-12.741-11.399-21.536-11.399c-13.795,0-25.018,10.41-25.018,23.206l0.03,1.423l-0.812,0.432
					c-7.783,4.131-12.617,11.853-12.617,20.151c0,12.797,11.225,23.207,25.021,23.207c0.721,0,1.469-0.031,2.354-0.1L84.636,175.007
					z" style="fill:#CCCCDE;"></path>
			</g>
			<path d="M117.973,116.432c-0.228,0-0.452,0.009-0.679,0.015
				c-3.707-5.805-9.896-10.072-17.199-11.537c5.78,1.45,10.648,4.966,13.641,9.647c0.194-0.006,2.854,4.586,3.053,4.586
				c12.562,0,18.414,6.771,18.414,18.479c0,8.144-3.055,13.326-10.271,16.881c-1.384,10.478-10.961,18.584-22.576,18.584
				c-7.064,0-13.384-3.004-17.559-7.715c-0.698,0.063-1.404,0.101-2.118,0.101c-12.568,0-22.438-5.957-22.438-17.664
				c0-7.89,3.527-11.771,9.948-16.451c-0.171-1.021-0.884-9.938,1.496-12.316c5.655-5.657,8.218-10.515,13.277-13.023
				c-9.935,3.566-16.979,12.542-16.979,23.054c0,0.176,0.015,0.352,0.02,0.523c-8.016,4.25-13.415,12.271-13.415,21.479
				c0,13.645,11.873,24.707,26.518,24.707c0.834,0,1.655-0.041,2.47-0.109c4.863,5.488,12.228,8.988,20.462,8.988
				c13.534,0,24.691-9.451,26.312-21.656c8.418-4.141,14.158-12.371,14.158-21.854C144.491,127.494,132.618,116.432,117.973,116.432
				z" style="opacity:0.1;fill:#6E6E96;enable-background:new    ;"></path>
			<g>
				<path d="M80.232,155.391c0,0,13.731,2.688,13.731,16.129c0,0,3.697,22.821-10.595,38.977h33
					c-0.328-0.455-28.824-38.52,2.89-61.147C99.918,160.398,80.232,155.391,80.232,155.391z" style="fill:#EDE3DA;"></path>
				<path d="M116.368,211.997h-36.33l2.206-2.494c13.636-15.413,10.273-37.522,10.237-37.743l-0.019-0.239
					c0-10.928-10.095-14.05-12.18-14.577c-0.277-0.062-0.422-0.098-0.422-0.098l0.658-2.926c0,0,0.161,0.03,0.45,0.103
					c1.106,0.241,5.026,1.001,10.458,1.001c6.786,0,16.994-1.21,27.086-6.977l1.615,2.523c-7.892,5.631-12.576,12.752-13.923,21.164
					c-2.861,17.865,9.887,35.854,11.351,37.846l1.753,2.388L116.368,211.997z M86.53,208.997h26.991
					c-3.932-6.047-12.823-21.844-10.278-37.737c0.989-6.177,3.596-11.703,7.778-16.517c-7.477,2.622-14.465,3.28-19.594,3.28
					c-0.833,0-1.631-0.017-2.392-0.046c3.334,2.627,6.39,6.832,6.426,13.425C95.756,173.339,98.41,193.244,86.53,208.997z" style="fill:#CCCCDE;"></path>
			</g>
			<g>
				<path d="M88.928,128.438" style="fill:#D57E58;"></path>
			</g>
			<path d="M111.028,155.355c0,0-20.835,26.896-4.816,55.141h10.162
				C116.369,210.496,95.225,180.945,111.028,155.355z" style="opacity:0.11;fill:#6E6E96;enable-background:new    ;"></path>
		</g>
		<g style="display:inline;">
			<g>
				<path d="M252.159,166.164c0-12.344-10.74-22.35-23.988-22.35c-0.202,0-0.406,0.008-0.61,0.014
					c-4.187-6.549-11.854-10.938-20.625-10.938c-13.248,0-23.98,10.008-23.98,22.35c0,0.162,0.012,0.318,0.014,0.479
					c-7.244,3.851-12.135,11.104-12.135,19.433c0,12.348,10.731,22.354,23.98,22.354c0.753,0,1.497-0.039,2.229-0.104
					c4.396,4.969,11.062,8.135,18.512,8.135c12.245,0,22.339-8.553,23.799-19.592C246.965,182.191,252.159,174.746,252.159,166.164z" style="fill:#D7F7E4;"></path>
				<path d="M215.556,207.036c-7.359,0-14.285-2.937-19.127-8.084c-0.558,0.035-1.091,0.053-1.614,0.053
					c-14.05,0-25.48-10.7-25.48-23.854c0-8.271,4.622-15.974,12.125-20.311c0.228-12.967,11.569-23.45,25.477-23.45
					c8.62,0,16.746,4.166,21.42,10.925c13.97,0.093,25.304,10.756,25.304,23.849c0,8.631-4.937,16.519-12.936,20.765
					C238.783,198.447,228.112,207.036,215.556,207.036z M197.666,195.841l0.501,0.566c4.289,4.849,10.627,7.629,17.389,7.629
					c11.341,0,20.933-7.862,22.312-18.288l0.105-0.795l0.719-0.354c7.382-3.64,11.968-10.704,11.968-18.435
					c0-11.496-10.088-20.85-22.488-20.85c-0.146,0-0.294,0.005-0.441,0.009l-0.976,0.028l-0.457-0.716
					c-4.04-6.319-11.459-10.245-19.361-10.245c-12.396,0-22.48,9.354-22.48,20.85l0.024,1.374l-0.807,0.429
					c-6.994,3.718-11.339,10.656-11.339,18.108c0,11.499,10.085,20.854,22.48,20.854c0.664,0,1.351-0.032,2.098-0.098
					L197.666,195.841z" style="fill:#CCCCDE;"></path>
			</g>
			<path d="M227.767,143.008c-0.206,0-0.409,0.017-0.614,0.021
				c-3.354-5.25-8.944-9.111-15.558-10.438c5.229,1.313,9.633,4.492,12.339,8.729c0.175-0.004,2.579,4.146,2.757,4.146
				c11.368,0,16.655,6.123,16.655,16.724c0,7.356-2.757,12.055-9.291,15.27c-1.252,9.477-9.915,16.814-20.423,16.814
				c-6.396,0-12.106-2.726-15.884-6.98c-0.631,0.058-1.271,0.086-1.916,0.086c-11.368,0-20.299-5.389-20.299-15.979
				c0-7.14,3.188-10.646,9.002-14.89c-0.156-0.918-0.809-8.981,1.353-11.141c5.116-5.117,7.438-9.514,12.011-11.785
				c-8.979,3.229-15.354,11.351-15.354,20.854c0,0.157,0.013,0.312,0.017,0.479c-7.246,3.851-12.138,11.104-12.138,19.433
				c0,12.344,10.738,22.352,23.988,22.352c0.754,0,1.491-0.035,2.229-0.102c4.401,4.967,11.063,8.133,18.509,8.133
				c12.245,0,22.338-8.558,23.804-19.595c7.61-3.739,12.812-11.188,12.812-19.771C251.754,153.016,241.016,143.008,227.767,143.008z" style="opacity:0.1;fill:#6E6E96;enable-background:new    ;"></path>
			<g>
				<path d="M193.625,178.252c0,0,12.422,2.437,12.422,14.588c0,0,3.345,20.646-9.584,35.265h29.853
					c-0.296-0.41-26.068-34.853,2.615-55.318C211.435,182.783,193.625,178.252,193.625,178.252z" style="fill:#EDE3DA;"></path>
				<path d="M226.316,229.604h-33.182l2.205-2.494c12.316-13.925,9.26-33.831,9.228-34.03l-0.02-0.24
					c0-9.771-9.038-12.571-10.911-13.046c-0.25-0.055-0.381-0.088-0.381-0.088l0.659-2.926c0,0,0.146,0.027,0.408,0.093
					c0.999,0.219,4.533,0.903,9.434,0.903c6.121,0,15.328-1.092,24.431-6.293l1.615,2.523c-7.104,5.069-11.322,11.479-12.535,19.05
					c-2.58,16.11,8.92,32.337,10.239,34.135l1.754,2.388L226.316,229.604z M199.609,226.604h23.868
					c-3.632-5.641-11.453-19.782-9.172-34.022c0.872-5.444,3.125-10.331,6.725-14.609c-6.594,2.235-12.735,2.804-17.273,2.804
					c-0.601,0-1.183-0.01-1.742-0.026c2.908,2.41,5.498,6.182,5.533,11.972C207.82,194.534,210.171,212.371,199.609,226.604z" style="fill:#CCCCDE;"></path>
			</g>
			<g>
				<path d="M201.493,153.871" style="fill:#D57E58;"></path>
			</g>
			<path d="M221.485,178.219c0,0-18.847,24.334-4.356,49.882h9.188
				C226.316,228.1,207.189,201.369,221.485,178.219z" style="opacity:0.11;fill:#6E6E96;enable-background:new    ;"></path>
		</g>
		<g style="display:inline;">
			<g>
				<path d="M87.893,164.313c0-13.111-11.408-23.738-25.479-23.738c-0.225,0-0.438,0.008-0.653,0.014
					c-4.443-6.951-12.589-11.608-21.907-11.608c-14.066,0-25.479,10.629-25.479,23.731c0,0.17,0.011,0.336,0.015,0.511
					c-7.696,4.08-12.89,11.789-12.89,20.635c0,13.104,11.407,23.735,25.479,23.735c0.8,0,1.59-0.041,2.372-0.104
					c4.674,5.271,11.745,8.639,19.659,8.639c13.007,0,23.729-9.082,25.279-20.809C82.378,181.336,87.893,173.427,87.893,164.313z" style="fill:#D7F7E4;"></path>
				<path d="M49.01,207.628c-7.795,0-15.142-3.122-20.278-8.592c-0.622,0.038-1.201,0.057-1.753,0.057
					C12.103,199.093,0,187.772,0,173.857c0-8.776,4.911-16.939,12.878-21.514C13.09,138.6,25.11,127.48,39.854,127.48
					c9.146,0,17.764,4.422,22.703,11.595c14.811,0.072,26.836,11.366,26.836,25.238c0,9.149-5.242,17.507-13.734,21.991
					C73.628,198.516,62.319,207.628,49.01,207.628z M29.977,195.934l0.496,0.56c4.584,5.169,11.341,8.134,18.537,8.134
					c12.094,0,22.323-8.386,23.792-19.505l0.105-0.795l0.719-0.354c7.875-3.878,12.766-11.411,12.766-19.66
					c0-12.263-10.757-22.238-23.979-22.238c-0.166,0-0.325,0.005-0.483,0.01l-0.977,0.026l-0.457-0.715
					c-4.304-6.733-12.214-10.916-20.644-10.916c-13.222,0-23.979,9.973-23.979,22.231l0.035,1.402l-0.818,0.434
					C7.634,158.502,3,165.901,3,173.857c0,12.261,10.757,22.235,23.979,22.235c0.684,0,1.421-0.032,2.252-0.099L29.977,195.934z" style="fill:#CCCCDE;"></path>
			</g>
			<path d="M61.986,139.719c-0.219,0-0.435,0.011-0.647,0.017
				c-3.563-5.578-9.506-9.678-16.525-11.086c5.555,1.393,10.231,4.771,13.106,9.27c0.186-0.004,2.734,4.406,2.928,4.406
				c12.076,0,17.692,6.506,17.692,17.758c0,7.82-2.934,12.81-9.87,16.226c-1.33,10.062-10.531,17.854-21.693,17.854
				c-6.792,0-12.856-2.885-16.871-7.412c-0.67,0.062-1.348,0.092-2.035,0.092c-12.071,0-21.561-5.723-21.561-16.975
				c0-7.574,3.391-11.307,9.561-15.807c-0.165-0.979-0.85-9.554,1.438-11.836c5.435-5.438,7.896-10.104,12.758-12.521
				c-9.541,3.434-16.312,12.051-16.312,22.146c0,0.17,0.011,0.338,0.015,0.508c-7.696,4.084-12.89,11.793-12.89,20.639
				c0,13.107,11.403,23.736,25.479,23.736c0.801,0,1.591-0.039,2.373-0.105c4.674,5.273,11.745,8.644,19.659,8.644
				c13.006,0,23.728-9.08,25.273-20.813c8.094-3.979,13.604-11.891,13.604-21.002C87.466,150.345,76.058,139.719,61.986,139.719z" style="opacity:0.1;fill:#6E6E96;enable-background:new    ;"></path>
			<g>
				<path d="M25.723,177.152c0,0,13.193,2.584,13.193,15.496c0,0,3.553,21.932-10.184,37.451H60.44
					c-0.312-0.438-27.689-37.021,2.777-58.765C44.638,181.963,25.723,177.152,25.723,177.152z" style="fill:#EDE3DA;"></path>
				<path d="M60.44,231.599H25.402l2.208-2.494c13.086-14.785,9.86-36.006,9.826-36.219l-0.019-0.238
					c0-10.454-9.661-13.443-11.659-13.948c-0.266-0.059-0.404-0.094-0.404-0.094l0.658-2.926c0,0,0.154,0.029,0.432,0.099
					c1.061,0.231,4.817,0.959,10.025,0.959c6.515,0,16.315-1.163,26.004-6.705l1.616,2.522c-7.56,5.396-12.05,12.216-13.348,20.271
					c-2.755,17.104,9.479,34.432,10.883,36.351l1.745,2.386L60.44,231.599z M31.889,228.599h25.712
					c-3.807-5.892-12.269-21.059-9.822-36.249c0.944-5.861,3.401-11.114,7.333-15.698c-7.115,2.464-13.756,3.086-18.643,3.086
					c-0.732,0-1.437-0.014-2.11-0.037c3.159,2.539,6.022,6.566,6.058,12.829C40.701,194.417,43.23,213.474,31.889,228.599z" style="fill:#CCCCDE;"></path>
			</g>
			<g>
				<path d="M34.078,151.254" style="fill:#D57E58;"></path>
			</g>
			<path d="M55.313,177.117c0,0-20.02,25.848-4.633,52.982h9.764
				C60.444,230.1,40.129,201.707,55.313,177.117z" style="opacity:0.11;fill:#6E6E96;enable-background:new    ;"></path>
		</g>
	</g>
	<g style="display:none;" id="Layer_3_2_">
		<g style="display:inline;">
			<g>
				<path d="M84.635,140.439c0-11.564-10.059-20.938-22.467-20.938c-0.194,0-0.385,0.014-0.576,0.019
					c-3.917-6.139-11.102-10.245-19.318-10.245c-12.404,0-22.469,9.372-22.469,20.935c0,0.15,0.009,0.297,0.012,0.447
					c-6.78,3.602-11.36,10.397-11.36,18.197c0,11.562,10.059,20.934,22.468,20.934c0.705,0,1.403-0.033,2.092-0.094
					c4.122,4.646,10.358,7.617,17.335,7.617c11.471,0,20.925-8.015,22.293-18.354C79.772,155.451,84.635,148.477,84.635,140.439z" style="fill:#D7F7E4;"></path>
				<path d="M50.351,178.81c-6.89,0-13.388-2.749-17.95-7.568c-0.499,0.03-0.993,0.045-1.477,0.045
					c-13.216,0-23.968-10.063-23.968-22.434c0-7.767,4.327-14.996,11.353-19.075c0.247-12.172,10.902-22.004,23.964-22.004
					c8.092,0,15.715,3.898,20.109,10.228c13.117,0.108,23.752,10.132,23.752,22.438c0,8.109-4.625,15.513-12.124,19.502
					C72.165,170.754,62.14,178.81,50.351,178.81z M33.636,168.133l0.501,0.565c4.011,4.52,9.92,7.112,16.213,7.112
					c10.575,0,19.52-7.33,20.806-17.051l0.105-0.796l0.72-0.354c6.88-3.383,11.153-9.963,11.153-17.171
					c0-10.719-9.406-19.438-20.967-19.438c-0.097,0-0.192,0.004-0.288,0.009l-1.097,0.031l-0.456-0.714
					c-3.759-5.892-10.677-9.552-18.054-9.552c-11.562,0-20.969,8.718-20.969,19.435l0.029,1.34l-0.814,0.433
					c-6.516,3.461-10.564,9.926-10.564,16.872c0,10.716,9.406,19.434,20.968,19.434c0.637,0,1.296-0.029,1.96-0.088L33.636,168.133z" style="fill:#CCCCDE;"></path>
			</g>
			<path d="M61.789,118.75c-0.193,0-0.389,0.013-0.575,0.019
				c-3.141-4.918-8.383-8.534-14.573-9.775c4.898,1.229,9.023,4.208,11.562,8.175c0.161-0.004,2.416,3.89,2.583,3.89
				c10.646,0,15.601,5.734,15.601,15.655c0,6.896-2.583,11.291-8.704,14.306c-1.173,8.875-9.287,15.747-19.129,15.747
				c-5.99,0-11.34-2.546-14.877-6.532c-0.591,0.051-1.189,0.078-1.794,0.078c-10.649,0-19.013-5.051-19.013-14.972
				c0-6.682,2.985-9.973,8.432-13.938c-0.146-0.857-0.75-8.421,1.267-10.438c4.792-4.793,6.964-8.904,11.25-11.038
				c-8.414,3.025-14.385,10.628-14.385,19.534c0,0.148,0.009,0.299,0.012,0.447C12.657,133.51,8.08,140.302,8.08,148.102
				c0,11.562,10.059,20.936,22.468,20.936c0.707,0,1.401-0.035,2.093-0.096c4.121,4.646,10.356,7.617,17.336,7.617
				c11.469,0,20.924-8.017,22.291-18.354c7.133-3.506,11.997-10.479,11.997-18.52C84.258,128.123,74.199,118.75,61.789,118.75z" style="opacity:0.1;fill:#6E6E96;enable-background:new    ;"></path>
			<g>
				<path d="M29.811,151.761c0,0,11.635,2.273,11.635,13.658c0,0,3.137,19.347-8.976,33.027h27.96
					c-0.277-0.387-24.422-32.644,2.449-51.813C46.491,156.004,29.811,151.761,29.811,151.761z" style="fill:#EDE3DA;"></path>
				<path d="M60.43,199.947H29.138l2.208-2.494c11.508-12.998,8.648-31.606,8.618-31.793l-0.02-0.24
					c0-9.075-8.396-11.678-10.14-12.12c-0.239-0.053-0.364-0.084-0.364-0.084l0.657-2.927c0,0,0.14,0.027,0.393,0.09
					c0.935,0.204,4.231,0.841,8.798,0.841c5.724,0,14.334-1.021,22.845-5.888l1.616,2.522c-6.631,4.73-10.568,10.709-11.702,17.769
					c-2.415,15.028,8.337,30.227,9.571,31.909l1.75,2.387L60.43,199.947z M35.606,196.947H57.6
					c-3.447-5.394-10.64-18.566-8.514-31.8c0.803-5.001,2.847-9.501,6.1-13.454c-6.069,2.011-11.71,2.526-15.897,2.526
					c-0.462,0-0.913-0.006-1.349-0.018c2.653,2.276,4.971,5.784,5.005,11.1C43.206,167.039,45.38,183.637,35.606,196.947z" style="fill:#CCCCDE;"></path>
			</g>
			<g>
				<path d="M37.178,128.922" style="fill:#D57E58;"></path>
			</g>
			<path d="M55.905,151.73c0,0-17.649,22.793-4.085,46.721h8.611
				C60.43,198.451,42.515,173.414,55.905,151.73z" style="opacity:0.11;fill:#6E6E96;enable-background:new    ;"></path>
		</g>
		<g style="display:inline;">
			<g>
				<path d="M254.475,139.156c0-10.828-9.42-19.604-21.04-19.604c-0.183,0-0.355,0.009-0.539,0.014
					c-3.669-5.744-10.396-9.596-18.091-9.596c-11.62,0-21.041,8.773-21.041,19.604c0,0.141,0.009,0.279,0.012,0.418
					c-6.354,3.375-10.644,9.74-10.644,17.043c0,10.826,9.421,19.605,21.04,19.605c0.66,0,1.312-0.033,1.96-0.095
					c3.858,4.355,9.698,7.14,16.233,7.14c10.734,0,19.596-7.5,20.875-17.188C249.92,153.213,254.475,146.684,254.475,139.156z" style="fill:#D7F7E4;"></path>
				<path d="M222.365,175.185c-6.464,0-12.56-2.574-16.845-7.087c-0.455,0.027-0.906,0.042-1.349,0.042
					c-12.429,0-22.54-9.468-22.54-21.105c0-7.289,4.053-14.077,10.637-17.92c0.262-11.426,10.271-20.646,22.536-20.646
					c7.589,0,14.744,3.651,18.884,9.583c12.312,0.128,22.286,9.545,22.286,21.103c0,7.613-4.335,14.567-11.367,18.325
					C242.852,167.629,233.437,175.185,222.365,175.185z M206.749,164.98l0.506,0.57c3.734,4.217,9.242,6.635,15.11,6.635
					c9.857,0,18.192-6.829,19.388-15.885l0.105-0.796l0.72-0.354c6.413-3.153,10.396-9.282,10.396-15.995
					c0-9.982-8.766-18.104-19.54-18.104c-0.107,0-0.21,0.004-0.314,0.007l-1.032,0.028l-0.456-0.714
					c-3.508-5.492-9.956-8.903-16.827-8.903c-10.775,0-19.541,8.122-19.541,18.104l0.031,1.31l-0.815,0.433
					c-6.074,3.227-9.848,9.25-9.848,15.719c0,9.983,8.766,18.105,19.54,18.105c0.592,0,1.203-0.029,1.818-0.088L206.749,164.98z" style="fill:#CCCCDE;"></path>
			</g>
			<path d="M233.081,118.845c-0.188,0-0.358,0.009-0.539,0.013
				c-2.94-4.606-7.854-7.992-13.646-9.154c4.586,1.15,8.449,3.94,10.822,7.655c0.154-0.004,2.263,3.639,2.419,3.639
				c9.971,0,14.608,5.374,14.608,14.664c0,6.459-2.42,10.574-8.148,13.396c-1.1,8.311-8.698,14.737-17.914,14.737
				c-5.604,0-10.619-2.381-13.934-6.112c-0.561,0.047-1.112,0.067-1.686,0.067c-9.975,0-17.806-4.727-17.806-14.016
				c0-6.256,2.8-9.338,7.896-13.056c-0.141-0.809-0.699-7.889,1.188-9.771c4.486-4.488,6.521-8.343,10.535-10.337
				c-7.879,2.833-13.471,9.952-13.471,18.292c0,0.139,0.006,0.275,0.012,0.418c-6.355,3.373-10.646,9.736-10.646,17.041
				c0,10.824,9.42,19.604,21.041,19.604c0.661,0,1.313-0.03,1.959-0.091c3.859,4.354,9.699,7.137,16.234,7.137
				c10.74,0,19.594-7.5,20.875-17.188c6.68-3.285,11.23-9.813,11.23-17.342C254.122,127.623,244.702,118.845,233.081,118.845z" style="opacity:0.1;fill:#6E6E96;enable-background:new    ;"></path>
			<g>
				<path d="M203.135,149.758c0,0,10.896,2.138,10.896,12.802c0,0,2.938,18.104-8.402,30.928h26.184
					c-0.26-0.359-22.87-30.566,2.294-48.521C218.754,153.732,203.135,149.758,203.135,149.758z" style="fill:#EDE3DA;"></path>
				<path d="M231.813,194.987H202.3l2.205-2.494c10.745-12.149,8.074-29.52,8.046-29.693l-0.02-0.24
					c0-8.436-7.806-10.857-9.431-11.27c-0.221-0.049-0.336-0.078-0.336-0.078l0.659-2.926c0,0,0.13,0.024,0.364,0.083
					c0.876,0.191,3.958,0.787,8.235,0.787c5.346,0,13.388-0.953,21.339-5.493l1.615,2.523c-6.193,4.419-9.868,10.003-10.923,16.596
					c-2.249,14.062,7.798,28.227,8.951,29.796l1.755,2.388L231.813,194.987z M208.751,191.987h20.234
					c-3.271-5.143-9.863-17.358-7.893-29.679c0.736-4.604,2.591-8.759,5.536-12.42c-5.577,1.802-10.75,2.268-14.605,2.268
					c-0.347,0-0.686-0.003-1.017-0.01c2.418,2.149,4.491,5.414,4.524,10.295C215.781,164.106,217.784,179.529,208.751,191.987z" style="fill:#CCCCDE;"></path>
			</g>
			<g>
				<path d="M210.036,128.373" style="fill:#D57E58;"></path>
			</g>
			<path d="M227.571,149.73c0,0-16.526,21.344-3.819,43.752h8.062
				C231.808,193.482,215.032,170.035,227.571,149.73z" style="opacity:0.11;fill:#6E6E96;enable-background:new    ;"></path>
		</g>
		<g style="display:inline;">
			<g>
				<path d="M217.773,140.916c0-16.621-14.461-30.094-32.299-30.094c-0.278,0-0.554,0.012-0.828,0.019
					c-5.632-8.812-15.959-14.729-27.771-14.729c-17.838,0-32.301,13.475-32.301,30.096c0,0.215,0.014,0.433,0.018,0.646
					c-9.755,5.18-16.339,14.941-16.339,26.156c0,16.617,14.462,30.099,32.3,30.099c1.014,0,2.018-0.051,3.008-0.14
					c5.926,6.688,14.894,10.947,24.921,10.947c16.489,0,30.081-11.514,32.049-26.379
					C210.782,162.498,217.773,152.469,217.773,140.916z" style="fill:#D7F7E4;"></path>
				<path d="M168.482,195.417c-9.842,0-19.104-3.961-25.537-10.894c-0.817,0.057-1.619,0.086-2.392,0.086
					c-18.637,0-33.8-14.175-33.8-31.599c0-11.045,6.229-21.323,16.322-27.035c0.134-17.315,15.245-31.363,33.8-31.363
					c11.533,0,22.396,5.615,28.566,14.71c18.652-0.032,33.831,14.163,33.831,31.594c0,11.518-6.634,22.026-17.37,27.609
					C199.444,183.911,185.226,195.417,168.482,195.417z M144.181,181.408l0.503,0.566c5.879,6.637,14.553,10.442,23.798,10.442
					c15.53,0,28.67-10.78,30.562-25.076l0.105-0.795l0.72-0.354c10.119-4.975,16.404-14.66,16.404-25.276
					c0-15.767-13.816-28.594-30.799-28.594c-0.182,0-0.362,0.006-0.543,0.011l-1.094,0.028l-0.455-0.713
					c-5.533-8.658-15.69-14.036-26.507-14.036c-16.983,0-30.801,12.828-30.801,28.596c0,0.107,0.004,0.216,0.008,0.323l0.026,1.217
					l-0.813,0.432c-9.587,5.09-15.542,14.604-15.542,24.831c0,15.77,13.817,28.599,30.8,28.599c0.919,0,1.886-0.045,2.874-0.134
					L144.181,181.408z" style="fill:#CCCCDE;"></path>
			</g>
			<path d="M184.931,109.738c-0.276,0-0.552,0.012-0.827,0.019
				c-4.516-7.066-12.051-12.269-20.949-14.052c7.041,1.771,12.976,6.049,16.614,11.751c0.237-0.006,3.479,5.586,3.713,5.586
				c15.312,0,22.434,8.248,22.434,22.516c0,9.909-3.72,16.229-12.518,20.562c-1.687,12.754-13.353,22.635-27.5,22.635
				c-8.605,0-16.302-3.651-21.387-9.395c-0.851,0.069-1.71,0.113-2.58,0.113c-15.31,0-27.332-7.259-27.332-21.521
				c0-9.604,4.298-14.336,12.12-20.039c-0.209-1.229-1.077-12.104,1.82-15.002c6.89-6.89,10.011-12.808,16.174-15.868
				c-12.096,4.354-20.679,15.277-20.679,28.08c0,0.215,0.011,0.433,0.017,0.646c-9.756,5.177-16.34,14.942-16.34,26.155
				c0,16.617,14.461,30.099,32.3,30.099c1.017,0,2.017-0.049,3.008-0.135c5.925,6.688,14.895,10.942,24.922,10.942
				c16.487,0,30.078-11.514,32.046-26.379c10.259-5.043,17.244-15.063,17.244-26.623
				C217.231,123.211,202.77,109.738,184.931,109.738z" style="opacity:0.1;fill:#6E6E96;enable-background:new    ;"></path>
			<g>
				<path d="M138.959,157.193c0,0,16.727,3.271,16.727,19.643c0,0,4.504,27.81-12.899,47.479h40.19
					c-0.396-0.556-35.104-46.922,3.521-74.484C162.939,163.293,138.959,157.193,138.959,157.193z" style="fill:#EDE3DA;"></path>
				<path d="M182.977,225.815h-43.521l2.207-2.494c16.738-18.919,12.586-45.975,12.542-46.245l-0.02-0.24
					c0-13.558-12.515-17.421-15.085-18.07c-0.336-0.073-0.512-0.118-0.512-0.118l0.658-2.926c0,0,0.192,0.037,0.54,0.123
					c1.349,0.295,6.155,1.228,12.809,1.228c8.306,0,20.801-1.482,33.158-8.544l1.615,2.523
					c-9.673,6.903-15.421,15.636-17.084,25.956c-3.519,21.832,12.078,43.928,13.868,46.375l1.744,2.386L182.977,225.815z
					 M145.976,222.815h34.144c-4.57-6.934-15.967-26.611-12.796-46.285c1.267-7.858,4.704-14.849,10.252-20.877
					c-9.523,3.547-18.481,4.419-24.979,4.419c-1.403,0-2.725-0.039-3.954-0.104c4.313,3.1,8.505,8.287,8.544,16.75
					C157.523,178.925,160.876,203.59,145.976,222.815z" style="fill:#CCCCDE;"></path>
			</g>
			<g>
				<path d="M149.552,124.362" style="fill:#D57E58;"></path>
			</g>
			<path d="M176.472,157.148c0,0-25.378,32.766-5.873,67.164h12.378
				C182.977,224.313,157.223,188.32,176.472,157.148z" style="opacity:0.11;fill:#6E6E96;enable-background:new    ;"></path>
		</g>
		<g style="display:inline;">
			<g>
				<path d="M145.936,142.027c0-13.646-11.873-24.707-26.517-24.707c-0.229,0-0.454,0.01-0.685,0.016
					c-4.619-7.234-13.102-12.092-22.8-12.092c-14.644,0-26.518,11.063-26.518,24.706c0,0.178,0.012,0.354,0.015,0.529
					c-8.01,4.252-13.414,12.271-13.414,21.477c0,13.646,11.872,24.707,26.521,24.707c0.832,0,1.65-0.041,2.469-0.104
					c4.864,5.481,12.224,8.981,20.46,8.981c13.537,0,24.695-9.451,26.309-21.649C140.196,159.746,145.936,151.514,145.936,142.027z" style="fill:#D7F7E4;"></path>
				<path d="M105.468,187.041c-8.108,0-15.747-3.248-21.08-8.936c-0.66,0.038-1.27,0.058-1.849,0.058
					c-15.451,0-28.021-11.757-28.021-26.207c0-9.118,5.111-17.604,13.402-22.355c0.2-14.29,12.69-25.856,28.015-25.856
					c9.511,0,18.47,4.606,23.595,12.076c15.398,0.056,27.906,11.791,27.906,26.207c0,9.51-5.455,18.196-14.289,22.85
					C131.049,177.568,119.299,187.041,105.468,187.041z M85.636,175.007l0.494,0.557c4.781,5.388,11.829,8.478,19.338,8.478
					c12.617,0,23.287-8.747,24.821-20.346l0.105-0.795l0.719-0.354c8.218-4.046,13.322-11.908,13.322-20.519
					c0-12.797-11.223-23.207-25.017-23.207c-0.147,0-0.292,0.005-0.438,0.009l-1.055,0.027l-0.456-0.714
					c-4.49-7.031-12.741-11.399-21.536-11.399c-13.795,0-25.018,10.41-25.018,23.206l0.03,1.423l-0.812,0.432
					c-7.783,4.131-12.617,11.853-12.617,20.151c0,12.797,11.225,23.207,25.021,23.207c0.721,0,1.469-0.031,2.354-0.1L85.636,175.007
					z" style="fill:#CCCCDE;"></path>
			</g>
			<path d="M118.973,116.432c-0.228,0-0.452,0.009-0.679,0.015
				c-3.707-5.805-9.896-10.072-17.199-11.537c5.78,1.45,10.648,4.966,13.641,9.647c0.194-0.006,2.854,4.586,3.053,4.586
				c12.562,0,18.414,6.771,18.414,18.479c0,8.144-3.055,13.326-10.271,16.881c-1.384,10.478-10.961,18.584-22.576,18.584
				c-7.064,0-13.384-3.004-17.559-7.715c-0.698,0.063-1.404,0.101-2.118,0.101c-12.568,0-22.438-5.957-22.438-17.664
				c0-7.89,3.527-11.771,9.948-16.451c-0.171-1.021-0.884-9.938,1.496-12.316c5.655-5.657,8.218-10.515,13.277-13.023
				c-9.935,3.566-16.979,12.542-16.979,23.054c0,0.176,0.015,0.352,0.02,0.523c-8.016,4.25-13.415,12.271-13.415,21.479
				c0,13.645,11.873,24.707,26.518,24.707c0.834,0,1.655-0.041,2.47-0.109c4.863,5.488,12.228,8.988,20.462,8.988
				c13.534,0,24.691-9.451,26.312-21.656c8.418-4.141,14.158-12.371,14.158-21.854C145.491,127.494,133.618,116.432,118.973,116.432
				z" style="opacity:0.1;fill:#6E6E96;enable-background:new    ;"></path>
			<g>
				<path d="M81.232,155.391c0,0,13.731,2.688,13.731,16.129c0,0,3.697,22.821-10.595,38.977h33
					c-0.328-0.455-28.824-38.52,2.89-61.147C100.918,160.398,81.232,155.391,81.232,155.391z" style="fill:#EDE3DA;"></path>
				<path d="M117.368,211.997h-36.33l2.206-2.494c13.636-15.413,10.273-37.522,10.237-37.743l-0.019-0.239
					c0-10.928-10.095-14.05-12.18-14.577c-0.277-0.062-0.422-0.098-0.422-0.098l0.658-2.926c0,0,0.161,0.03,0.45,0.103
					c1.106,0.241,5.026,1.001,10.458,1.001c6.786,0,16.994-1.21,27.086-6.977l1.615,2.523c-7.892,5.631-12.576,12.752-13.923,21.164
					c-2.861,17.865,9.887,35.854,11.351,37.846l1.753,2.388L117.368,211.997z M87.53,208.997h26.991
					c-3.932-6.047-12.823-21.844-10.278-37.737c0.989-6.177,3.596-11.703,7.778-16.517c-7.477,2.622-14.465,3.28-19.594,3.28
					c-0.833,0-1.631-0.017-2.392-0.046c3.334,2.627,6.39,6.832,6.426,13.425C96.756,173.339,99.41,193.244,87.53,208.997z" style="fill:#CCCCDE;"></path>
			</g>
			<g>
				<path d="M89.928,128.438" style="fill:#D57E58;"></path>
			</g>
			<path d="M112.028,155.355c0,0-20.835,26.896-4.816,55.141h10.162
				C117.369,210.496,96.225,180.945,112.028,155.355z" style="opacity:0.11;fill:#6E6E96;enable-background:new    ;"></path>
		</g>
		<g style="display:inline;">
			<g>
				<path d="M253.159,166.164c0-12.344-10.74-22.35-23.988-22.35c-0.203,0-0.407,0.008-0.611,0.014
					c-4.186-6.549-11.854-10.938-20.625-10.938c-13.248,0-23.981,10.008-23.981,22.35c0,0.162,0.012,0.318,0.014,0.479
					c-7.244,3.851-12.135,11.104-12.135,19.433c0,12.346,10.732,22.352,23.981,22.352c0.753,0,1.497-0.039,2.23-0.102
					c4.396,4.967,11.061,8.133,18.511,8.133c12.245,0,22.339-8.551,23.799-19.592C247.965,182.191,253.159,174.746,253.159,166.164z" style="fill:#D7F7E4;"></path>
				<path d="M216.555,207.034c-7.358,0-14.285-2.937-19.127-8.083c-0.562,0.034-1.096,0.052-1.614,0.052
					c-14.051,0-25.481-10.7-25.481-23.852c0-8.271,4.622-15.974,12.125-20.311c0.228-12.967,11.569-23.45,25.478-23.45
					c8.621,0,16.747,4.165,21.42,10.925c13.971,0.092,25.305,10.755,25.305,23.849c0,8.632-4.937,16.519-12.937,20.763
					C239.782,198.445,229.111,207.034,216.555,207.034z M198.668,195.843l0.499,0.564c4.29,4.847,10.627,7.627,17.388,7.627
					c11.341,0,20.934-7.862,22.312-18.288l0.105-0.795l0.719-0.354c7.383-3.638,11.969-10.701,11.969-18.433
					c0-11.496-10.088-20.85-22.488-20.85c-0.147,0-0.295,0.005-0.442,0.01l-0.976,0.027l-0.457-0.716
					c-4.039-6.319-11.458-10.245-19.361-10.245c-12.396,0-22.481,9.354-22.481,20.85l0.024,1.374l-0.807,0.429
					c-6.994,3.718-11.339,10.656-11.339,18.108c0,11.498,10.085,20.852,22.481,20.852c0.656,0,1.344-0.031,2.104-0.096
					L198.668,195.843z" style="fill:#CCCCDE;"></path>
			</g>
			<path d="M228.767,143.008c-0.206,0-0.409,0.017-0.614,0.021
				c-3.354-5.25-8.944-9.111-15.558-10.438c5.229,1.313,9.633,4.492,12.339,8.729c0.175-0.004,2.579,4.146,2.757,4.146
				c11.368,0,16.655,6.123,16.655,16.724c0,7.356-2.757,12.055-9.291,15.27c-1.252,9.477-9.915,16.814-20.423,16.814
				c-6.396,0-12.106-2.726-15.884-6.98c-0.631,0.058-1.271,0.086-1.916,0.086c-11.368,0-20.299-5.389-20.299-15.979
				c0-7.14,3.188-10.646,9.002-14.89c-0.156-0.918-0.808-8.981,1.353-11.141c5.116-5.117,7.438-9.512,12.011-11.785
				c-8.979,3.23-15.354,11.351-15.354,20.855c0,0.157,0.012,0.312,0.016,0.479c-7.246,3.851-12.137,11.104-12.137,19.433
				c0,12.344,10.738,22.35,23.988,22.35c0.754,0,1.496-0.035,2.229-0.1c4.401,4.967,11.063,8.133,18.509,8.133
				c12.245,0,22.339-8.558,23.804-19.592c7.61-3.744,12.811-11.191,12.811-19.771C252.754,153.016,242.016,143.008,228.767,143.008z" style="opacity:0.1;fill:#6E6E96;enable-background:new    ;"></path>
			<g>
				<path d="M194.625,178.252c0,0,12.422,2.437,12.422,14.588c0,0,3.345,20.646-9.584,35.265h29.853
					c-0.296-0.41-26.068-34.853,2.615-55.318C212.435,182.783,194.625,178.252,194.625,178.252z" style="fill:#EDE3DA;"></path>
				<path d="M227.316,229.604h-33.182l2.205-2.494c12.316-13.925,9.26-33.831,9.228-34.03l-0.02-0.24
					c0-9.771-9.038-12.571-10.911-13.046c-0.25-0.055-0.381-0.088-0.381-0.088l0.659-2.926c0,0,0.146,0.027,0.408,0.093
					c0.999,0.219,4.533,0.903,9.434,0.903c6.121,0,15.328-1.092,24.431-6.293l1.615,2.523c-7.104,5.069-11.322,11.479-12.535,19.05
					c-2.58,16.11,8.92,32.337,10.239,34.135l1.754,2.388L227.316,229.604z M200.609,226.604h23.868
					c-3.632-5.641-11.453-19.782-9.172-34.022c0.872-5.444,3.125-10.331,6.725-14.609c-6.594,2.235-12.735,2.804-17.273,2.804
					c-0.601,0-1.183-0.01-1.742-0.026c2.908,2.41,5.498,6.182,5.533,11.972C208.82,194.534,211.171,212.371,200.609,226.604z" style="fill:#CCCCDE;"></path>
			</g>
			<g>
				<path d="M202.493,153.871" style="fill:#D57E58;"></path>
			</g>
			<path d="M222.485,178.219c0,0-18.847,24.334-4.356,49.882h9.188
				C227.316,228.1,208.189,201.369,222.485,178.219z" style="opacity:0.11;fill:#6E6E96;enable-background:new    ;"></path>
		</g>
		<g style="display:inline;">
			<g>
				<path d="M88.893,164.313c0-13.111-11.408-23.738-25.479-23.738c-0.225,0-0.438,0.008-0.653,0.014
					c-4.443-6.951-12.589-11.61-21.907-11.61c-14.066,0-25.479,10.629-25.479,23.733c0,0.17,0.011,0.336,0.015,0.51
					c-7.696,4.081-12.89,11.79-12.89,20.636c0,13.104,11.407,23.735,25.479,23.735c0.8,0,1.59-0.041,2.372-0.104
					c4.674,5.271,11.745,8.639,19.659,8.639c13.007,0,23.729-9.082,25.279-20.809C83.378,181.336,88.893,173.427,88.893,164.313z" style="fill:#D7F7E4;"></path>
				<path d="M50.01,207.628c-7.795,0-15.142-3.122-20.278-8.592c-0.622,0.038-1.201,0.057-1.753,0.057
					C13.103,199.093,1,187.772,1,173.857c0-8.776,4.911-16.939,12.878-21.515c0.211-13.744,12.231-24.864,26.976-24.864
					c9.146,0,17.763,4.423,22.703,11.597c14.811,0.072,26.836,11.366,26.836,25.238c0,9.149-5.242,17.507-13.734,21.991
					C74.628,198.516,63.319,207.628,50.01,207.628z M30.977,195.934l0.496,0.56c4.584,5.169,11.341,8.134,18.537,8.134
					c12.094,0,22.323-8.386,23.792-19.505l0.105-0.795l0.719-0.354c7.875-3.878,12.766-11.411,12.766-19.66
					c0-12.263-10.757-22.238-23.979-22.238c-0.166,0-0.325,0.005-0.483,0.01l-0.977,0.026l-0.457-0.715
					c-4.305-6.734-12.215-10.918-20.644-10.918c-13.222,0-23.979,9.974-23.979,22.233l0.035,1.401l-0.818,0.434
					C8.634,158.502,4,165.901,4,173.857c0,12.261,10.757,22.235,23.979,22.235c0.684,0,1.421-0.032,2.252-0.099L30.977,195.934z" style="fill:#CCCCDE;"></path>
			</g>
			<path d="M62.986,139.719c-0.219,0-0.435,0.011-0.647,0.017
				c-3.563-5.578-9.506-9.678-16.525-11.086c5.555,1.393,10.231,4.771,13.106,9.27c0.186-0.004,2.734,4.406,2.928,4.406
				c12.076,0,17.692,6.506,17.692,17.758c0,7.82-2.934,12.81-9.87,16.226c-1.33,10.062-10.531,17.854-21.693,17.854
				c-6.792,0-12.856-2.885-16.871-7.412c-0.67,0.062-1.348,0.092-2.035,0.092c-12.071,0-21.561-5.723-21.561-16.975
				c0-7.574,3.391-11.307,9.561-15.807c-0.165-0.979-0.85-9.554,1.438-11.836c5.435-5.438,7.896-10.104,12.758-12.521
				c-9.541,3.434-16.312,12.051-16.312,22.148c0,0.17,0.011,0.338,0.015,0.508c-7.696,4.084-12.89,11.791-12.89,20.637
				c0,13.107,11.403,23.736,25.479,23.736c0.801,0,1.591-0.039,2.373-0.104c4.674,5.273,11.745,8.644,19.659,8.644
				c13.006,0,23.728-9.082,25.273-20.813c8.094-3.979,13.604-11.891,13.604-21.002C88.466,150.345,77.058,139.719,62.986,139.719z" style="opacity:0.1;fill:#6E6E96;enable-background:new    ;"></path>
			<g>
				<path d="M26.723,177.152c0,0,13.193,2.584,13.193,15.496c0,0,3.553,21.932-10.184,37.451H61.44
					c-0.312-0.438-27.689-37.021,2.777-58.765C45.638,181.963,26.723,177.152,26.723,177.152z" style="fill:#EDE3DA;"></path>
				<path d="M61.44,231.599H26.402l2.208-2.494c13.086-14.785,9.86-36.006,9.826-36.219l-0.019-0.238
					c0-10.454-9.661-13.443-11.659-13.948c-0.266-0.059-0.404-0.094-0.404-0.094l0.658-2.926c0,0,0.154,0.029,0.432,0.099
					c1.061,0.231,4.817,0.959,10.025,0.959c6.515,0,16.315-1.163,26.004-6.705l1.616,2.522c-7.56,5.396-12.05,12.216-13.348,20.271
					c-2.755,17.104,9.479,34.432,10.883,36.351l1.745,2.386L61.44,231.599z M32.889,228.599h25.712
					c-3.807-5.892-12.269-21.059-9.822-36.249c0.944-5.861,3.401-11.114,7.333-15.698c-7.115,2.464-13.756,3.086-18.643,3.086
					c-0.732,0-1.437-0.014-2.11-0.037c3.159,2.539,6.022,6.566,6.058,12.829C41.701,194.417,44.23,213.474,32.889,228.599z" style="fill:#CCCCDE;"></path>
			</g>
			<g>
				<path d="M35.078,151.254" style="fill:#D57E58;"></path>
			</g>
			<path d="M56.313,177.117c0,0-20.02,25.848-4.633,52.982h9.764
				C61.444,230.1,41.129,201.707,56.313,177.117z" style="opacity:0.11;fill:#6E6E96;enable-background:new    ;"></path>
		</g>
	</g>
	<path d="M214.225,57.646h-14c-0.828,0-1.5-0.671-1.5-1.5s0.672-1.5,1.5-1.5h14c0.828,0,1.5,0.671,1.5,1.5
		S215.053,57.646,214.225,57.646z" style="fill:#FFFFFF;"></path>
	<path d="M228.225,57.646h-4c-0.828,0-1.5-0.671-1.5-1.5s0.672-1.5,1.5-1.5h4c0.828,0,1.5,0.671,1.5,1.5
		S229.053,57.646,228.225,57.646z" style="fill:#FFFFFF;"></path>
	<path d="M238.26,66.646h-18.035c-0.828,0-1.5-0.671-1.5-1.5s0.672-1.5,1.5-1.5h18.035
		c0.828,0,1.5,0.671,1.5,1.5S239.088,66.646,238.26,66.646z" style="fill:#FFFFFF;"></path>
	<path d="M209.225,66.646h-5c-0.828,0-1.5-0.671-1.5-1.5s0.672-1.5,1.5-1.5h5c0.828,0,1.5,0.671,1.5,1.5
		S210.053,66.646,209.225,66.646z" style="fill:#FFFFFF;"></path>
	<path d="M32.225,134.146h-9c-0.829,0-1.5-0.672-1.5-1.5s0.671-1.5,1.5-1.5h9c0.829,0,1.5,0.672,1.5,1.5
		S33.053,134.146,32.225,134.146z" style="fill:#FFFFFF;"></path>
	<path d="M17.725,134.146h-5.5c-0.829,0-1.5-0.672-1.5-1.5s0.671-1.5,1.5-1.5h5.5c0.829,0,1.5,0.672,1.5,1.5
		S18.553,134.146,17.725,134.146z" style="fill:#FFFFFF;"></path>
	<path d="M24.975,126.896h-15.5c-0.829,0-1.5-0.672-1.5-1.5c0-0.829,0.671-1.5,1.5-1.5h15.5
		c0.829,0,1.5,0.671,1.5,1.5C26.475,126.224,25.803,126.896,24.975,126.896z" style="fill:#FFFFFF;"></path>
	<path d="M36.725,126.896h-4.5c-0.829,0-1.5-0.672-1.5-1.5c0-0.829,0.671-1.5,1.5-1.5h4.5
		c0.829,0,1.5,0.671,1.5,1.5C38.225,126.224,37.553,126.896,36.725,126.896z" style="fill:#FFFFFF;"></path>
</g>
<g>
	<path d="M26.998,56c0.677-2.079,2.803-4.632,4.728-5.673l0.008-0.004c1.923-1.042,1.923-2.746,0-3.787
		l-0.008-0.005c-1.922-1.042-4.157-3.388-4.966-5.215c-0.808-1.826-2.131-1.826-2.937,0c-0.812,1.828-3.049,4.173-4.969,5.215
		l-0.01,0.005c-1.92,1.041-1.92,2.745,0,3.787l0.01,0.004c1.92,1.041,4.053,3.595,4.729,5.673l0.478,1.474
		c0.682,2.075,1.784,2.075,2.461,0L26.998,56z" style="fill:#FFB0B8;"></path>
</g>
<g>
	<path d="M13.234,191.22c0.615-1.891,2.546-4.206,4.292-5.15l0.012-0.005c1.741-0.944,1.741-2.493,0-3.438
		l-0.012-0.006c-1.746-0.938-3.771-3.076-4.508-4.73c-0.73-1.658-1.936-1.658-2.67,0c-0.729,1.654-2.763,3.792-4.509,4.73
		l-0.007,0.006c-1.746,0.943-1.746,2.492,0,3.438l0.007,0.005c1.746,0.944,3.677,3.267,4.292,5.15l0.435,1.334
		c0.615,1.891,1.621,1.891,2.235,0L13.234,191.22z" style="fill:#7FDCFF;"></path>
</g>
<g id="Layer_7_2_">
	<path d="M226.623,211.893c0.635-1.947,2.626-4.34,4.428-5.315l0.009-0.003c1.802-0.978,1.802-2.574,0-3.546
		l-0.009-0.008c-1.802-0.979-3.894-3.174-4.65-4.887c-0.758-1.709-2-1.709-2.759,0c-0.754,1.713-2.85,3.907-4.646,4.887
		l-0.012,0.008c-1.803,0.972-1.803,2.567,0,3.546l0.012,0.003c1.802,0.979,3.794,3.372,4.428,5.315l0.452,1.375
		c0.631,1.948,1.673,1.948,2.303,0L226.623,211.893z" style="fill:#DEC2FF;"></path>
</g>
<g>
	<path d="M203.98,113.427c0.669-2.056,2.771-4.575,4.67-5.603l0.011-0.004c1.896-1.032,1.896-2.717,0-3.744
		l-0.011-0.004c-1.896-1.03-4.104-3.347-4.902-5.152c-0.801-1.804-2.105-1.804-2.901,0c-0.801,1.808-3.009,4.122-4.904,5.152
		l-0.01,0.004c-1.896,1.027-1.896,2.711,0,3.744l0.01,0.004c1.896,1.028,3.996,3.55,4.67,5.603l0.476,1.448
		c0.67,2.061,1.762,2.061,2.429,0L203.98,113.427z" style="fill:#FFB0B8;"></path>
</g>
<g>
	<path d="M157.475,233.504c0.465-1.429,1.926-3.184,3.248-3.896l0.006-0.003c1.32-0.716,1.32-1.893,0-2.604
		l-0.006-0.003c-1.32-0.717-2.854-2.328-3.412-3.584c-0.555-1.255-1.465-1.255-2.019,0c-0.56,1.256-2.091,2.867-3.411,3.584
		L151.875,227c-1.319,0.715-1.319,1.891,0,2.604l0.007,0.003c1.32,0.715,2.781,2.47,3.248,3.896l0.329,1.014
		c0.466,1.43,1.226,1.43,1.688,0L157.475,233.504z" style="fill:#FFB0B8;"></path>
</g>
<g>
	<g>
		<g>
			<path d="M51.936,143.118H80.27c7.15,0,13,5.852,13,13.001v51.354c0,7.147-5.85,13.001-13,13.001H51.936" style="fill:#FFFFFF;"></path>
			<path d="M80.27,221.974H51.936v-3H80.27c6.341,0,11.5-5.159,11.5-11.501v-51.354
				c0-6.342-5.159-11.501-11.5-11.501H51.936v-3H80.27c7.995,0,14.5,6.505,14.5,14.501v51.354
				C94.77,215.469,88.265,221.974,80.27,221.974z" style="fill:#6E6E96;"></path>
		</g>
		<path d="M148.52,181.975l54.28-10.475c0,0,6.674,0.383,6.674,6.68c0,6.293-7.436,9.726-7.436,9.726
			l-55.188,26.136c0,0-17.305,7.567-30.675,3.727c-7.408-2.503-19.494-5.53-23.689-5.53l0.007-60.449c0,0,43.896,0,54.959,26.314
			c0,0,3.43,6.862-1.527,11.82s-12.396-2.479-12.396-2.479s-7.296-6.913-15.443-10.487" style="fill:#FFDFD1;"></path>
		<path d="M92.49,158.878c0,0,40.976-4.638,53.66,23.396
			c0,0,4.732-24.575-53.659-30.484L92.49,158.878z" style="opacity:0.43;fill:#FFFFFF;enable-background:new    ;"></path>
		<path d="M151.459,187.117l51.326-11.012
			c0,0,6.038-0.795,4.271,4.271c0,0,6.155-8.281-4.259-7.572s-51.341,8.677-51.341,8.677L151.459,187.117L151.459,187.117z" style="opacity:0.43;fill:#FFFFFF;enable-background:new    ;"></path>
		<path d="M124.784,220.531c-3.096,0-6.197-0.378-9.083-1.34c-7.314-2.471-19.296-5.453-23.215-5.453
			c-0.398,0-0.779-0.158-1.061-0.439s-0.439-0.663-0.439-1.061l0.007-60.449c0-0.828,0.672-1.5,1.5-1.5
			c0.456,0,11.312,0.038,23.716,3.34c16.633,4.428,27.916,12.689,32.625,23.894c0.043,0.084,0.559,1.14,0.925,2.723l52.791-8.922
			c0.198-0.027,3.849-0.502,6.31,1.644c1.403,1.223,2.114,2.977,2.114,5.214c0,7.17-7.968,10.931-8.307,11.088l-55.176,26.129
			C146.883,215.671,135.879,220.531,124.784,220.531z M93.986,210.819c5.473,0.519,16.381,3.403,22.669,5.528
			c12.13,4.039,29.408-3.597,29.582-3.675l55.16-26.122c0.076-0.036,6.577-3.128,6.577-8.37c0-1.345-0.352-2.308-1.076-2.944
			c-1.422-1.252-3.877-0.951-3.899-0.947l-52.874,8.937c0.022,2.436-0.662,5.281-3.14,7.759c-4.76,4.76-11.577,0.461-14.518-2.479
			c-0.042-0.039-7.183-6.751-14.985-10.174c-0.759-0.333-1.104-1.218-0.771-1.977c0.333-0.759,1.218-1.104,1.976-0.771
			c8.292,3.638,15.566,10.482,15.872,10.772c0.092,0.09,6.47,6.341,10.305,2.507c2.073-2.074,2.392-4.584,2.188-6.581
			c-0.004-0.019-0.007-0.037-0.011-0.057c-0.012-0.073-0.019-0.146-0.021-0.218c-0.237-1.854-0.896-3.206-0.91-3.233
			c-9.46-22.495-44.426-25.137-52.117-25.445L93.986,210.819z" style="fill:#6E6E96;"></path>
		<path d="M92.487,202.107c0,0,9.103-0.813,21.404,6.338
			c14.146,8.221,41.161-6.664,55.092-12.516c16.251-6.824,39.521-11.112,39.521-18.723c0-7.604,0.97,0.974,0.97,0.974
			s-1.409,7.214-8.771,10.278c-7.362,3.067-53.854,25.58-53.854,25.58s-16.998,8.671-32.118,3.247
			c-12.998-4.66-22.246-5.054-22.246-5.054L92.487,202.107z" style="opacity:0.15;fill:#966E6E;enable-background:new    ;"></path>
		<path d="M116.653,171.229c0,0-7.801,0.975-3.897,7.801
			c3.897,6.825,15.273,5.201,20.477,15.926c5.201,10.729,20.916-1.511,18.23-13.477l-2.939,0.496l-2.127-6.115
			c0,0,1.226,20.156-9.264,9.67C129.863,178.261,122.828,171.229,116.653,171.229z" style="opacity:0.15;fill:#966E6E;enable-background:new    ;"></path>
		<path d="M66.598,220.474c0,0,29.846-0.762,8.776-15.442
			c-8.587-5.984,17.109,10.726,17.109,2.926c0,0-2.29,12.52-8.235,12.52C78.3,220.475,66.598,220.474,66.598,220.474z" style="opacity:0.21;fill:#6E6E96;enable-background:new    ;"></path>
	</g>
	<path d="M64.992,216.158c0,3.533-2.894,6.424-6.427,6.424h-1.812c-3.533,0-6.423-2.891-6.423-6.424v-70.661
		c0-3.534,2.891-6.424,6.423-6.424h1.812c3.533,0,6.427,2.89,6.427,6.424V216.158z" style="fill:#FFFFFF;"></path>
	<path d="M58.566,224.082h-1.812c-4.369,0-7.923-3.555-7.923-7.924v-70.661c0-4.369,3.554-7.924,7.923-7.924
		h1.812c4.371,0,7.927,3.555,7.927,7.924v70.661C66.492,220.527,62.936,224.082,58.566,224.082z M56.753,140.573
		c-2.714,0-4.923,2.209-4.923,4.924v70.661c0,2.715,2.208,4.924,4.923,4.924h1.812c2.717,0,4.927-2.209,4.927-4.924v-70.661
		c0-2.715-2.21-4.924-4.927-4.924H56.753z" style="fill:#6E6E96;"></path>
	<path d="M58.167,213.348h-1.815c-3.533,0-6.424-2.894-6.424-6.428
		v9.639c0,3.533,2.891,6.424,6.424,6.424h1.815c3.533,0,6.424-2.891,6.424-6.424v-9.639C64.591,210.458,61.7,213.348,58.167,213.348
		z" style="opacity:0.15;fill:#6E6E96;enable-background:new    ;"></path>
</g>
<g>
	<g>
		<circle r="19.968" cy="108.626" cx="78.046" style="fill:#FFE2D6;"></circle>
		<path d="M78.046,130.094c-11.837,0-21.468-9.63-21.468-21.468s9.63-21.468,21.468-21.468
			s21.468,9.63,21.468,21.468S89.884,130.094,78.046,130.094z M78.046,90.158c-10.183,0-18.468,8.285-18.468,18.468
			s8.285,18.468,18.468,18.468s18.468-8.285,18.468-18.468S88.229,90.158,78.046,90.158z" style="fill:#CCCCDE;"></path>
	</g>
	<g>
		<circle r="14.204" cy="108.497" cx="78.175" style="fill:#FFF6D6;"></circle>
		<path d="M78.175,124.201c-8.659,0-15.704-7.045-15.704-15.704s7.045-15.704,15.704-15.704
			s15.704,7.045,15.704,15.704S86.834,124.201,78.175,124.201z M78.175,95.793c-7.005,0-12.704,5.699-12.704,12.704
			s5.699,12.704,12.704,12.704s12.704-5.699,12.704-12.704S85.18,95.793,78.175,95.793z" style="fill:#CCCCDE;"></path>
	</g>
</g>
<g>
	<circle r="46.999" cy="93.278" cx="131.691" style="fill:#FFE999;"></circle>
	<path d="M174.627,85.12c2.547,19.711-8.318,39.433-27.596,47.272
		c-16.624,6.76-34.934,2.823-47.312-8.579c11.716,14.041,31.579,19.585,49.426,12.326C169.506,127.86,180.115,105.818,174.627,85.12
		z" style="opacity:0.63;fill:#EBA565;enable-background:new    ;"></path>
	<path d="M131.855,89.235c-2.289,0-4.153-1.864-4.153-4.154c0-1.108,0.433-2.153,1.218-2.938
		c0.782-0.786,1.828-1.219,2.937-1.219c1.11,0,2.156,0.433,2.939,1.219c0.786,0.784,1.22,1.827,1.22,2.938h7.157
		c0-3.021-1.176-5.864-3.313-8c-1.265-1.265-2.774-2.188-4.422-2.737v-5.426h-7.159v5.432c-4.487,1.502-7.733,5.743-7.733,10.73
		c0,6.239,5.076,11.313,11.312,11.313c1.111,0,2.156,0.433,2.941,1.218c0.785,0.786,1.218,1.831,1.218,2.94
		c0,2.291-1.865,4.154-4.157,4.154c-2.291,0-4.153-1.864-4.153-4.154h-7.159c0,4.987,3.245,9.229,7.733,10.731v6.225h7.159v-6.225
		c4.489-1.5,7.736-5.744,7.736-10.731c0-3.022-1.178-5.864-3.313-8.004C137.72,90.412,134.878,89.235,131.855,89.235z" style="fill:#6E6E96;"></path>
	<path d="M89.179,102.436c-2.549-19.711,8.318-39.433,27.594-47.271
		c16.623-6.762,34.933-2.826,47.312,8.579c-11.716-14.042-31.58-19.583-49.426-12.325C94.301,59.698,83.693,81.739,89.179,102.436z" style="opacity:0.61;fill:#FFFFFF;enable-background:new    ;"></path>
	<g>
		<g>
			<rect height="7.939" width="3.746" style="fill:#DB9D00;" y="48.245" x="130.046"></rect>
		</g>
		<g>
			
				<rect height="3.748" width="7.938" style="fill:#DB9D00;" transform="matrix(0.2588 0.9659 -0.9659 0.2588 141.6487 -77.358)" y="51.748" x="117.263"></rect>
		</g>
		<g>
			
				<rect height="3.749" width="7.94" style="fill:#DB9D00;" transform="matrix(0.5 0.866 -0.866 0.5 105.65 -67.4878)" y="55.876" x="107.3"></rect>
		</g>
		<g>
			
				<rect height="3.748" width="7.938" style="fill:#DB9D00;" transform="matrix(0.7071 0.7071 -0.7071 0.7071 75.5598 -53.8086)" y="62.43" x="98.763"></rect>
		</g>
		<g>
			
				<rect height="3.747" width="7.939" style="fill:#DB9D00;" transform="matrix(0.866 0.5 -0.5 0.866 49.3185 -38.3232)" y="70.986" x="92.195"></rect>
		</g>
		<g>
			
				<rect height="3.748" width="7.938" style="fill:#DB9D00;" transform="matrix(0.9659 0.2588 -0.2588 0.9659 24.5705 -21.0023)" y="80.938" x="88.078"></rect>
		</g>
		<g>
			<rect height="3.748" width="7.938" style="fill:#DB9D00;" y="91.624" x="86.665"></rect>
		</g>
		<g>
			
				<rect height="3.748" width="7.939" style="fill:#DB9D00;" transform="matrix(0.9659 -0.2588 0.2588 0.9659 -23.8282 27.3691)" y="102.316" x="88.071"></rect>
		</g>
		<g>
			
				<rect height="3.748" width="7.939" style="fill:#DB9D00;" transform="matrix(0.8661 -0.4999 0.4999 0.8661 -44.1768 63.3594)" y="112.26" x="92.201"></rect>
		</g>
		<g>
			
				<rect height="3.748" width="7.938" style="fill:#DB9D00;" transform="matrix(0.7071 -0.7071 0.7071 0.7071 -56.6679 108.5759)" y="120.818" x="98.76"></rect>
		</g>
		<g>
			
				<rect height="3.747" width="7.939" style="fill:#DB9D00;" transform="matrix(0.4999 -0.8661 0.8661 0.4999 -56.297 161.0125)" y="127.381" x="107.304"></rect>
		</g>
		<g>
			
				<rect height="3.749" width="7.939" style="fill:#DB9D00;" transform="matrix(0.2587 -0.966 0.966 0.2587 -38.9562 215.9736)" y="131.493" x="117.263"></rect>
		</g>
		<g>
			<rect height="7.938" width="3.746" style="fill:#DB9D00;" y="130.813" x="130.046"></rect>
		</g>
		<g>
			
				<rect height="3.75" width="7.94" style="fill:#DB9D00;" transform="matrix(-0.2588 -0.9659 0.9659 -0.2588 50.6795 305.6366)" y="131.498" x="138.638"></rect>
		</g>
		<g>
			
				<rect height="3.749" width="7.938" style="fill:#DB9D00;" transform="matrix(-0.5001 -0.866 0.866 -0.5001 116.9105 326.0039)" y="127.383" x="148.584"></rect>
		</g>
		<g>
			
				<rect height="3.749" width="7.938" style="fill:#DB9D00;" transform="matrix(-0.7069 -0.7073 0.7073 -0.7069 188.2389 323.3637)" y="120.807" x="157.146"></rect>
		</g>
		<g>
			
				<rect height="3.749" width="7.94" style="fill:#DB9D00;" transform="matrix(-0.866 -0.5001 0.5001 -0.866 255.7856 296.8506)" y="112.276" x="163.701"></rect>
		</g>
		<g>
			
				<rect height="3.748" width="7.94" style="fill:#DB9D00;" transform="matrix(-0.9659 -0.2589 0.2589 -0.9659 310.7686 249.2892)" y="102.307" x="167.83"></rect>
		</g>
		<g>
			<rect height="3.748" width="7.938" style="fill:#DB9D00;" y="91.625" x="169.235"></rect>
		</g>
		<g>
			
				<rect height="3.747" width="7.942" style="fill:#DB9D00;" transform="matrix(-0.966 0.2585 -0.2585 -0.966 359.1595 118.4085)" y="80.94" x="167.825"></rect>
		</g>
		<g>
			
				<rect height="3.749" width="7.939" style="fill:#DB9D00;" transform="matrix(-0.8661 0.4999 -0.4999 -0.8661 349.3049 52.1144)" y="70.969" x="163.703"></rect>
		</g>
		<g>
			
				<rect height="3.747" width="7.94" style="fill:#DB9D00;" transform="matrix(-0.7072 0.707 -0.707 -0.7072 320.5034 -4.1218)" y="62.436" x="157.135"></rect>
		</g>
		<g>
			
				<rect height="3.748" width="7.94" style="fill:#DB9D00;" transform="matrix(-0.5001 0.866 -0.866 -0.5001 278.8574 -45.4991)" y="55.867" x="148.592"></rect>
		</g>
		<g>
			
				<rect height="3.746" width="7.942" style="fill:#DB9D00;" transform="matrix(-0.2588 0.9659 -0.9659 -0.2588 231.3113 -70.2411)" y="51.749" x="138.633"></rect>
		</g>
	</g>
	<path d="M131.692,141.777c-26.743,0-48.499-21.756-48.499-48.499s21.756-48.499,48.499-48.499
		c26.742,0,48.499,21.756,48.499,48.499S158.434,141.777,131.692,141.777z M131.692,47.779c-25.088,0-45.499,20.411-45.499,45.499
		s20.411,45.499,45.499,45.499c25.088,0,45.499-20.411,45.499-45.499S156.78,47.779,131.692,47.779z" style="fill:#6E6E96;"></path>
</g>
<path d="M112.488,33.573c-0.829,0-1.5-0.671-1.5-1.5v-19c0-0.829,0.671-1.5,1.5-1.5s1.5,0.671,1.5,1.5v19
	C113.988,32.902,113.316,33.573,112.488,33.573z" style="fill:#6E6E96;"></path>
<path d="M128.988,31.073c-0.829,0-1.5-0.671-1.5-1.5v-40.5c0-0.829,0.671-1.5,1.5-1.5
	c0.828,0,1.5,0.671,1.5,1.5v40.5C130.488,30.402,129.816,31.073,128.988,31.073z" style="fill:#6E6E96;"></path>
<path d="M148.488,33.573c-0.828,0-1.5-0.671-1.5-1.5v-12c0-0.829,0.672-1.5,1.5-1.5s1.5,0.671,1.5,1.5v12
	C149.988,32.902,149.316,33.573,148.488,33.573z" style="fill:#6E6E96;"></path>
<g>
	<g>
		<circle r="19.968" cy="141.82" cx="198.155" style="fill:#FFE2D6;"></circle>
		<path d="M198.155,163.288c-11.837,0-21.468-9.631-21.468-21.468s9.631-21.468,21.468-21.468
			c11.838,0,21.469,9.631,21.469,21.468S209.992,163.288,198.155,163.288z M198.155,123.352c-10.184,0-18.468,8.284-18.468,18.468
			s8.284,18.468,18.468,18.468s18.469-8.284,18.469-18.468S208.338,123.352,198.155,123.352z" style="fill:#CCCCDE;"></path>
	</g>
	<g>
		<circle r="14.204" cy="141.691" cx="198.283" style="fill:#FFF6D6;"></circle>
		<path d="M198.283,157.395c-8.659,0-15.704-7.045-15.704-15.704s7.045-15.704,15.704-15.704
			s15.703,7.045,15.703,15.704S206.943,157.395,198.283,157.395z M198.283,128.987c-7.005,0-12.704,5.699-12.704,12.704
			s5.699,12.704,12.704,12.704s12.703-5.699,12.703-12.704S205.288,128.987,198.283,128.987z" style="fill:#CCCCDE;"></path>
	</g>
</g>
<path d="M131.302,131.716c-21.221,0-38.486-17.265-38.486-38.485c0-21.221,17.265-38.486,38.486-38.486
	c21.222,0,38.486,17.265,38.486,38.486C169.788,114.451,152.524,131.716,131.302,131.716z M131.302,57.744
	c-19.567,0-35.486,15.919-35.486,35.486c0,19.567,15.919,35.485,35.486,35.485s35.486-15.918,35.486-35.485
	C166.788,73.663,150.869,57.744,131.302,57.744z" style="fill:#6E6E96;"></path>
</svg>
