<svg xmlns:xlink="http://www.w3.org/1999/xlink" height="980" xmlns="http://www.w3.org/2000/svg" xmlns:ev="http://www.w3.org/2001/xml-events" width="1506" viewBox="0 0 1506 980"><defs/><g transform="translate(5.5,5.5)" id="page4"><rect height="970" x="0" fill="#ffffff" y="0" width="1496"/><g transform="translate(39.00,76.00)" id="group1"><g id="group2"><path fill="none" d="M.0,.0L1418.0,.0L1418.0,323.2L.0,323.2L.0,.0z" id="shape3" stroke="#ebebeb" stroke-width="2"/><g transform="matrix(0.00,-1.00,1.00,0.00,-0.0,323.2)" id="shape4"><path fill="#eff4f8" d="M.0,.0L323.2,.0L323.2,56.7L.0,56.7L.0,.0z" fill-rule="nonzero" stroke="#ebebeb" stroke-width="2"/><text xml:space="preserve" style="fill:#454545;font-family:Microsoft YaHei;font-size:12.00pt"><tspan x="113.6" y="35.0">精品销售流程</tspan></text></g></g><g transform="translate(0.00,323.20)" id="group5"><path fill="none" d="M.0,.0L1418.0,.0L1418.0,148.7L.0,148.7L.0,.0z" id="shape6" stroke="#ebebeb" stroke-width="2"/><g transform="matrix(0.00,-1.00,1.00,0.00,0.0,148.7)" id="shape7"><path fill="#eff4f8" d="M.0,.0L148.7,.0L148.7,56.7L.0,56.7L.0,.0z" fill-rule="nonzero" stroke="#ebebeb" stroke-width="2"/><text xml:space="preserve" style="fill:#454545;font-family:Microsoft YaHei;font-size:12.00pt"><tspan x="42.4" y="35.0">加装环节</tspan></text></g></g><g transform="translate(0.00,471.92)" id="group8"><path fill="none" d="M.0,.0L1418.0,.0L1418.0,197.5L.0,197.5L.0,.0z" id="shape9" stroke="#ebebeb" stroke-width="2"/><g transform="matrix(0.00,-1.00,1.00,0.00,-0.0,197.5)" id="shape10"><path fill="#eff4f8" d="M.0,.0L197.5,.0L197.5,56.7L.0,56.7L.0,.0z" fill-rule="nonzero" stroke="#ebebeb" stroke-width="2"/><text xml:space="preserve" style="fill:#454545;font-family:Microsoft YaHei;font-size:12.00pt"><tspan x="50.7" y="35.0">加装结算环节</tspan></text></g></g><g transform="translate(0.00,669.37)" id="group11"><path fill="none" d="M.0,.0L1418.0,.0L1418.0,207.5L.0,207.5L.0,.0z" id="shape12" stroke="#ebebeb" stroke-width="2"/><g transform="matrix(0.00,-1.00,1.00,0.00,-0.0,207.5)" id="shape13"><path fill="#eff4f8" d="M.0,.0L207.5,.0L207.5,56.7L.0,56.7L.0,.0z" fill-rule="nonzero" stroke="#ebebeb" stroke-width="2"/><text xml:space="preserve" style="fill:#454545;font-family:Microsoft YaHei;font-size:12.00pt"><tspan x="55.8" y="35.0">财务处理环节</tspan></text></g></g></g><g transform="translate(128.00,106.00)" id="shape14"><path fill="#eff4f8" d="M22.0,44.0L78.0,44.0L78.0,44.0C90.2,44.0,100.0,34.2,100.0,22.0C100.0,9.8,90.2,.0,78.0,.0L22.0,.0L22.0,.0C9.8,.0,.0,9.8,.0,22.0C.0,34.2,9.8,44.0,22.0,44.0z" fill-rule="nonzero" stroke="#305c74" stroke-width="2"/><text xml:space="preserve" style="fill:#454545;font-family:Microsoft YaHei;font-size:10.00pt"><tspan x="37.0" y="27.5">开始</tspan></text></g><g transform="translate(39.00,24.00)" id="shape15"><path fill="#eff4f8" d="M.0,.0L1418.0,.0L1418.0,52.0L.0,52.0L.0,.0z" fill-rule="nonzero" stroke="#ebebeb" stroke-width="2"/><text xml:space="preserve" style="fill:#454545;font-family:Microsoft YaHei;font-size:12.00pt;font-weight:bold"><tspan x="4.0" y="32.0">EAS系统精品加装（后加装-外包只包工时）流程（Auto4S-DM-WO-05）</tspan></text></g><g transform="translate(505.00,414.79)" id="shape16"><path fill="#d2e7f9" d="M136.0,60.0L136.0,.0L.0,.0L.0,60.0L136.0,60.0z" fill-rule="nonzero" stroke="#0070c0" stroke-width="2"/><text xml:space="preserve" style="fill:#454545;font-family:Microsoft YaHei;font-size:10.00pt"><tspan x="9.5" y="26.0">记录供应商、施工项</tspan><tspan x="16.0" y="45.0">目、方式、时间等</tspan></text></g><g transform="translate(505.00,595.76)" id="shape17"><path fill="#d2e7f9" d="M136.0,60.0L136.0,.0L.0,.0L.0,60.0L136.0,60.0z" fill-rule="nonzero" stroke="#0070c0" stroke-width="2"/><text xml:space="preserve" style="fill:#454545;font-family:Microsoft YaHei;font-size:10.00pt"><tspan x="16.0" y="26.0">按约定与施工方对</tspan><tspan x="9.5" y="45.0">账，施工方开具发票</tspan></text></g><g transform="translate(858.00,838.00)" id="shape18"><path fill="#eef7f7" d="M7.5,.0L128.5,.0L128.5,.0C132.6,.0,136.0,13.4,136.0,30.0C136.0,46.6,132.6,60.0,128.5,60.0L7.5,60.0L7.5,60.0C3.4,60.0,.0,46.6,.0,30.0C.0,13.4,3.4,.0,7.5,.0z" fill-rule="nonzero"/><path fill="none" d="M7.5,.0L128.5,.0L128.5,.0C132.6,.0,136.0,13.4,136.0,30.0C136.0,46.6,132.6,60.0,128.5,60.0L7.5,60.0L7.5,60.0C3.4,60.0,.0,46.6,.0,30.0C.0,13.4,3.4,.0,7.5,.0zM128.5,.0C124.4,.0,121.0,13.4,121.0,30.0C121.0,46.6,124.4,60.0,128.5,60.0" stroke="#226e6d" stroke-width="2"/><text xml:space="preserve" style="fill:#454545;font-family:Microsoft YaHei;font-size:10.00pt"><tspan x="38.3" y="26.0">结算记录</tspan><tspan x="18.8" y="45.0">应付单与付款单</tspan></text></g><g transform="translate(1304.00,799.70)" id="shape19"><path fill="#fbf2ef" d="M136.0,60.0L136.0,.0L.0,.0L.0,60.0L136.0,60.0z" fill-rule="nonzero" stroke="#0070c0" stroke-width="2"/><text xml:space="preserve" style="fill:#454545;font-family:Microsoft YaHei;font-size:10.00pt"><tspan x="42.0" y="26.0">生成凭证</tspan><tspan x="42.0" y="45.0">财务记账</tspan></text></g><g transform="translate(1322.00,106.00)" id="shape20"><path fill="#eff4f8" d="M22.0,44.0L78.0,44.0L78.0,44.0C90.2,44.0,100.0,34.2,100.0,22.0C100.0,9.8,90.2,.0,78.0,.0L22.0,.0L22.0,.0C9.8,.0,.0,9.8,.0,22.0C.0,34.2,9.8,44.0,22.0,44.0z" fill-rule="nonzero" stroke="#305c74" stroke-width="2"/><text xml:space="preserve" style="fill:#454545;font-family:Microsoft YaHei;font-size:10.00pt"><tspan x="37.0" y="27.5">结束</tspan></text></g><g transform="translate(505.00,474.92)" id="shape21"><path fill="#eef7f7" d="M.0,52.5L.0,.0L136.0,.0L136.0,52.5L136.0,52.5C125.7,47.7,114.2,45.0,102.0,45.0C89.8,45.0,78.3,47.7,68.0,52.5L68.0,52.5C57.7,57.3,46.2,60.0,34.0,60.0C21.8,60.0,10.3,57.3,.0,52.5z" fill-rule="nonzero" stroke="#226e6d" stroke-width="2"/><text xml:space="preserve" style="fill:#454545;font-family:Microsoft YaHei;font-size:10.00pt"><tspan x="35.5" y="28.0">精品加装单</tspan></text></g><g transform="translate(505.00,655.76)" id="shape22"><path fill="#eef7f7" d="M.0,52.5L.0,.0L136.0,.0L136.0,52.5L136.0,52.5C125.7,47.7,114.2,45.0,102.0,45.0C89.8,45.0,78.3,47.7,68.0,52.5L68.0,52.5C57.7,57.3,46.2,60.0,34.0,60.0C21.8,60.0,10.3,57.3,.0,52.5z" fill-rule="nonzero" stroke="#226e6d" stroke-width="2"/><text xml:space="preserve" style="fill:#454545;font-family:Microsoft YaHei;font-size:10.00pt"><tspan x="48.5" y="28.0">应付单</tspan></text></g><g transform="translate(1304.00,859.70)" id="shape23"><path fill="#eef7f7" d="M.0,52.5L.0,.0L136.0,.0L136.0,52.5L136.0,52.5C125.7,47.7,114.2,45.0,102.0,45.0C89.8,45.0,78.3,47.7,68.0,52.5L68.0,52.5C57.7,57.3,46.2,60.0,34.0,60.0C21.8,60.0,10.3,57.3,.0,52.5z" fill-rule="nonzero" stroke="#226e6d" stroke-width="2"/><text xml:space="preserve" style="fill:#454545;font-family:Microsoft YaHei;font-size:10.00pt"><tspan x="55.0" y="28.0">凭证</tspan></text></g><g transform="translate(228.00,204.00)" id="shape24"><path fill="none" d="" stroke="#226e6d" stroke-width="2"/></g><g transform="translate(310.00,98.00)" id="shape25"><path fill="#eef7f7" d="M136.0,60.0L136.0,.0L.0,.0L.0,60.0L136.0,60.0z" fill-rule="nonzero"/><path fill="none" d="M136.0,60.0L136.0,.0L.0,.0L.0,60.0L136.0,60.0zM15.0,60.0L15.0,.0L15.0,60.0zM121.0,60.0L121.0,.0L121.0,60.0z" stroke="#226e6d" stroke-width="2"/><text xml:space="preserve" style="fill:#454545;font-family:Microsoft YaHei;font-size:10.00pt"><tspan x="29.0" y="35.5">整车销售流程</tspan></text></g><g transform="matrix(0.00,1.00,-1.00,0.00,413.4,310.2)" id="shape26"><path fill="none" d="M36.5,.0L134.6,-91.6M73.0,51.1L73.0,.0L.0,.0L.0,51.1" stroke="#f4b5be" stroke-width="2"/><text xml:space="preserve" style="fill:#454545;font-family:Microsoft YaHei;font-size:10.00pt" transform="matrix(0.00,-1.00,1.00,0.00,36.5,36.5)"><tspan x="-88.0" y="-13.5">加装方式：加装包外</tspan><tspan x="-88.0" y="5.5">外包内容：</tspan><tspan x="-23.0" style="fill:#ff0000">只包工时</tspan><tspan x="-88.0" y="24.5">供应商：具体施工方</tspan></text></g><g transform="translate(505.00,815.70)" id="shape27"><path fill="#d2e7f9" d="M136.0,60.0L136.0,.0L.0,.0L.0,60.0L136.0,60.0z" fill-rule="nonzero" stroke="#0070c0" stroke-width="2"/><text xml:space="preserve" style="fill:#454545;font-family:Microsoft YaHei;font-size:10.00pt"><tspan x="22.5" y="26.0">关联生成及维护</tspan><tspan x="48.5" y="45.0">付款单</tspan></text></g><g transform="translate(505.00,875.70)" id="shape28"><path fill="#eef7f7" d="M.0,52.5L.0,.0L136.0,.0L136.0,52.5L136.0,52.5C125.7,47.7,114.2,45.0,102.0,45.0C89.8,45.0,78.3,47.7,68.0,52.5L68.0,52.5C57.7,57.3,46.2,60.0,34.0,60.0C21.8,60.0,10.3,57.3,.0,52.5z" fill-rule="nonzero" stroke="#226e6d" stroke-width="2"/><text xml:space="preserve" style="fill:#454545;font-family:Microsoft YaHei;font-size:10.00pt"><tspan x="48.5" y="28.0">付款单</tspan></text></g><g transform="translate(573.00,527.42)" id="shape29"><path fill="none" d="M.0,.0L.0,62.1" stroke="#226e6d" stroke-width="2"/><path stroke-linecap="round" fill="#226e6d" d="M.0,68.3L4.2,61.0C3.0,61.7,1.5,62.1,.0,62.1C-1.5,62.1,-3.0,61.7,-4.2,61.0L.0,68.3" stroke-width="1" stroke="#226e6d"/><rect height="19.0" x="-31.5" fill="#ffffff" y="21.4" width="65.0"/><rect height="19.0" x="-25.0" fill="#ffffff" y="40.4" width="52.0"/><text xml:space="preserve" style="fill:#454545;font-family:Microsoft YaHei;font-size:10.00pt"><tspan x="-31.5" y="36.4">若干加装单</tspan><tspan x="-25.0" y="55.4">关联生成</tspan></text></g><g transform="matrix(0.00,1.00,-1.00,0.00,439.0,594.4)" id="shape30"><path fill="none" d="M55.5,.0L67.4,-66.0M111.0,73.1L111.0,.0L.0,.0L.0,73.1" stroke="#f4b5be" stroke-width="2"/><text xml:space="preserve" style="fill:#454545;font-family:Microsoft YaHei;font-size:10.00pt" transform="matrix(0.00,-1.00,1.00,0.00,55.5,55.5)"><tspan x="-129.5" y="-32.5">1、结合实际，是一单一结，还</tspan><tspan x="-129.5" y="-13.5">是若干单据一起结，都支持；</tspan><tspan x="-129.5" y="5.5">2、加装项目的工时费用即为向</tspan><tspan x="-129.5" y="24.5">供应商支付的含税金额；</tspan><tspan x="-129.5" y="43.5">3、加装项目标记为只包工时。</tspan></text></g><g transform="translate(735.00,808.70)" id="shape31"><path fill="#eef7f7" d="M136.0,53.0L136.0,7.0C136.0,3.1,132.9,.0,129.0,.0L7.0,.0C3.1,.0,.0,3.1,.0,7.0L.0,53.0C.0,56.9,3.1,60.0,7.0,60.0L129.0,60.0C132.9,60.0,136.0,56.9,136.0,53.0z" fill-rule="nonzero" stroke="#226e6d" stroke-width="2"/><text xml:space="preserve" style="fill:#454545;font-family:Microsoft YaHei;font-size:10.00pt"><tspan x="22.5" y="26.0">系统或手工结算</tspan><tspan x="29.0" y="45.0">采购付款结算</tspan></text></g><g transform="translate(1372.00,799.70)" id="shape32"><path fill="none" d="M.0,.0L.0,-643.5" stroke="#226e6d" stroke-width="2"/><path stroke-linecap="round" fill="#226e6d" d="M.0,-649.7L-4.2,-642.3C-3.0,-643.1,-1.5,-643.5,.0,-643.5C1.5,-643.5,3.0,-643.1,4.2,-642.3L.0,-649.7" stroke-width="1" stroke="#226e6d"/></g><g transform="translate(228.00,128.00)" id="shape33"><path fill="none" d="M.0,.0L75.8,.0" stroke="#226e6d" stroke-width="2"/><path stroke-linecap="round" fill="#226e6d" d="M82.0,.0L74.7,-4.2C75.4,-3.0,75.8,-1.5,75.8,.0C75.8,1.5,75.4,3.0,74.7,4.2L82.0,.0" stroke-width="1" stroke="#226e6d"/><rect height="19.0" x="14.0" fill="#ffffff" y="-9.5" width="52.0"/><text xml:space="preserve" style="fill:#454545;font-family:Microsoft YaHei;font-size:10.00pt"><tspan x="14.0" y="5.5">随车销售</tspan></text></g><g transform="translate(178.00,150.00)" id="shape34"><path fill="none" d="M.0,.0L.0,47.0L320.8,47.0" stroke="#226e6d" stroke-width="2"/><path stroke-linecap="round" fill="#226e6d" d="M327.0,47.0L319.7,42.8C320.4,44.0,320.8,45.5,320.8,47.0C320.8,48.5,320.4,50.0,319.7,51.2L327.0,47.0" stroke-width="1" stroke="#226e6d"/><rect height="19.0" x="83.5" fill="#ffffff" y="37.5" width="117.0"/><text xml:space="preserve" style="fill:#454545;font-family:Microsoft YaHei;font-size:10.00pt"><tspan x="83.5" y="52.5">单独销售，直接新增</tspan></text></g><g transform="translate(446.00,128.00)" id="shape35"><path fill="none" d="M.0,.0L127.0,.0L127.0,32.8" stroke="#226e6d" stroke-width="2"/><path stroke-linecap="round" fill="#226e6d" d="M127.0,39.0L131.2,31.7C130.0,32.4,128.5,32.8,127.0,32.8C125.5,32.8,124.0,32.4,122.8,31.7L127.0,39.0" stroke-width="1" stroke="#226e6d"/><rect height="19.0" x="64.1" fill="#ffffff" y="-9.5" width="52.0"/><text xml:space="preserve" style="fill:#454545;font-family:Microsoft YaHei;font-size:10.00pt"><tspan x="64.1" y="5.5">关联生成</tspan></text></g><g transform="translate(505.00,167.00)" id="shape36"><path fill="#d2e7f9" d="M136.0,60.0L136.0,.0L.0,.0L.0,60.0L136.0,60.0z" fill-rule="nonzero" stroke="#0070c0" stroke-width="2"/><text xml:space="preserve" style="fill:#454545;font-family:Microsoft YaHei;font-size:10.00pt"><tspan x="55.0" y="26.0">维护</tspan><tspan x="22.5" y="45.0">精品配件销售单</tspan></text></g><g transform="translate(505.00,227.13)" id="shape37"><path fill="#eef7f7" d="M.0,52.5L.0,.0L136.0,.0L136.0,52.5L136.0,52.5C125.7,47.7,114.2,45.0,102.0,45.0C89.8,45.0,78.3,47.7,68.0,52.5L68.0,52.5C57.7,57.3,46.2,60.0,34.0,60.0C21.8,60.0,10.3,57.3,.0,52.5z" fill-rule="nonzero" stroke="#226e6d" stroke-width="2"/><text xml:space="preserve" style="fill:#454545;font-family:Microsoft YaHei;font-size:10.00pt"><tspan x="22.5" y="28.0">精品配件销售单</tspan></text></g><g transform="translate(735.00,81.00)" id="shape38"><path fill="#d2e7f9" d="M136.0,60.0L136.0,.0L.0,.0L.0,60.0L136.0,60.0z" fill-rule="nonzero" stroke="#0070c0" stroke-width="2"/><text xml:space="preserve" style="fill:#454545;font-family:Microsoft YaHei;font-size:10.00pt"><tspan x="42.0" y="26.0">精品收款</tspan><tspan x="9.5" y="45.0">关联生成前台收款单</tspan></text></g><g transform="translate(735.00,141.13)" id="shape39"><path fill="#eef7f7" d="M.0,52.5L.0,.0L136.0,.0L136.0,52.5L136.0,52.5C125.7,47.7,114.2,45.0,102.0,45.0C89.8,45.0,78.3,47.7,68.0,52.5L68.0,52.5C57.7,57.3,46.2,60.0,34.0,60.0C21.8,60.0,10.3,57.3,.0,52.5z" fill-rule="nonzero" stroke="#226e6d" stroke-width="2"/><text xml:space="preserve" style="fill:#454545;font-family:Microsoft YaHei;font-size:10.00pt"><tspan x="35.5" y="28.0">前台收款单</tspan></text></g><g transform="translate(119.00,406.86)" id="shape40"><path fill="#eef7f7" d="M117.0,76.0L136.0,.0L19.0,.0L.0,76.0L117.0,76.0z" fill-rule="nonzero" stroke="#226e6d" stroke-width="2"/><text xml:space="preserve" style="fill:#454545;font-family:Microsoft YaHei;font-size:10.00pt"><tspan x="29.0" y="24.5">设置只包工时</tspan><tspan x="29.0" y="43.5">的加装项目及</tspan><tspan x="42.0" y="62.5">结算价格</tspan></text></g><g transform="translate(573.00,279.63)" id="shape41"><path fill="none" d="M.0,.0L.0,129.0" stroke="#226e6d" stroke-width="2"/><path stroke-linecap="round" fill="#226e6d" d="M.0,135.2L4.2,127.8C3.0,128.5,1.5,129.0,.0,129.0C-1.5,129.0,-3.0,128.5,-4.2,127.8L.0,135.2" stroke-width="1" stroke="#226e6d"/><rect height="19.0" x="-96.5" fill="#ffffff" y="35.1" width="195.0"/><rect height="19.0" x="-25.0" fill="#ffffff" y="54.1" width="52.0"/><text xml:space="preserve" style="fill:#454545;font-family:Microsoft YaHei;font-size:10.00pt"><tspan x="-96.5" y="50.1">必须勾选需要安装、必须要有车辆</tspan><tspan x="-25.0" y="69.1">关联生成</tspan></text></g><g transform="translate(886.00,192.94)" id="shape42"><path fill="#d2e7f9" d="M136.0,60.0L136.0,.0L.0,.0L.0,60.0L136.0,60.0z" fill-rule="nonzero" stroke="#0070c0" stroke-width="2"/><text xml:space="preserve" style="fill:#454545;font-family:Microsoft YaHei;font-size:10.00pt"><tspan x="42.0" y="26.0">精品出库</tspan><tspan x="16.0" y="45.0">关联生成销售库单</tspan></text></g><g transform="translate(886.00,253.06)" id="shape43"><path fill="#eef7f7" d="M.0,52.5L.0,.0L136.0,.0L136.0,52.5L136.0,52.5C125.7,47.7,114.2,45.0,102.0,45.0C89.8,45.0,78.3,47.7,68.0,52.5L68.0,52.5C57.7,57.3,46.2,60.0,34.0,60.0C21.8,60.0,10.3,57.3,.0,52.5z" fill-rule="nonzero" stroke="#226e6d" stroke-width="2"/><text xml:space="preserve" style="fill:#454545;font-family:Microsoft YaHei;font-size:10.00pt"><tspan x="35.5" y="28.0">销售出库单</tspan></text></g><g transform="translate(1038.00,296.94)" id="shape44"><path fill="#d2e7f9" d="M136.0,60.0L136.0,.0L.0,.0L.0,60.0L136.0,60.0z" fill-rule="nonzero" stroke="#0070c0" stroke-width="2"/><text xml:space="preserve" style="fill:#454545;font-family:Microsoft YaHei;font-size:10.00pt"><tspan x="42.0" y="26.0">精品开票</tspan><tspan x="22.5" y="45.0">关联生成应收单</tspan></text></g><g transform="translate(1038.00,357.06)" id="shape45"><path fill="#eef7f7" d="M.0,52.5L.0,.0L136.0,.0L136.0,52.5L136.0,52.5C125.7,47.7,114.2,45.0,102.0,45.0C89.8,45.0,78.3,47.7,68.0,52.5L68.0,52.5C57.7,57.3,46.2,60.0,34.0,60.0C21.8,60.0,10.3,57.3,.0,52.5z" fill-rule="nonzero" stroke="#226e6d" stroke-width="2"/><text xml:space="preserve" style="fill:#454545;font-family:Microsoft YaHei;font-size:10.00pt"><tspan x="48.5" y="28.0">应收单</tspan></text></g><g transform="translate(641.00,197.00)" id="shape46"><path fill="none" d="M.0,.0L62.0,.0L62.0,-86.0L87.8,-86.0" stroke="#226e6d" stroke-width="2"/><path stroke-linecap="round" fill="#226e6d" d="M94.0,-86.0L86.7,-90.2C87.4,-89.0,87.8,-87.5,87.8,-86.0C87.8,-84.5,87.4,-83.0,86.7,-81.8L94.0,-86.0" stroke-width="1" stroke="#226e6d"/></g><g transform="translate(641.00,197.00)" id="shape47"><path fill="none" d="M.0,.0L62.0,.0L62.0,25.9L238.8,25.9" stroke="#226e6d" stroke-width="2"/><path stroke-linecap="round" fill="#226e6d" d="M245.0,25.9L237.7,21.7C238.4,22.9,238.8,24.4,238.8,25.9C238.8,27.5,238.4,28.9,237.7,30.2L245.0,25.9" stroke-width="1" stroke="#226e6d"/><rect height="19.0" x="103.1" fill="#ffffff" y="16.4" width="91.0"/><text xml:space="preserve" style="fill:#454545;font-family:Microsoft YaHei;font-size:10.00pt"><tspan x="103.1" y="31.4">收齐款项后出库</tspan></text></g><g transform="translate(641.00,197.00)" id="shape48"><path fill="none" d="M.0,.0L62.0,.0L62.0,129.9L390.8,129.9" stroke="#226e6d" stroke-width="2"/><path stroke-linecap="round" fill="#226e6d" d="M397.0,129.9L389.7,125.7C390.4,126.9,390.8,128.4,390.8,129.9C390.8,131.5,390.4,132.9,389.7,134.2L397.0,129.9" stroke-width="1" stroke="#226e6d"/><rect height="19.0" x="105.1" fill="#ffffff" y="120.4" width="169.0"/><text xml:space="preserve" style="fill:#454545;font-family:Microsoft YaHei;font-size:10.00pt"><tspan x="105.1" y="135.4">加装完后且所有精品已出库后</tspan></text></g><g transform="translate(245.50,444.86)" id="shape49"><path stroke-dasharray="2.5,2.5" fill="none" d="M.0,.0L84.8,.0L84.8,-0.1L253.3,-0.1" stroke="#226e6d" stroke-width="2"/><path stroke-linecap="round" fill="#226e6d" d="M259.5,-0.1L252.2,-4.3C252.9,-3.1,253.3,-1.6,253.3,-0.1C253.3,1.5,252.9,2.9,252.2,4.2L259.5,-0.1" stroke-width="1" stroke="#226e6d"/><rect height="19.0" x="62.5" fill="#ffffff" y="-9.6" width="130.0"/><text xml:space="preserve" style="fill:#454545;font-family:Microsoft YaHei;font-size:10.00pt"><tspan x="62.5" y="5.4">需要预先设置加装项目</tspan></text></g><g transform="translate(573.00,708.26)" id="shape50"><path fill="none" d="M.0,.0L.0,101.2" stroke="#226e6d" stroke-width="2"/><path stroke-linecap="round" fill="#226e6d" d="M.0,107.4L4.2,100.1C3.0,100.8,1.5,101.2,.0,101.2C-1.5,101.2,-3.0,100.8,-4.2,100.1L.0,107.4" stroke-width="1" stroke="#226e6d"/><rect height="19.0" x="-38.0" fill="#ffffff" y="41.7" width="78.0"/><rect height="19.0" x="-25.0" fill="#ffffff" y="60.7" width="52.0"/><text xml:space="preserve" style="fill:#454545;font-family:Microsoft YaHei;font-size:10.00pt"><tspan x="-38.0" y="56.7">向施工方付款</tspan><tspan x="-25.0" y="75.7">关联生成</tspan></text></g><g transform="translate(858.00,743.00)" id="shape51"><path fill="#eef7f7" d="M7.5,.0L128.5,.0L128.5,.0C132.6,.0,136.0,13.4,136.0,30.0C136.0,46.6,132.6,60.0,128.5,60.0L7.5,60.0L7.5,60.0C3.4,60.0,.0,46.6,.0,30.0C.0,13.4,3.4,.0,7.5,.0z" fill-rule="nonzero"/><path fill="none" d="M7.5,.0L128.5,.0L128.5,.0C132.6,.0,136.0,13.4,136.0,30.0C136.0,46.6,132.6,60.0,128.5,60.0L7.5,60.0L7.5,60.0C3.4,60.0,.0,46.6,.0,30.0C.0,13.4,3.4,.0,7.5,.0zM128.5,.0C124.4,.0,121.0,13.4,121.0,30.0C121.0,46.6,124.4,60.0,128.5,60.0" stroke="#226e6d" stroke-width="2"/><text xml:space="preserve" style="fill:#454545;font-family:Microsoft YaHei;font-size:10.00pt"><tspan x="38.3" y="26.0">结算记录</tspan><tspan x="18.8" y="45.0">应收单与收款单</tspan></text></g><g transform="translate(735.00,710.00)" id="shape52"><path fill="#eef7f7" d="M136.0,53.0L136.0,7.0C136.0,3.1,132.9,.0,129.0,.0L7.0,.0C3.1,.0,.0,3.1,.0,7.0L.0,53.0C.0,56.9,3.1,60.0,7.0,60.0L129.0,60.0C132.9,60.0,136.0,56.9,136.0,53.0z" fill-rule="nonzero" stroke="#226e6d" stroke-width="2"/><text xml:space="preserve" style="fill:#454545;font-family:Microsoft YaHei;font-size:10.00pt"><tspan x="22.5" y="26.0">系统或手工结算</tspan><tspan x="29.0" y="45.0">销售回款结算</tspan></text></g><g transform="translate(641.00,905.70)" id="shape53"><path fill="none" d="M.0,.0L631.0,.0L631.0,-76.0L656.8,-76.0" stroke="#ffc000" stroke-width="2"/><path stroke-linecap="round" fill="#ffc000" d="M663.0,-76.0L655.7,-80.2C656.4,-79.0,656.8,-77.5,656.8,-76.0C656.8,-74.5,656.4,-73.0,655.7,-71.8L663.0,-76.0" stroke-width="1" stroke="#ffc000"/><rect height="19.0" x="349.5" fill="#ffffff" y="-9.5" width="91.0"/><text xml:space="preserve" style="fill:#454545;font-family:Microsoft YaHei;font-size:10.00pt"><tspan x="349.5" y="5.5">付款单生成凭证</tspan></text></g><g transform="translate(641.00,685.76)" id="shape54"><path fill="none" d="M.0,.0L631.0,.0L631.0,143.9L656.8,143.9" stroke="#ffc000" stroke-width="2"/><path stroke-linecap="round" fill="#ffc000" d="M663.0,143.9L655.7,139.7C656.4,140.9,656.8,142.4,656.8,143.9C656.8,145.5,656.4,146.9,655.7,148.2L663.0,143.9" stroke-width="1" stroke="#ffc000"/><rect height="19.0" x="342.5" fill="#ffffff" y="-9.5" width="91.0"/><text xml:space="preserve" style="fill:#454545;font-family:Microsoft YaHei;font-size:10.00pt"><tspan x="342.5" y="5.5">应付单生成凭证</tspan></text></g><g transform="translate(803.00,193.63)" id="shape55"><path fill="none" d="M.0,.0L-0.0,510.2" stroke="#b4cde0" stroke-width="2"/><path stroke-linecap="round" fill="#b4cde0" d="M-0.0,516.4L4.2,509.0C3.0,509.8,1.5,510.2,-0.0,510.2C-1.5,510.2,-3.0,509.8,-4.2,509.0L-0.0,516.4" stroke-width="1" stroke="#b4cde0"/></g><g transform="translate(1038.00,387.06)" id="shape56"><path fill="none" d="M.0,.0L-235.0,.0L-235.0,316.7" stroke="#b4cde0" stroke-width="2"/><path stroke-linecap="round" fill="#b4cde0" d="M-235.0,322.9L-230.8,315.6C-232.0,316.3,-233.5,316.7,-235.0,316.7C-236.5,316.7,-238.0,316.3,-239.2,315.6L-235.0,322.9" stroke-width="1" stroke="#b4cde0"/></g><g transform="translate(641.00,685.76)" id="shape57"><path fill="none" d="M.0,.0L62.0,.0L62.0,152.9L87.8,152.9" stroke="#b4cde0" stroke-width="2"/><path stroke-linecap="round" fill="#b4cde0" d="M94.0,152.9L86.7,148.7C87.4,149.9,87.8,151.4,87.8,152.9C87.8,154.5,87.4,155.9,86.7,157.2L94.0,152.9" stroke-width="1" stroke="#b4cde0"/></g><g transform="translate(641.00,905.70)" id="shape58"><path fill="none" d="M.0,.0L62.0,.0L62.0,-67.0L87.8,-67.0" stroke="#b4cde0" stroke-width="2"/><path stroke-linecap="round" fill="#b4cde0" d="M94.0,-67.0L86.7,-71.2C87.4,-70.0,87.8,-68.5,87.8,-67.0C87.8,-65.5,87.4,-64.0,86.7,-62.8L94.0,-67.0" stroke-width="1" stroke="#b4cde0"/></g><g transform="translate(1205.00,167.13)" id="shape59"><path fill="#fbf2ef" d="M136.0,60.0L136.0,.0L.0,.0L.0,60.0L136.0,60.0z" fill-rule="nonzero" stroke="#0070c0" stroke-width="2"/><text xml:space="preserve" style="fill:#454545;font-family:Microsoft YaHei;font-size:10.00pt"><tspan x="42.0" y="26.0">生成凭证</tspan><tspan x="42.0" y="45.0">财务记账</tspan></text></g><g transform="translate(1205.00,227.13)" id="shape60"><path fill="#eef7f7" d="M.0,52.5L.0,.0L136.0,.0L136.0,52.5L136.0,52.5C125.7,47.7,114.2,45.0,102.0,45.0C89.8,45.0,78.3,47.7,68.0,52.5L68.0,52.5C57.7,57.3,46.2,60.0,34.0,60.0C21.8,60.0,10.3,57.3,.0,52.5z" fill-rule="nonzero" stroke="#226e6d" stroke-width="2"/><text xml:space="preserve" style="fill:#454545;font-family:Microsoft YaHei;font-size:10.00pt"><tspan x="55.0" y="28.0">凭证</tspan></text></g><g transform="translate(871.00,171.13)" id="shape61"><path fill="none" d="M.0,.0L302.0,.0L302.0,26.0L327.8,26.0" stroke="#ffc000" stroke-width="2"/><path stroke-linecap="round" fill="#ffc000" d="M334.0,26.0L326.7,21.8C327.4,23.0,327.8,24.5,327.8,26.0C327.8,27.5,327.4,29.0,326.7,30.2L334.0,26.0" stroke-width="1" stroke="#ffc000"/><rect height="19.0" x="95.5" fill="#ffffff" y="-9.5" width="91.0"/><text xml:space="preserve" style="fill:#454545;font-family:Microsoft YaHei;font-size:10.00pt"><tspan x="95.5" y="5.5">收款单生成凭证</tspan></text></g><g transform="translate(1022.00,283.06)" id="shape62"><path fill="none" d="M.0,.0L151.0,.0L151.0,-85.9L176.8,-85.9" stroke="#ffc000" stroke-width="2"/><path stroke-linecap="round" fill="#ffc000" d="M183.0,-85.9L175.7,-90.2C176.4,-88.9,176.8,-87.5,176.8,-85.9C176.8,-84.4,176.4,-82.9,175.7,-81.7L183.0,-85.9" stroke-width="1" stroke="#ffc000"/><rect height="19.0" x="24.5" fill="#ffffff" y="-9.5" width="117.0"/><text xml:space="preserve" style="fill:#454545;font-family:Microsoft YaHei;font-size:10.00pt"><tspan x="24.5" y="5.5">销售出库单生成凭证</tspan></text></g><g transform="translate(1174.00,387.06)" id="shape63"><path fill="none" d="M.0,.0L99.0,.0L99.0,-101.2" stroke="#ffc000" stroke-width="2"/><path stroke-linecap="round" fill="#ffc000" d="M99.0,-107.4L94.8,-100.1C96.0,-100.8,97.5,-101.2,99.0,-101.2C100.5,-101.2,102.0,-100.8,103.2,-100.1L99.0,-107.4" stroke-width="1" stroke="#ffc000"/><rect height="19.0" x="54.5" fill="#ffffff" y="-29.6" width="91.0"/><text xml:space="preserve" style="fill:#454545;font-family:Microsoft YaHei;font-size:10.00pt"><tspan x="54.5" y="-14.6">应收单生成凭证</tspan></text></g><g transform="translate(1273.00,167.13)" id="shape64"><path fill="none" d="M.0,.0L.0,-39.1L42.8,-39.1" stroke="#226e6d" stroke-width="2"/><path stroke-linecap="round" fill="#226e6d" d="M49.0,-39.1L41.7,-43.4C42.4,-42.1,42.8,-40.7,42.8,-39.1C42.8,-37.6,42.4,-36.1,41.7,-34.9L49.0,-39.1" stroke-width="1" stroke="#226e6d"/></g></g></svg>