<svg xmlns:xlink="http://www.w3.org/1999/xlink" width="1506" viewBox="0 0 1506 980" xmlns="http://www.w3.org/2000/svg" height="980" xmlns:ev="http://www.w3.org/2001/xml-events"><defs/><g id="page1" transform="translate(5.5,5.5)"><rect y="0" fill="#ffffff" width="1496" height="970" x="0"/><g id="group1" transform="translate(39.00,76.00)"><g id="group2"><path id="shape3" fill="none" stroke-width="2" d="M.0,.0L1418.0,.0L1418.0,205.3L.0,205.3L.0,.0z" stroke="#ebebeb"/><g id="shape4" transform="matrix(0.00,-1.00,1.00,0.00,-0.0,205.3)"><path fill="#eff4f8" stroke-width="2" d="M.0,.0L205.3,.0L205.3,56.7L.0,56.7L.0,.0z" fill-rule="nonzero" stroke="#ebebeb"/><text xml:space="preserve" style="fill:#454545;font-family:Microsoft YaHei;font-size:12.00pt"><tspan y="35.0" x="62.7">与二手车主</tspan></text></g></g><g id="group5" transform="translate(0.00,205.33)"><path id="shape6" fill="none" stroke-width="2" d="M.0,.0L1418.0,.0L1418.0,205.3L.0,205.3L.0,.0z" stroke="#ebebeb"/><g id="shape7" transform="matrix(0.00,-1.00,1.00,0.00,-0.0,205.3)"><path fill="#eff4f8" stroke-width="2" d="M.0,.0L205.3,.0L205.3,56.7L.0,56.7L.0,.0z" fill-rule="nonzero" stroke="#ebebeb"/><text xml:space="preserve" style="fill:#454545;font-family:Microsoft YaHei;font-size:12.00pt"><tspan y="35.0" x="30.7">整车销售与置换环节</tspan></text></g></g><g id="group8" transform="translate(0.00,410.67)"><path id="shape9" fill="none" stroke-width="2" d="M.0,.0L1418.0,.0L1418.0,257.3L.0,257.3L.0,.0z" stroke="#ebebeb"/><g id="shape10" transform="matrix(0.00,-1.00,1.00,0.00,-0.0,257.3)"><path fill="#eff4f8" stroke-width="2" d="M.0,.0L257.3,.0L257.3,56.7L.0,56.7L.0,.0z" fill-rule="nonzero" stroke="#ebebeb"/><text xml:space="preserve" style="fill:#454545;font-family:Microsoft YaHei;font-size:12.00pt"><tspan y="35.0" x="72.7">二手车销售环节</tspan></text></g></g><g id="group11" transform="translate(0.00,668.00)"><path id="shape12" fill="none" stroke-width="2" d="M.0,.0L1418.0,.0L1418.0,205.3L.0,205.3L.0,.0z" stroke="#ebebeb"/><g id="shape13" transform="matrix(0.00,-1.00,1.00,0.00,-0.0,205.3)"><path fill="#eff4f8" stroke-width="2" d="M.0,.0L205.3,.0L205.3,56.7L.0,56.7L.0,.0z" fill-rule="nonzero" stroke="#ebebeb"/><text xml:space="preserve" style="fill:#454545;font-family:Microsoft YaHei;font-size:12.00pt"><tspan y="35.0" x="54.7">财务处理环节</tspan></text></g></g></g><g id="shape14" transform="translate(120.00,303.00)"><path fill="#eff4f8" stroke-width="2" d="M22.0,44.0L78.0,44.0L78.0,44.0C90.2,44.0,100.0,34.2,100.0,22.0C100.0,9.8,90.2,.0,78.0,.0L22.0,.0L22.0,.0C9.8,.0,.0,9.8,.0,22.0C.0,34.2,9.8,44.0,22.0,44.0z" fill-rule="nonzero" stroke="#305c74"/><text xml:space="preserve" style="fill:#454545;font-family:Microsoft YaHei;font-size:12.00pt"><tspan y="28.5" x="34.0">开始</tspan></text></g><g id="shape15" transform="translate(39.00,28.00)"><path fill="#eff4f8" stroke-width="2" d="M.0,.0L1418.0,.0L1418.0,52.0L.0,52.0L.0,.0z" fill-rule="nonzero" stroke="#ebebeb"/><text xml:space="preserve" style="fill:#454545;font-family:Microsoft YaHei;font-size:12.00pt;font-weight:bold"><tspan y="32.0" x="4.0">EAS系统二手车置换收售流程（Auto4S-VM-SV）</tspan></text></g><g id="shape16" transform="translate(579.00,514.63)"><path fill="#d2e7f9" stroke-width="2" d="M136.0,60.0L136.0,.0L.0,.0L.0,60.0L136.0,60.0z" fill-rule="nonzero" stroke="#0070c0"/><text xml:space="preserve" style="fill:#454545;font-family:Microsoft YaHei;font-size:12.00pt"><tspan y="26.0" x="12.0">关联生成及维护</tspan><tspan y="47.0" x="20.0">二手车销售单</tspan></text></g><g id="shape17" transform="translate(410.50,359.00)"><path fill="#d2e7f9" stroke-width="2" d="M136.0,60.0L136.0,.0L.0,.0L.0,60.0L136.0,60.0z" fill-rule="nonzero" stroke="#0070c0"/><text xml:space="preserve" style="fill:#454545;font-family:Microsoft YaHei;font-size:12.00pt"><tspan y="26.0" x="12.0">关联生成及维护</tspan><tspan y="47.0" x="20.0">二手车收购单</tspan></text></g><g id="shape18" transform="translate(1075.00,142.37)"><path fill="#d2e7f9" stroke-width="2" d="M136.0,60.0L136.0,.0L.0,.0L.0,60.0L136.0,60.0z" fill-rule="nonzero" stroke="#0070c0"/><text xml:space="preserve" style="fill:#454545;font-family:Microsoft YaHei;font-size:12.00pt"><tspan y="26.0" x="12.0">关联生成及维护</tspan><tspan y="47.0" x="44.0">付款单</tspan></text></g><g id="shape19" transform="translate(214.50,419.00)"><path fill="#eef7f7" stroke-width="2" d="M.0,52.5L.0,.0L136.0,.0L136.0,52.5L136.0,52.5C125.7,47.7,114.2,45.0,102.0,45.0C89.8,45.0,78.3,47.7,68.0,52.5L68.0,52.5C57.7,57.3,46.2,60.0,34.0,60.0C21.8,60.0,10.3,57.3,.0,52.5z" fill-rule="nonzero" stroke="#226e6d"/><text xml:space="preserve" style="fill:#454545;font-family:Microsoft YaHei;font-size:12.00pt"><tspan y="29.0" x="4.0">整车销售订单订单</tspan></text></g><g id="shape20" transform="translate(579.00,752.00)"><path fill="#d2e7f9" stroke-width="2" d="M136.0,60.0L136.0,.0L.0,.0L.0,60.0L136.0,60.0z" fill-rule="nonzero" stroke="#0070c0"/><text xml:space="preserve" style="fill:#454545;font-family:Microsoft YaHei;font-size:12.00pt"><tspan y="26.0" x="12.0">关联生成及维护</tspan><tspan y="47.0" x="44.0">收款单</tspan></text></g><g id="shape21" transform="translate(1124.00,825.00)"><path fill="#eef7f7" d="M7.5,.0L92.5,.0L92.5,.0C96.6,.0,100.0,13.4,100.0,30.0C100.0,46.6,96.6,60.0,92.5,60.0L7.5,60.0L7.5,60.0C3.4,60.0,.0,46.6,.0,30.0C.0,13.4,3.4,.0,7.5,.0z" fill-rule="nonzero"/><path fill="none" stroke-width="2" d="M7.5,.0L92.5,.0L92.5,.0C96.6,.0,100.0,13.4,100.0,30.0C100.0,46.6,96.6,60.0,92.5,60.0L7.5,60.0L7.5,60.0C3.4,60.0,.0,46.6,.0,30.0C.0,13.4,3.4,.0,7.5,.0zM92.5,.0C88.4,.0,85.0,13.4,85.0,30.0C85.0,46.6,88.4,60.0,92.5,60.0" stroke="#226e6d"/><text xml:space="preserve" style="fill:#454545;font-family:Microsoft YaHei;font-size:12.00pt"><tspan y="36.5" x="14.3">结算记录</tspan></text></g><g id="shape22" transform="translate(214.50,144.00)"><path fill="#ffc000" stroke-dasharray="11,5,2.5,5" stroke-width="2" d="M136.0,53.0L136.0,7.0C136.0,3.1,132.9,.0,129.0,.0L7.0,.0C3.1,.0,.0,3.1,.0,7.0L.0,53.0C.0,56.9,3.1,60.0,7.0,60.0L129.0,60.0C132.9,60.0,136.0,56.9,136.0,53.0z" fill-rule="nonzero" stroke="#226e6d"/><text xml:space="preserve" style="fill:#454545;font-family:Microsoft YaHei;font-size:12.00pt"><tspan y="26.0" x="4.0">与客户沟通二手车</tspan><tspan y="47.0" x="36.0">置换事宜</tspan></text></g><g id="shape23" transform="translate(1304.00,142.00)"><path fill="#fbf2ef" stroke-width="2" d="M136.0,60.0L136.0,.0L.0,.0L.0,60.0L136.0,60.0z" fill-rule="nonzero" stroke="#0070c0"/><text xml:space="preserve" style="fill:#454545;font-family:Microsoft YaHei;font-size:12.00pt"><tspan y="26.0" x="36.0">生成凭证</tspan><tspan y="47.0" x="36.0">财务记账</tspan></text></g><g id="shape24" transform="translate(1304.00,825.00)"><path fill="#fbf2ef" stroke-width="2" d="M136.0,60.0L136.0,.0L.0,.0L.0,60.0L136.0,60.0z" fill-rule="nonzero" stroke="#0070c0"/><text xml:space="preserve" style="fill:#454545;font-family:Microsoft YaHei;font-size:12.00pt"><tspan y="26.0" x="36.0">生成凭证</tspan><tspan y="47.0" x="36.0">财务记账</tspan></text></g><g id="shape25" transform="translate(1322.00,367.00)"><path fill="#eff4f8" stroke-width="2" d="M22.0,44.0L78.0,44.0L78.0,44.0C90.2,44.0,100.0,34.2,100.0,22.0C100.0,9.8,90.2,.0,78.0,.0L22.0,.0L22.0,.0C9.8,.0,.0,9.8,.0,22.0C.0,34.2,9.8,44.0,22.0,44.0z" fill-rule="nonzero" stroke="#305c74"/><text xml:space="preserve" style="fill:#454545;font-family:Microsoft YaHei;font-size:12.00pt"><tspan y="28.5" x="34.0">结束</tspan></text></g><g id="shape26" transform="translate(1372.00,255.50)"><path fill="none" stroke-width="2" d="M.0,.0L.0,105.3" stroke="#7030a0"/><path fill="#7030a0" stroke-width="1" stroke-linecap="round" d="M.0,111.5L4.2,104.2C3.0,104.9,1.5,105.3,.0,105.3C-1.5,105.3,-3.0,104.9,-4.2,104.2L.0,111.5" stroke="#7030a0"/></g><g id="shape27" transform="translate(1075.00,203.37)"><path fill="#eef7f7" stroke-width="2" d="M.0,52.5L.0,.0L136.0,.0L136.0,52.5L136.0,52.5C125.7,47.7,114.2,45.0,102.0,45.0C89.8,45.0,78.3,47.7,68.0,52.5L68.0,52.5C57.7,57.3,46.2,60.0,34.0,60.0C21.8,60.0,10.3,57.3,.0,52.5z" fill-rule="nonzero" stroke="#226e6d"/><text xml:space="preserve" style="fill:#454545;font-family:Microsoft YaHei;font-size:12.00pt"><tspan y="29.0" x="44.0">付款单</tspan></text></g><g id="shape28" transform="translate(579.00,574.75)"><path fill="#eef7f7" stroke-width="2" d="M.0,52.5L.0,.0L136.0,.0L136.0,52.5L136.0,52.5C125.7,47.7,114.2,45.0,102.0,45.0C89.8,45.0,78.3,47.7,68.0,52.5L68.0,52.5C57.7,57.3,46.2,60.0,34.0,60.0C21.8,60.0,10.3,57.3,.0,52.5z" fill-rule="nonzero" stroke="#226e6d"/><text xml:space="preserve" style="fill:#454545;font-family:Microsoft YaHei;font-size:12.00pt"><tspan y="29.0" x="20.0">二手车销售单</tspan></text></g><g id="shape29" transform="translate(579.00,813.00)"><path fill="#eef7f7" stroke-width="2" d="M.0,52.5L.0,.0L136.0,.0L136.0,52.5L136.0,52.5C125.7,47.7,114.2,45.0,102.0,45.0C89.8,45.0,78.3,47.7,68.0,52.5L68.0,52.5C57.7,57.3,46.2,60.0,34.0,60.0C21.8,60.0,10.3,57.3,.0,52.5z" fill-rule="nonzero" stroke="#226e6d"/><text xml:space="preserve" style="fill:#454545;font-family:Microsoft YaHei;font-size:12.00pt"><tspan y="29.0" x="44.0">收款单</tspan></text></g><g id="shape30" transform="translate(1304.00,885.00)"><path fill="#eef7f7" stroke-width="2" d="M.0,52.5L.0,.0L136.0,.0L136.0,52.5L136.0,52.5C125.7,47.7,114.2,45.0,102.0,45.0C89.8,45.0,78.3,47.7,68.0,52.5L68.0,52.5C57.7,57.3,46.2,60.0,34.0,60.0C21.8,60.0,10.3,57.3,.0,52.5z" fill-rule="nonzero" stroke="#226e6d"/><text xml:space="preserve" style="fill:#454545;font-family:Microsoft YaHei;font-size:12.00pt"><tspan y="29.0" x="52.0">凭证</tspan></text></g><g id="shape31" transform="translate(1304.00,203.00)"><path fill="#eef7f7" stroke-width="2" d="M.0,52.5L.0,.0L136.0,.0L136.0,52.5L136.0,52.5C125.7,47.7,114.2,45.0,102.0,45.0C89.8,45.0,78.3,47.7,68.0,52.5L68.0,52.5C57.7,57.3,46.2,60.0,34.0,60.0C21.8,60.0,10.3,57.3,.0,52.5z" fill-rule="nonzero" stroke="#226e6d"/><text xml:space="preserve" style="fill:#454545;font-family:Microsoft YaHei;font-size:12.00pt"><tspan y="29.0" x="52.0">凭证</tspan></text></g><g id="shape32" transform="translate(228.00,204.00)"><path fill="none" stroke-width="2" d="" stroke="#226e6d"/></g><g id="shape33" transform="translate(214.50,359.00)"><path fill="#eef7f7" d="M136.0,60.0L136.0,.0L.0,.0L.0,60.0L136.0,60.0z" fill-rule="nonzero"/><path fill="none" stroke-width="2" d="M136.0,60.0L136.0,.0L.0,.0L.0,60.0L136.0,60.0zM15.0,60.0L15.0,.0L15.0,60.0zM121.0,60.0L121.0,.0L121.0,60.0z" stroke="#226e6d"/><text xml:space="preserve" style="fill:#454545;font-family:Microsoft YaHei;font-size:10.00pt"><tspan y="35.5" x="29.0">整车销售流程</tspan></text></g><g id="shape34" transform="translate(579.00,255.00)"><path fill="#eef7f7" stroke-width="2" d="M68.0,60.0L136.0,30.0L68.0,.0L.0,30.0L68.0,60.0z" fill-rule="nonzero" stroke="#226e6d"/><text xml:space="preserve" style="fill:#454545;font-family:Microsoft YaHei;font-size:10.00pt"><tspan y="26.0" x="42.0">收购价格</tspan><tspan y="45.0" x="29.0">客户是否接受</tspan></text></g><g id="group35" transform="translate(378.00,149.00)"><path id="shape36" fill="#eef7f7" stroke-width="2" d="M8.8,.0L29.1,.0C34.0,.0,38.0,3.6,38.0,8.1L38.0,22.6C38.0,27.0,34.0,30.7,29.1,30.7L8.8,30.7C3.9,30.7,.0,27.0,.0,22.6L.0,8.1C.0,3.6,3.9,.0,8.8,.0z" fill-rule="nonzero" stroke="#226e6d" transform="translate(0.00,19.33)"/><path id="shape37" fill="#eef7f7" stroke-width="2" d="M-0.0,11.4C-0.0,5.1,5.2,.0,11.6,.0C18.1,.0,23.3,5.1,23.3,11.4C23.3,17.6,18.1,22.7,11.6,22.7C5.2,22.7,-0.0,17.6,-0.0,11.4z" fill-rule="nonzero" stroke="#226e6d" transform="translate(7.33,-0.03)"/></g><g id="shape38" transform="translate(282.50,204.00)"><path fill="none" stroke-dasharray="2.5,2.5" stroke-width="2" d="M.0,.0L.0,148.8" stroke="#226e6d"/><path fill="#226e6d" stroke-width="1" stroke-linecap="round" d="M.0,155.0L4.2,147.7C3.0,148.4,1.5,148.8,.0,148.8C-1.5,148.8,-3.0,148.4,-4.2,147.7L.0,155.0" stroke="#226e6d"/></g><g id="shape39" transform="translate(647.00,255.00)"><path fill="none" stroke-width="2" d="M.0,.0L.0,-81.0L-224.8,-81.0" stroke="#226e6d"/><path fill="#226e6d" stroke-width="1" stroke-linecap="round" d="M-231.0,-81.0L-223.7,-76.8C-224.4,-78.0,-224.8,-79.5,-224.8,-81.0C-224.8,-82.5,-224.4,-84.0,-223.7,-85.2L-231.0,-81.0" stroke="#226e6d"/><rect y="-76.0" fill="#ffffff" width="33.0" height="16.0" x="-15.5"/><rect y="-60.0" fill="#ffffff" width="77.0" height="16.0" x="-37.5"/><rect y="-44.0" fill="#ffffff" width="44.0" height="16.0" x="-21.0"/><text xml:space="preserve" style="fill:#454545;font-family:Microsoft YaHei;font-size:8.00pt"><tspan y="-64.0" x="-15.5">不接受</tspan><tspan y="-48.0" x="-37.5">车辆还给客户，</tspan><tspan y="-32.0" x="-21.0">流程接束</tspan></text></g><g id="shape40" transform="translate(339.50,255.00)"><path fill="#ffc000" stroke-dasharray="11,5,2.5,5" stroke-width="2" d="M136.0,53.0L136.0,7.0C136.0,3.1,132.9,.0,129.0,.0L7.0,.0C3.1,.0,.0,3.1,.0,7.0L.0,53.0C.0,56.9,3.1,60.0,7.0,60.0L129.0,60.0C132.9,60.0,136.0,56.9,136.0,53.0z" fill-rule="nonzero" stroke="#226e6d"/><text xml:space="preserve" style="fill:#454545;font-family:Microsoft YaHei;font-size:12.00pt"><tspan y="36.5" x="20.0">车辆评估事宜</tspan></text></g><g id="shape41" transform="translate(407.50,315.00)"><path fill="none" stroke-dasharray="2.5,2.5" stroke-width="2" d="M.0,.0L.0,28.0L71.0,28.0L71.0,37.8" stroke="#226e6d"/><path fill="#226e6d" stroke-width="1" stroke-linecap="round" d="M71.0,44.0L75.2,36.7C74.0,37.4,72.5,37.8,71.0,37.8C69.5,37.8,68.0,37.4,66.8,36.7L71.0,44.0" stroke="#226e6d"/></g><g id="shape42" transform="translate(350.50,389.00)"><path fill="none" stroke-width="2" d="M.0,.0L53.8,.0" stroke="#226e6d"/><path fill="#226e6d" stroke-width="1" stroke-linecap="round" d="M60.0,.0L52.7,-4.2C53.4,-3.0,53.8,-1.5,53.8,.0C53.8,1.5,53.4,3.0,52.7,4.2L60.0,.0" stroke="#226e6d"/><rect y="-9.5" fill="#ffffff" width="52.0" height="19.0" x="11.5"/><text xml:space="preserve" style="fill:#454545;font-family:Microsoft YaHei;font-size:10.00pt"><tspan y="5.5" x="11.5">关联生成</tspan></text></g><g id="shape43" transform="translate(546.50,389.00)"><path fill="none" stroke-width="2" d="M.0,.0L16.5,.0L16.5,-104.0L26.3,-104.0" stroke="#226e6d"/><path fill="#226e6d" stroke-width="1" stroke-linecap="round" d="M32.5,-104.0L25.2,-108.2C25.9,-107.0,26.3,-105.5,26.3,-104.0C26.3,-102.5,25.9,-101.0,25.2,-99.8L32.5,-104.0" stroke="#226e6d"/></g><g id="shape44" transform="translate(579.00,359.00)"><path fill="#eef7f7" stroke-width="2" d="M.0,52.5L.0,.0L136.0,.0L136.0,52.5L136.0,52.5C125.7,47.7,114.2,45.0,102.0,45.0C89.8,45.0,78.3,47.7,68.0,52.5L68.0,52.5C57.7,57.3,46.2,60.0,34.0,60.0C21.8,60.0,10.3,57.3,.0,52.5z" fill-rule="nonzero" stroke="#226e6d"/><text xml:space="preserve" style="fill:#454545;font-family:Microsoft YaHei;font-size:12.00pt"><tspan y="29.0" x="20.0">二手车收购单</tspan></text></g><g id="shape45" transform="translate(647.00,315.00)"><path fill="none" stroke-width="2" d="M.0,.0L.0,37.8" stroke="#226e6d"/><path fill="#226e6d" stroke-width="1" stroke-linecap="round" d="M.0,44.0L4.2,36.7C3.0,37.4,1.5,37.8,.0,37.8C-1.5,37.8,-3.0,37.4,-4.2,36.7L.0,44.0" stroke="#226e6d"/><rect y="8.9" fill="#ffffff" width="26.0" height="19.0" x="-12.0"/><text xml:space="preserve" style="fill:#454545;font-family:Microsoft YaHei;font-size:10.00pt"><tspan y="23.9" x="-12.0">接受</tspan></text></g><g id="shape46" transform="matrix(0.00,1.00,-1.00,0.00,843.0,94.6)"><path fill="none" stroke-width="2" d="M27.0,136.0L168.7,177.0M54.0,83.4L54.0,136.0L.0,136.0L.0,83.4" stroke="#f4b5be"/><text xml:space="preserve" style="fill:#454545;font-family:Microsoft YaHei;font-size:10.00pt" transform="matrix(0.00,-1.00,1.00,0.00,27.0,27.0)"><tspan y="-4.0" x="-99.5">如接受，收购状态设</tspan><tspan y="15.0" x="-93.0">置为“达成收购”</tspan></text></g><g id="shape47" transform="translate(715.00,389.00)"><path fill="none" stroke-width="2" d="M.0,.0L102.0,.0L102.0,-216.6L353.8,-216.6" stroke="#226e6d"/><path fill="#226e6d" stroke-width="1" stroke-linecap="round" d="M360.0,-216.6L352.7,-220.9C353.4,-219.6,353.8,-218.2,353.8,-216.6C353.8,-215.1,353.4,-213.6,352.7,-212.4L360.0,-216.6" stroke="#226e6d"/><rect y="-222.8" fill="#ffffff" width="110.0" height="19.0" x="48.0"/><rect y="-203.8" fill="#ffffff" width="153.0" height="19.0" x="26.5"/><text xml:space="preserve" style="fill:#454545;font-family:Microsoft YaHei;font-size:10.00pt"><tspan y="-207.8" x="48.0">收购价格-置换金额</tspan><tspan y="-188.8" x="26.5">=应付客户金额，付给客户</tspan></text></g><g id="shape48" transform="translate(594.77,416.93)"><path fill="none" stroke-dasharray="11,5,2.5,5" stroke-width="2" d="M.0,.0L.0,32.1L-238.1,32.1" stroke="#226e6d"/><path fill="#226e6d" stroke-width="1" stroke-linecap="round" d="M-244.3,32.1L-236.9,36.3C-237.6,35.1,-238.1,33.6,-238.1,32.1C-238.1,30.5,-237.6,29.1,-236.9,27.8L-244.3,32.1" stroke="#226e6d"/><rect y="13.1" fill="#ffffff" width="130.0" height="19.0" x="-188.2"/><rect y="32.1" fill="#ffffff" width="104.0" height="19.0" x="-175.2"/><text xml:space="preserve" style="fill:#454545;font-family:Microsoft YaHei;font-size:10.00pt"><tspan y="28.1" x="-188.2">置换金额反写整车销售</tspan><tspan y="47.1" x="-175.2">订单二手车收购价</tspan></text></g><g id="shape49" transform="translate(647.00,411.50)"><path fill="none" stroke-width="2" d="M.0,.0L.0,96.9" stroke="#226e6d"/><path fill="#226e6d" stroke-width="1" stroke-linecap="round" d="M.0,103.1L4.2,95.8C3.0,96.5,1.5,96.9,.0,96.9C-1.5,96.9,-3.0,96.5,-4.2,95.8L.0,103.1" stroke="#226e6d"/><rect y="46.5" fill="#ffffff" width="104.0" height="19.0" x="-51.0"/><rect y="65.5" fill="#ffffff" width="52.0" height="19.0" x="-25.0"/><text xml:space="preserve" style="fill:#454545;font-family:Microsoft YaHei;font-size:10.00pt"><tspan y="61.5" x="-51.0">二手车实现销售后</tspan><tspan y="80.5" x="-25.0">关联生成</tspan></text></g><g id="shape50" transform="matrix(0.00,1.00,-1.00,0.00,511.0,517.4)"><path fill="none" stroke-width="2" d="M27.0,.0L27.3,-68.0M54.0,42.7L54.0,.0L.0,.0L.0,42.7" stroke="#f4b5be"/><text xml:space="preserve" style="fill:#454545;font-family:Microsoft YaHei;font-size:10.00pt" transform="matrix(0.00,-1.00,1.00,0.00,27.0,27.0)"><tspan y="-4.0" x="-73.6">至少三个询比价</tspan><tspan y="15.0" x="-41.1">对象</tspan></text></g><g id="shape51" transform="translate(950.00,576.00)"><path fill="#d2e7f9" stroke-width="2" d="M136.0,60.0L136.0,.0L.0,.0L.0,60.0L136.0,60.0z" fill-rule="nonzero" stroke="#0070c0"/><text xml:space="preserve" style="fill:#454545;font-family:Microsoft YaHei;font-size:12.00pt"><tspan y="26.0" x="12.0">关联生成及维护</tspan><tspan y="47.0" x="44.0">应收单</tspan></text></g><g id="shape52" transform="translate(950.00,636.00)"><path fill="#eef7f7" stroke-width="2" d="M.0,52.5L.0,.0L136.0,.0L136.0,52.5L136.0,52.5C125.7,47.7,114.2,45.0,102.0,45.0C89.8,45.0,78.3,47.7,68.0,52.5L68.0,52.5C57.7,57.3,46.2,60.0,34.0,60.0C21.8,60.0,10.3,57.3,.0,52.5z" fill-rule="nonzero" stroke="#226e6d"/><text xml:space="preserve" style="fill:#454545;font-family:Microsoft YaHei;font-size:12.00pt"><tspan y="29.0" x="44.0">应收单</tspan></text></g><g id="shape53" transform="translate(768.00,508.69)"><path fill="#eef7f7" stroke-width="2" d="M68.0,71.9L136.0,35.9L68.0,.0L.0,35.9L68.0,71.9z" fill-rule="nonzero" stroke="#226e6d"/><text xml:space="preserve" style="fill:#454545;font-family:Microsoft YaHei;font-size:10.00pt"><tspan y="31.9" x="29.0">销售价格与收</tspan><tspan y="50.9" x="35.5">购价格比较</tspan></text></g><g id="shape54" transform="translate(647.00,627.25)"><path fill="none" stroke-width="2" d="M.0,.0L.0,118.5" stroke="#226e6d"/><path fill="#226e6d" stroke-width="1" stroke-linecap="round" d="M.0,124.7L4.2,117.4C3.0,118.1,1.5,118.5,.0,118.5C-1.5,118.5,-3.0,118.1,-4.2,117.4L.0,124.7" stroke="#226e6d"/><rect y="32.0" fill="#ffffff" width="143.0" height="19.0" x="-70.5"/><rect y="51.0" fill="#ffffff" width="52.0" height="19.0" x="-25.0"/><text xml:space="preserve" style="fill:#454545;font-family:Microsoft YaHei;font-size:10.00pt"><tspan y="47.0" x="-70.5">收到二手车销售的款项后</tspan><tspan y="66.0" x="-25.0">关联生成</tspan></text></g><g id="shape55" transform="translate(836.00,580.57)"><path fill="none" stroke-width="2" d="M.0,.0L.0,22.4L107.8,22.4" stroke="#226e6d"/><path fill="#226e6d" stroke-width="1" stroke-linecap="round" d="M114.0,22.4L106.7,18.2C107.4,19.4,107.8,20.9,107.8,22.4C107.8,24.0,107.4,25.4,106.7,26.7L114.0,22.4" stroke="#226e6d"/><rect y="3.4" fill="#ffffff" width="39.0" height="19.0" x="40.7"/><rect y="22.4" fill="#ffffff" width="52.0" height="19.0" x="34.2"/><text xml:space="preserve" style="fill:#454545;font-family:Microsoft YaHei;font-size:10.00pt"><tspan y="18.4" x="40.7">有差额</tspan><tspan y="37.4" x="34.2">不管正负</tspan></text></g><g id="shape56" transform="translate(836.00,508.69)"><path fill="none" stroke-width="2" d="M.0,.0L.0,-119.7L479.8,-119.7" stroke="#226e6d"/><path fill="#226e6d" stroke-width="1" stroke-linecap="round" d="M486.0,-119.7L478.7,-123.9C479.4,-122.7,479.8,-121.2,479.8,-119.7C479.8,-118.1,479.4,-116.7,478.7,-115.5L486.0,-119.7" stroke="#226e6d"/><rect y="-76.2" fill="#ffffff" width="130.0" height="19.0" x="-64.0"/><text xml:space="preserve" style="fill:#454545;font-family:Microsoft YaHei;font-size:10.00pt"><tspan y="-61.2" x="-64.0">销售价格等于收购价格</tspan></text></g><g id="shape57" transform="translate(715.00,544.63)"><path fill="none" stroke-width="2" d="M.0,.0L46.8,.0" stroke="#226e6d"/><path fill="#226e6d" stroke-width="1" stroke-linecap="round" d="M53.0,.0L45.7,-4.2C46.4,-3.0,46.8,-1.5,46.8,.0C46.8,1.5,46.4,3.0,45.7,4.2L53.0,.0" stroke="#226e6d"/></g><g id="shape58" transform="matrix(0.00,1.00,-1.00,0.00,543.0,612.5)"><path fill="none" stroke-width="2" d="M55.5,.0L169.5,-36.0M111.0,83.6L111.0,.0L.0,.0L.0,83.6" stroke="#f4b5be"/><text xml:space="preserve" style="fill:#454545;font-family:Microsoft YaHei;font-size:10.00pt" transform="matrix(0.00,-1.00,1.00,0.00,55.5,55.5)"><tspan y="-32.5" x="-156.5">如果二手车利润为正，收款单不拆；</tspan><tspan y="-13.5" x="-156.5">如果二手车利润为负，收款单则拆成</tspan><tspan y="5.5" x="-137.0">两笔收款，便于结算，如收购</tspan><tspan y="24.5" x="-156.0">4000，销售3000，则收款拆成一笔</tspan><tspan y="43.5" x="-107.0">4000、一笔-1000</tspan></text></g><g id="shape59" transform="translate(128.00,813.00)"><path fill="#eef7f7" stroke-width="2" d="M.0,52.5L.0,.0L136.0,.0L136.0,52.5L136.0,52.5C125.7,47.7,114.2,45.0,102.0,45.0C89.8,45.0,78.3,47.7,68.0,52.5L68.0,52.5C57.7,57.3,46.2,60.0,34.0,60.0C21.8,60.0,10.3,57.3,.0,52.5z" fill-rule="nonzero" stroke="#226e6d"/><text xml:space="preserve" style="fill:#454545;font-family:Microsoft YaHei;font-size:12.00pt"><tspan y="29.0" x="20.0">整车的应收单</tspan></text></g><g id="shape60" transform="translate(353.50,813.00)"><path fill="#eef7f7" stroke-width="2" d="M136.0,53.0L136.0,7.0C136.0,3.1,132.9,.0,129.0,.0L7.0,.0C3.1,.0,.0,3.1,.0,7.0L.0,53.0C.0,56.9,3.1,60.0,7.0,60.0L129.0,60.0C132.9,60.0,136.0,56.9,136.0,53.0z" fill-rule="nonzero" stroke="#226e6d"/><text xml:space="preserve" style="fill:#454545;font-family:Microsoft YaHei;font-size:12.00pt"><tspan y="26.0" x="36.0">手工结算</tspan><tspan y="47.0" x="20.0">销售回款结算</tspan></text></g><g id="shape61" transform="translate(579.00,843.00)"><path fill="none" stroke-width="2" d="M.0,.0L-83.3,.0" stroke="#226e6d"/><path fill="#226e6d" stroke-width="1" stroke-linecap="round" d="M-89.5,.0L-82.2,4.2C-82.9,3.0,-83.3,1.5,-83.3,.0C-83.3,-1.5,-82.9,-3.0,-82.2,-4.2L-89.5,.0" stroke="#226e6d"/><rect y="-9.5" fill="#ffffff" width="52.0" height="19.0" x="-64.0"/><text xml:space="preserve" style="fill:#454545;font-family:Microsoft YaHei;font-size:10.00pt"><tspan y="5.5" x="-64.0">置换金额</tspan></text></g><g id="shape62" transform="translate(264.00,843.00)"><path fill="none" stroke-width="2" d="M.0,.0L83.3,.0" stroke="#226e6d"/><path fill="#226e6d" stroke-width="1" stroke-linecap="round" d="M89.5,.0L82.2,-4.2C82.9,-3.0,83.3,-1.5,83.3,.0C83.3,1.5,82.9,3.0,82.2,4.2L89.5,.0" stroke="#226e6d"/><rect y="-9.5" fill="#ffffff" width="52.0" height="19.0" x="14.0"/><text xml:space="preserve" style="fill:#454545;font-family:Microsoft YaHei;font-size:10.00pt"><tspan y="5.5" x="14.0">置换金额</tspan></text></g><g id="shape63" transform="translate(371.50,886.00)"><path fill="#eef7f7" d="M7.5,.0L92.5,.0L92.5,.0C96.6,.0,100.0,13.4,100.0,30.0C100.0,46.6,96.6,60.0,92.5,60.0L7.5,60.0L7.5,60.0C3.4,60.0,.0,46.6,.0,30.0C.0,13.4,3.4,.0,7.5,.0z" fill-rule="nonzero"/><path fill="none" stroke-width="2" d="M7.5,.0L92.5,.0L92.5,.0C96.6,.0,100.0,13.4,100.0,30.0C100.0,46.6,96.6,60.0,92.5,60.0L7.5,60.0L7.5,60.0C3.4,60.0,.0,46.6,.0,30.0C.0,13.4,3.4,.0,7.5,.0zM92.5,.0C88.4,.0,85.0,13.4,85.0,30.0C85.0,46.6,88.4,60.0,92.5,60.0" stroke="#226e6d"/><text xml:space="preserve" style="fill:#454545;font-family:Microsoft YaHei;font-size:12.00pt"><tspan y="36.5" x="14.3">结算记录</tspan></text></g><g id="shape64" transform="translate(421.50,873.00)"><path fill="none" stroke-width="2" d="M.0,.0L.0,6.8" stroke="#226e6d"/><path fill="#226e6d" stroke-width="1" stroke-linecap="round" d="M.0,13.0L4.2,5.7C3.0,6.4,1.5,6.8,.0,6.8C-1.5,6.8,-3.0,6.4,-4.2,5.7L.0,13.0" stroke="#226e6d"/></g><g id="shape65" transform="translate(1211.00,172.37)"><path fill="none" stroke-width="2" d="M.0,.0L61.0,.0L61.0,-0.4L86.8,-0.4" stroke="#226e6d"/><path fill="#226e6d" stroke-width="1" stroke-linecap="round" d="M93.0,-0.4L85.7,-4.6C86.4,-3.4,86.8,-1.9,86.8,-0.4C86.8,1.2,86.4,2.6,85.7,3.9L93.0,-0.4" stroke="#226e6d"/></g><g id="shape66" transform="translate(792.00,722.00)"><path fill="#eef7f7" stroke-width="2" d="M136.0,53.0L136.0,7.0C136.0,3.1,132.9,.0,129.0,.0L7.0,.0C3.1,.0,.0,3.1,.0,7.0L.0,53.0C.0,56.9,3.1,60.0,7.0,60.0L129.0,60.0C132.9,60.0,136.0,56.9,136.0,53.0z" fill-rule="nonzero" stroke="#226e6d"/><text xml:space="preserve" style="fill:#454545;font-family:Microsoft YaHei;font-size:12.00pt"><tspan y="26.0" x="12.0">系统或手工结算</tspan><tspan y="47.0" x="20.0">销售回款结算</tspan></text></g><g id="shape67" transform="translate(715.00,826.02)"><path fill="none" stroke-width="2" d="M.0,.0L45.0,.0L45.0,-74.0L70.8,-74.0" stroke="#226e6d"/><path fill="#226e6d" stroke-width="1" stroke-linecap="round" d="M77.0,-74.0L69.7,-78.3C70.4,-77.0,70.8,-75.6,70.8,-74.0C70.8,-72.5,70.4,-71.0,69.7,-69.8L77.0,-74.0" stroke="#226e6d"/><rect y="-51.8" fill="#ffffff" width="91.0" height="19.0" x="0.5"/><rect y="-32.8" fill="#ffffff" width="91.0" height="19.0" x="0.5"/><text xml:space="preserve" style="fill:#454545;font-family:Microsoft YaHei;font-size:10.00pt"><tspan y="-36.8" x="0.5">二手车利润部分</tspan><tspan y="-17.8" x="0.5">（不管正与负）</tspan></text></g><g id="shape68" transform="translate(950.00,666.00)"><path fill="none" stroke-width="2" d="M.0,.0L-90.0,.0L-90.0,49.8" stroke="#226e6d"/><path fill="#226e6d" stroke-width="1" stroke-linecap="round" d="M-90.0,56.0L-85.8,48.7C-87.0,49.4,-88.5,49.8,-90.0,49.8C-91.5,49.8,-93.0,49.4,-94.2,48.7L-90.0,56.0" stroke="#226e6d"/><rect y="-9.5" fill="#ffffff" width="26.0" height="19.0" x="-75.2"/><text xml:space="preserve" style="fill:#454545;font-family:Microsoft YaHei;font-size:10.00pt"><tspan y="5.5" x="-75.2">全额</tspan></text></g><g id="shape69" transform="translate(715.00,855.00)"><path fill="none" stroke-width="2" d="M.0,.0L228.8,-0.0" stroke="#226e6d"/><path fill="#226e6d" stroke-width="1" stroke-linecap="round" d="M235.0,-0.0L227.7,-4.2C228.4,-3.0,228.8,-1.5,228.8,-0.0C228.8,1.5,228.4,3.0,227.7,4.2L235.0,-0.0" stroke="#226e6d"/><rect y="-9.5" fill="#ffffff" width="78.0" height="19.0" x="49.6"/><text xml:space="preserve" style="fill:#454545;font-family:Microsoft YaHei;font-size:10.00pt"><tspan y="5.5" x="49.6">付给客户部分</tspan></text></g><g id="shape70" transform="translate(950.00,825.00)"><path fill="#eef7f7" stroke-width="2" d="M136.0,53.0L136.0,7.0C136.0,3.1,132.9,.0,129.0,.0L7.0,.0C3.1,.0,.0,3.1,.0,7.0L.0,53.0C.0,56.9,3.1,60.0,7.0,60.0L129.0,60.0C132.9,60.0,136.0,56.9,136.0,53.0z" fill-rule="nonzero" stroke="#226e6d"/><text xml:space="preserve" style="fill:#454545;font-family:Microsoft YaHei;font-size:12.00pt"><tspan y="26.0" x="36.0">手工结算</tspan><tspan y="47.0" x="28.0">预收冲预付</tspan></text></g><g id="shape71" transform="translate(647.00,865.50)"><path fill="none" stroke-width="2" d="M.0,.0L.0,51.5L625.0,51.5L625.0,-10.5L650.8,-10.5" stroke="#226e6d"/><path fill="#226e6d" stroke-width="1" stroke-linecap="round" d="M657.0,-10.5L649.7,-14.7C650.4,-13.5,650.8,-12.0,650.8,-10.5C650.8,-9.0,650.4,-7.5,649.7,-6.3L657.0,-10.5" stroke="#226e6d"/></g><g id="shape72" transform="translate(1143.00,255.87)"><path fill="none" stroke-width="2" d="M.0,.0L.0,553.1L-125.0,553.1L-125.0,562.9" stroke="#226e6d"/><path fill="#226e6d" stroke-width="1" stroke-linecap="round" d="M-125.0,569.1L-120.8,561.8C-122.0,562.5,-123.5,562.9,-125.0,562.9C-126.5,562.9,-128.0,562.5,-129.2,561.8L-125.0,569.1" stroke="#226e6d"/></g><g id="shape73" transform="translate(1086.00,855.00)"><path fill="none" stroke-width="2" d="M.0,.0L31.8,.0" stroke="#226e6d"/><path fill="#226e6d" stroke-width="1" stroke-linecap="round" d="M38.0,.0L30.7,-4.2C31.4,-3.0,31.8,-1.5,31.8,.0C31.8,1.5,31.4,3.0,30.7,4.2L38.0,.0" stroke="#226e6d"/></g><g id="shape74" transform="translate(471.50,916.00)"><path fill="none" stroke-width="2" d="M.0,.0L800.5,.0L800.5,-61.0L826.3,-61.0" stroke="#226e6d"/><path fill="#226e6d" stroke-width="1" stroke-linecap="round" d="M832.5,-61.0L825.2,-65.2C825.9,-64.0,826.3,-62.5,826.3,-61.0C826.3,-59.5,825.9,-58.0,825.2,-56.8L832.5,-61.0" stroke="#226e6d"/></g><g id="shape75" transform="translate(1224.00,855.00)"><path fill="none" stroke-width="2" d="M.0,.0L73.8,.0" stroke="#226e6d"/><path fill="#226e6d" stroke-width="1" stroke-linecap="round" d="M80.0,.0L72.7,-4.2C73.4,-3.0,73.8,-1.5,73.8,.0C73.8,1.5,73.4,3.0,72.7,4.2L80.0,.0" stroke="#226e6d"/></g><g id="shape76" transform="translate(986.00,722.00)"><path fill="#eef7f7" d="M7.5,.0L92.5,.0L92.5,.0C96.6,.0,100.0,13.4,100.0,30.0C100.0,46.6,96.6,60.0,92.5,60.0L7.5,60.0L7.5,60.0C3.4,60.0,.0,46.6,.0,30.0C.0,13.4,3.4,.0,7.5,.0z" fill-rule="nonzero"/><path fill="none" stroke-width="2" d="M7.5,.0L92.5,.0L92.5,.0C96.6,.0,100.0,13.4,100.0,30.0C100.0,46.6,96.6,60.0,92.5,60.0L7.5,60.0L7.5,60.0C3.4,60.0,.0,46.6,.0,30.0C.0,13.4,3.4,.0,7.5,.0zM92.5,.0C88.4,.0,85.0,13.4,85.0,30.0C85.0,46.6,88.4,60.0,92.5,60.0" stroke="#226e6d"/><text xml:space="preserve" style="fill:#454545;font-family:Microsoft YaHei;font-size:12.00pt"><tspan y="36.5" x="14.3">结算记录</tspan></text></g><g id="shape77" transform="translate(928.00,752.00)"><path fill="none" stroke-width="2" d="M.0,.0L51.8,.0" stroke="#226e6d"/><path fill="#226e6d" stroke-width="1" stroke-linecap="round" d="M58.0,.0L50.7,-4.2C51.4,-3.0,51.8,-1.5,51.8,.0C51.8,1.5,51.4,3.0,50.7,4.2L58.0,.0" stroke="#226e6d"/></g><g id="shape78" transform="translate(214.50,449.00)"><path fill="none" stroke-width="2" d="M.0,.0L-18.5,.0L-18.5,357.8" stroke="#226e6d"/><path fill="#226e6d" stroke-width="1" stroke-linecap="round" d="M-18.5,364.0L-14.3,356.7C-15.5,357.4,-17.0,357.8,-18.5,357.8C-20.0,357.8,-21.5,357.4,-22.7,356.7L-18.5,364.0" stroke="#226e6d"/><rect y="186.5" fill="#ffffff" width="52.0" height="19.0" x="-43.5"/><text xml:space="preserve" style="fill:#454545;font-family:Microsoft YaHei;font-size:10.00pt"><tspan y="201.5" x="-43.5">整车开票</tspan></text></g><g id="shape79" transform="translate(1086.00,666.00)"><path fill="none" stroke-width="2" d="M.0,.0L229.0,.0L229.0,152.8" stroke="#226e6d"/><path fill="#226e6d" stroke-width="1" stroke-linecap="round" d="M229.0,159.0L233.3,151.7C232.0,152.4,230.6,152.8,229.0,152.8C227.5,152.8,226.0,152.4,224.8,151.7L229.0,159.0" stroke="#226e6d"/></g><g id="shape80" transform="translate(1372.00,825.00)"><path fill="none" stroke-width="2" d="M.0,.0L.0,-407.8" stroke="#226e6d"/><path fill="#226e6d" stroke-width="1" stroke-linecap="round" d="M.0,-414.0L-4.2,-406.7C-3.0,-407.4,-1.5,-407.8,.0,-407.8C1.5,-407.8,3.0,-407.4,4.2,-406.7L.0,-414.0" stroke="#226e6d"/></g></g></svg>