<svg xmlns:xlink="http://www.w3.org/1999/xlink" width="1506" viewBox="0 0 1506 980" xmlns="http://www.w3.org/2000/svg" height="980" xmlns:ev="http://www.w3.org/2001/xml-events"><defs/><g id="page4" transform="translate(5.5,5.5)"><rect y="0" fill="#ffffff" width="1496" height="970" x="0"/><g id="group1" transform="translate(39.00,76.00)"><g id="group2"><path id="shape3" fill="none" stroke-width="2" d="M.0,.0L1418.0,.0L1418.0,205.3L.0,205.3L.0,.0z" stroke="#ebebeb"/><g id="shape4" transform="matrix(0.00,-1.00,1.00,0.00,-0.0,205.3)"><path fill="#eff4f8" stroke-width="2" d="M.0,.0L205.3,.0L205.3,56.7L.0,56.7L.0,.0z" fill-rule="nonzero" stroke="#ebebeb"/><text xml:space="preserve" style="fill:#454545;font-family:Microsoft YaHei;font-size:12.00pt"><tspan y="35.0" x="6.7">新车销售及二手车收购环节</tspan></text></g></g><g id="group5" transform="translate(0.00,205.33)"><path id="shape6" fill="none" stroke-width="2" d="M.0,.0L1418.0,.0L1418.0,205.3L.0,205.3L.0,.0z" stroke="#ebebeb"/><g id="shape7" transform="matrix(0.00,-1.00,1.00,0.00,-0.0,205.3)"><path fill="#eff4f8" stroke-width="2" d="M.0,.0L205.3,.0L205.3,56.7L.0,56.7L.0,.0z" fill-rule="nonzero" stroke="#ebebeb"/><text xml:space="preserve" style="fill:#454545;font-family:Microsoft YaHei;font-size:12.00pt"><tspan y="35.0" x="46.7">二手车销售环节</tspan></text></g></g><g id="group8" transform="translate(0.00,410.67)"><path id="shape9" fill="none" stroke-width="2" d="M.0,.0L1418.0,.0L1418.0,257.3L.0,257.3L.0,.0z" stroke="#ebebeb"/><g id="shape10" transform="matrix(0.00,-1.00,1.00,0.00,-0.0,257.3)"><path fill="#eff4f8" stroke-width="2" d="M.0,.0L257.3,.0L257.3,56.7L.0,56.7L.0,.0z" fill-rule="nonzero" stroke="#ebebeb"/><text xml:space="preserve" style="fill:#454545;font-family:Microsoft YaHei;font-size:12.00pt"><tspan y="35.0" x="32.7">二手车收款及确认利润环节</tspan></text></g></g><g id="group11" transform="translate(0.00,668.00)"><path id="shape12" fill="none" stroke-width="2" d="M.0,.0L1418.0,.0L1418.0,205.3L.0,205.3L.0,.0z" stroke="#ebebeb"/><g id="shape13" transform="matrix(0.00,-1.00,1.00,0.00,-0.0,205.3)"><path fill="#eff4f8" stroke-width="2" d="M.0,.0L205.3,.0L205.3,56.7L.0,56.7L.0,.0z" fill-rule="nonzero" stroke="#ebebeb"/><text xml:space="preserve" style="fill:#454545;font-family:Microsoft YaHei;font-size:12.00pt"><tspan y="35.0" x="54.7">财务处理环节</tspan></text></g></g></g><g id="shape14" transform="translate(128.00,106.00)"><path fill="#eff4f8" stroke-width="2" d="M22.0,44.0L78.0,44.0L78.0,44.0C90.2,44.0,100.0,34.2,100.0,22.0C100.0,9.8,90.2,.0,78.0,.0L22.0,.0L22.0,.0C9.8,.0,.0,9.8,.0,22.0C.0,34.2,9.8,44.0,22.0,44.0z" fill-rule="nonzero" stroke="#305c74"/><text xml:space="preserve" style="fill:#454545;font-family:Microsoft YaHei;font-size:10.00pt"><tspan y="27.5" x="37.0">开始</tspan></text></g><g id="shape15" transform="translate(39.00,24.00)"><path fill="#eff4f8" stroke-width="2" d="M.0,.0L1418.0,.0L1418.0,52.0L.0,52.0L.0,.0z" fill-rule="nonzero" stroke="#ebebeb"/><text xml:space="preserve" style="fill:#454545;font-family:Microsoft YaHei;font-size:12.00pt;font-weight:bold"><tspan y="32.0" x="4.0">EAS系统二手车销售流程（Auto4S-VM-SV-03）</tspan></text></g><g id="shape16" transform="translate(505.00,328.94)"><path fill="#d2e7f9" stroke-width="2" d="M136.0,60.0L136.0,.0L.0,.0L.0,60.0L136.0,60.0z" fill-rule="nonzero" stroke="#0070c0"/><text xml:space="preserve" style="fill:#454545;font-family:Microsoft YaHei;font-size:10.00pt"><tspan y="26.0" x="22.5">关联生成及维护</tspan><tspan y="45.0" x="29.0">二手车销售单</tspan></text></g><g id="shape17" transform="translate(505.00,537.00)"><path fill="#d2e7f9" stroke-width="2" d="M136.0,60.0L136.0,.0L.0,.0L.0,60.0L136.0,60.0z" fill-rule="nonzero" stroke="#0070c0"/><text xml:space="preserve" style="fill:#454545;font-family:Microsoft YaHei;font-size:10.00pt"><tspan y="26.0" x="22.5">关联生成及维护</tspan><tspan y="45.0" x="48.5">收款单</tspan></text></g><g id="shape18" transform="translate(875.50,768.00)"><path fill="#eef7f7" d="M7.5,.0L205.5,.0L205.5,.0C209.6,.0,213.0,13.4,213.0,30.0C213.0,46.6,209.6,60.0,205.5,60.0L7.5,60.0L7.5,60.0C3.4,60.0,.0,46.6,.0,30.0C.0,13.4,3.4,.0,7.5,.0z" fill-rule="nonzero"/><path fill="none" stroke-width="2" d="M7.5,.0L205.5,.0L205.5,.0C209.6,.0,213.0,13.4,213.0,30.0C213.0,46.6,209.6,60.0,205.5,60.0L7.5,60.0L7.5,60.0C3.4,60.0,.0,46.6,.0,30.0C.0,13.4,3.4,.0,7.5,.0zM205.5,.0C201.4,.0,198.0,13.4,198.0,30.0C198.0,46.6,201.4,60.0,205.5,60.0" stroke="#226e6d"/><text xml:space="preserve" style="fill:#454545;font-family:Microsoft YaHei;font-size:10.00pt"><tspan y="26.0" x="76.8">结算记录</tspan><tspan y="45.0" x="31.3">二手车收款与二手车付款</tspan></text></g><g id="shape19" transform="translate(1304.00,825.00)"><path fill="#fbf2ef" stroke-width="2" d="M136.0,60.0L136.0,.0L.0,.0L.0,60.0L136.0,60.0z" fill-rule="nonzero" stroke="#0070c0"/><text xml:space="preserve" style="fill:#454545;font-family:Microsoft YaHei;font-size:10.00pt"><tspan y="26.0" x="42.0">生成凭证</tspan><tspan y="45.0" x="42.0">财务记账</tspan></text></g><g id="shape20" transform="translate(1322.00,367.00)"><path fill="#eff4f8" stroke-width="2" d="M22.0,44.0L78.0,44.0L78.0,44.0C90.2,44.0,100.0,34.2,100.0,22.0C100.0,9.8,90.2,.0,78.0,.0L22.0,.0L22.0,.0C9.8,.0,.0,9.8,.0,22.0C.0,34.2,9.8,44.0,22.0,44.0z" fill-rule="nonzero" stroke="#305c74"/><text xml:space="preserve" style="fill:#454545;font-family:Microsoft YaHei;font-size:10.00pt"><tspan y="27.5" x="37.0">结束</tspan></text></g><g id="shape21" transform="translate(1106.00,167.00)"><path fill="#eef7f7" stroke-width="2" d="M.0,52.5L.0,.0L136.0,.0L136.0,52.5L136.0,52.5C125.7,47.7,114.2,45.0,102.0,45.0C89.8,45.0,78.3,47.7,68.0,52.5L68.0,52.5C57.7,57.3,46.2,60.0,34.0,60.0C21.8,60.0,10.3,57.3,.0,52.5z" fill-rule="nonzero" stroke="#226e6d"/><text xml:space="preserve" style="fill:#454545;font-family:Microsoft YaHei;font-size:10.00pt"><tspan y="28.0" x="48.5">付款单</tspan></text></g><g id="shape22" transform="translate(505.00,389.06)"><path fill="#eef7f7" stroke-width="2" d="M.0,52.5L.0,.0L136.0,.0L136.0,52.5L136.0,52.5C125.7,47.7,114.2,45.0,102.0,45.0C89.8,45.0,78.3,47.7,68.0,52.5L68.0,52.5C57.7,57.3,46.2,60.0,34.0,60.0C21.8,60.0,10.3,57.3,.0,52.5z" fill-rule="nonzero" stroke="#226e6d"/><text xml:space="preserve" style="fill:#454545;font-family:Microsoft YaHei;font-size:10.00pt"><tspan y="28.0" x="29.0">二手车销售单</tspan></text></g><g id="shape23" transform="translate(505.00,597.00)"><path fill="#eef7f7" stroke-width="2" d="M.0,52.5L.0,.0L136.0,.0L136.0,52.5L136.0,52.5C125.7,47.7,114.2,45.0,102.0,45.0C89.8,45.0,78.3,47.7,68.0,52.5L68.0,52.5C57.7,57.3,46.2,60.0,34.0,60.0C21.8,60.0,10.3,57.3,.0,52.5z" fill-rule="nonzero" stroke="#226e6d"/><text xml:space="preserve" style="fill:#454545;font-family:Microsoft YaHei;font-size:10.00pt"><tspan y="28.0" x="48.5">收款单</tspan></text></g><g id="shape24" transform="translate(1304.00,885.00)"><path fill="#eef7f7" stroke-width="2" d="M.0,52.5L.0,.0L136.0,.0L136.0,52.5L136.0,52.5C125.7,47.7,114.2,45.0,102.0,45.0C89.8,45.0,78.3,47.7,68.0,52.5L68.0,52.5C57.7,57.3,46.2,60.0,34.0,60.0C21.8,60.0,10.3,57.3,.0,52.5z" fill-rule="nonzero" stroke="#226e6d"/><text xml:space="preserve" style="fill:#454545;font-family:Microsoft YaHei;font-size:10.00pt"><tspan y="28.0" x="55.0">凭证</tspan></text></g><g id="shape25" transform="translate(228.00,204.00)"><path fill="none" stroke-width="2" d="" stroke="#226e6d"/></g><g id="shape26" transform="translate(310.00,98.00)"><path fill="#eef7f7" d="M136.0,60.0L136.0,.0L.0,.0L.0,60.0L136.0,60.0z" fill-rule="nonzero"/><path fill="none" stroke-width="2" d="M136.0,60.0L136.0,.0L.0,.0L.0,60.0L136.0,60.0zM15.0,60.0L15.0,.0L15.0,60.0zM121.0,60.0L121.0,.0L121.0,60.0z" stroke="#226e6d"/><text xml:space="preserve" style="fill:#454545;font-family:Microsoft YaHei;font-size:10.00pt"><tspan y="35.5" x="29.0">整车销售流程</tspan></text></g><g id="shape27" transform="matrix(0.00,1.00,-1.00,0.00,406.0,338.3)"><path fill="none" stroke-width="2" d="M27.0,.0L20.7,-99.0M54.0,42.7L54.0,.0L.0,.0L.0,42.7" stroke="#f4b5be"/><text xml:space="preserve" style="fill:#454545;font-family:Microsoft YaHei;font-size:10.00pt" transform="matrix(0.00,-1.00,1.00,0.00,27.0,27.0)"><tspan y="-4.0" x="-73.6">至少三个询比价</tspan><tspan y="15.0" x="-41.1">对象</tspan></text></g><g id="shape28" transform="translate(735.00,497.00)"><path fill="#d2e7f9" stroke-width="2" d="M136.0,60.0L136.0,.0L.0,.0L.0,60.0L136.0,60.0z" fill-rule="nonzero" stroke="#0070c0"/><text xml:space="preserve" style="fill:#454545;font-family:Microsoft YaHei;font-size:10.00pt"><tspan y="26.0" x="22.5">关联生成及维护</tspan><tspan y="45.0" x="48.5">应收单</tspan></text></g><g id="shape29" transform="translate(735.00,557.00)"><path fill="#eef7f7" stroke-width="2" d="M.0,52.5L.0,.0L136.0,.0L136.0,52.5L136.0,52.5C125.7,47.7,114.2,45.0,102.0,45.0C89.8,45.0,78.3,47.7,68.0,52.5L68.0,52.5C57.7,57.3,46.2,60.0,34.0,60.0C21.8,60.0,10.3,57.3,.0,52.5z" fill-rule="nonzero" stroke="#226e6d"/><text xml:space="preserve" style="fill:#454545;font-family:Microsoft YaHei;font-size:10.00pt"><tspan y="28.0" x="48.5">应收单</tspan></text></g><g id="shape30" transform="translate(735.00,322.69)"><path fill="#eef7f7" stroke-width="2" d="M68.0,71.9L136.0,35.9L68.0,.0L.0,35.9L68.0,71.9z" fill-rule="nonzero" stroke="#226e6d"/><text xml:space="preserve" style="fill:#454545;font-family:Microsoft YaHei;font-size:10.00pt"><tspan y="31.9" x="29.0">销售价格与收</tspan><tspan y="50.9" x="35.5">购价格比较</tspan></text></g><g id="shape31" transform="translate(573.00,441.56)"><path fill="none" stroke-width="2" d="M.0,.0L.0,89.2" stroke="#226e6d"/><path fill="#226e6d" stroke-width="1" stroke-linecap="round" d="M.0,95.4L4.2,88.1C3.0,88.8,1.5,89.2,.0,89.2C-1.5,89.2,-3.0,88.8,-4.2,88.1L.0,95.4" stroke="#226e6d"/><rect y="21.4" fill="#ffffff" width="143.0" height="19.0" x="-70.5"/><rect y="40.4" fill="#ffffff" width="52.0" height="19.0" x="-25.0"/><text xml:space="preserve" style="fill:#454545;font-family:Microsoft YaHei;font-size:10.00pt"><tspan y="36.4" x="-70.5">收到二手车销售的款项后</tspan><tspan y="55.4" x="-25.0">关联生成</tspan></text></g><g id="shape32" transform="translate(641.00,358.94)"><path fill="none" stroke-width="2" d="M.0,.0L62.0,.0L62.0,-0.3L87.8,-0.3" stroke="#226e6d"/><path fill="#226e6d" stroke-width="1" stroke-linecap="round" d="M94.0,-0.3L86.7,-4.6C87.4,-3.3,87.8,-1.9,87.8,-0.3C87.8,1.2,87.4,2.7,86.7,3.9L94.0,-0.3" stroke="#226e6d"/></g><g id="shape33" transform="matrix(0.00,1.00,-1.00,0.00,420.0,507.0)"><path fill="none" stroke-width="2" d="M46.0,.0L60.0,-85.0M92.0,122.3L92.0,.0L.0,.0L.0,122.3" stroke="#f4b5be"/><text xml:space="preserve" style="fill:#454545;font-family:Microsoft YaHei;font-size:10.00pt" transform="matrix(0.00,-1.00,1.00,0.00,46.0,46.0)"><tspan y="-23.0" x="-266.0">1、如果二手车利润为正或0，收款单不拆；</tspan><tspan y="-4.0" x="-266.0">2、如果二手车利润为负，收款单则拆成两笔收款，便</tspan><tspan y="15.0" x="-266.0">于结算。如收购4000，销售3000，则收款拆成一笔</tspan><tspan y="34.0" x="-266.0">4000、一笔-1000。</tspan></text></g><g id="shape34" transform="translate(128.00,780.00)"><path fill="#eef7f7" stroke-width="2" d="M.0,52.5L.0,.0L136.0,.0L136.0,52.5L136.0,52.5C125.7,47.7,114.2,45.0,102.0,45.0C89.8,45.0,78.3,47.7,68.0,52.5L68.0,52.5C57.7,57.3,46.2,60.0,34.0,60.0C21.8,60.0,10.3,57.3,.0,52.5z" fill-rule="nonzero" stroke="#226e6d"/><text xml:space="preserve" style="fill:#454545;font-family:Microsoft YaHei;font-size:10.00pt"><tspan y="28.0" x="29.0">整车的应收单</tspan></text></g><g id="shape35" transform="translate(353.50,780.00)"><path fill="#eef7f7" stroke-width="2" d="M136.0,53.0L136.0,7.0C136.0,3.1,132.9,.0,129.0,.0L7.0,.0C3.1,.0,.0,3.1,.0,7.0L.0,53.0C.0,56.9,3.1,60.0,7.0,60.0L129.0,60.0C132.9,60.0,136.0,56.9,136.0,53.0z" fill-rule="nonzero" stroke="#226e6d"/><text xml:space="preserve" style="fill:#454545;font-family:Microsoft YaHei;font-size:10.00pt"><tspan y="26.0" x="42.0">手工结算</tspan><tspan y="45.0" x="29.0">销售回款结算</tspan></text></g><g id="shape36" transform="translate(525.38,655.86)"><path fill="none" stroke-width="2" d="M.0,.0L.0,154.1L-29.7,154.1" stroke="#ff0000"/><path fill="#ff0000" stroke-width="1" stroke-linecap="round" d="M-35.9,154.1L-28.5,158.4C-29.3,157.1,-29.7,155.7,-29.7,154.1C-29.7,152.6,-29.3,151.1,-28.5,149.9L-35.9,154.1" stroke="#ff0000"/><rect y="63.8" fill="#ffffff" width="86.0" height="19.0" x="-42.0"/><rect y="82.8" fill="#ffffff" width="65.0" height="19.0" x="-31.5"/><text xml:space="preserve" style="fill:#454545;font-family:Microsoft YaHei;font-size:10.00pt"><tspan y="78.8" x="-42.0">2、抵新车部分</tspan><tspan y="97.8" x="-31.5">即置换金额</tspan></text></g><g id="shape37" transform="translate(264.00,810.00)"><path fill="none" stroke-width="2" d="M.0,.0L83.3,.0" stroke="#ff0000"/><path fill="#ff0000" stroke-width="1" stroke-linecap="round" d="M89.5,.0L82.2,-4.2C82.9,-3.0,83.3,-1.5,83.3,.0C83.3,1.5,82.9,3.0,82.2,4.2L89.5,.0" stroke="#ff0000"/><rect y="-9.5" fill="#ffffff" width="52.0" height="19.0" x="19.0"/><text xml:space="preserve" style="fill:#454545;font-family:Microsoft YaHei;font-size:10.00pt"><tspan y="5.5" x="19.0">置换金额</tspan></text></g><g id="shape38" transform="translate(735.00,650.00)"><path fill="#eef7f7" stroke-width="2" d="M136.0,53.0L136.0,7.0C136.0,3.1,132.9,.0,129.0,.0L7.0,.0C3.1,.0,.0,3.1,.0,7.0L.0,53.0C.0,56.9,3.1,60.0,7.0,60.0L129.0,60.0C132.9,60.0,136.0,56.9,136.0,53.0z" fill-rule="nonzero" stroke="#226e6d"/><text xml:space="preserve" style="fill:#454545;font-family:Microsoft YaHei;font-size:10.00pt"><tspan y="26.0" x="22.5">系统或手工结算</tspan><tspan y="45.0" x="29.0">销售回款结算</tspan></text></g><g id="shape39" transform="translate(616.32,642.53)"><path fill="none" stroke-width="2" d="M.0,.0L.0,37.5L112.5,37.5" stroke="#ff0000"/><path fill="#ff0000" stroke-width="1" stroke-linecap="round" d="M118.7,37.5L111.3,33.2C112.1,34.5,112.5,35.9,112.5,37.5C112.5,39.0,112.1,40.5,111.3,41.7L118.7,37.5" stroke="#ff0000"/><rect y="18.5" fill="#ffffff" width="112.0" height="19.0" x="-12.1"/><rect y="37.5" fill="#ffffff" width="91.0" height="19.0" x="-1.6"/><text xml:space="preserve" style="fill:#454545;font-family:Microsoft YaHei;font-size:10.00pt"><tspan y="33.5" x="-12.1">1、二手车利润部分</tspan><tspan y="52.5" x="-1.6">（不管正与负）</tspan></text></g><g id="shape40" transform="translate(803.00,609.50)"><path fill="none" stroke-width="2" d="M.0,.0L.0,34.3" stroke="#ff0000"/><path fill="#ff0000" stroke-width="1" stroke-linecap="round" d="M.0,40.5L4.2,33.2C3.0,33.9,1.5,34.3,.0,34.3C-1.5,34.3,-3.0,33.9,-4.2,33.2L.0,40.5" stroke="#ff0000"/><rect y="8.5" fill="#ffffff" width="26.0" height="19.0" x="-12.0"/><text xml:space="preserve" style="fill:#454545;font-family:Microsoft YaHei;font-size:10.00pt"><tspan y="23.5" x="-12.0">全额</tspan></text></g><g id="shape41" transform="translate(1106.00,704.00)"><path fill="#eef7f7" stroke-width="2" d="M136.0,53.0L136.0,7.0C136.0,3.1,132.9,.0,129.0,.0L7.0,.0C3.1,.0,.0,3.1,.0,7.0L.0,53.0C.0,56.9,3.1,60.0,7.0,60.0L129.0,60.0C132.9,60.0,136.0,56.9,136.0,53.0z" fill-rule="nonzero" stroke="#226e6d"/><text xml:space="preserve" style="fill:#454545;font-family:Microsoft YaHei;font-size:10.00pt"><tspan y="26.0" x="42.0">手工结算</tspan><tspan y="45.0" x="35.5">预收冲预付</tspan></text></g><g id="shape42" transform="translate(1372.00,825.00)"><path fill="none" stroke-width="2" d="M.0,.0L.0,-407.8" stroke="#226e6d"/><path fill="#226e6d" stroke-width="1" stroke-linecap="round" d="M.0,-414.0L-4.2,-406.7C-3.0,-407.4,-1.5,-407.8,.0,-407.8C1.5,-407.8,3.0,-407.4,4.2,-406.7L.0,-414.0" stroke="#226e6d"/></g><g id="shape43" transform="translate(505.00,167.00)"><path fill="#eef7f7" d="M136.0,60.0L136.0,.0L.0,.0L.0,60.0L136.0,60.0z" fill-rule="nonzero"/><path fill="none" stroke-width="2" d="M136.0,60.0L136.0,.0L.0,.0L.0,60.0L136.0,60.0zM15.0,60.0L15.0,.0L15.0,60.0zM121.0,60.0L121.0,.0L121.0,60.0z" stroke="#226e6d"/><text xml:space="preserve" style="fill:#454545;font-family:Microsoft YaHei;font-size:10.00pt"><tspan y="35.5" x="22.5">二手车收购流程</tspan></text></g><g id="shape44" transform="translate(228.00,128.00)"><path fill="none" stroke-width="2" d="M.0,.0L75.8,.0" stroke="#226e6d"/><path fill="#226e6d" stroke-width="1" stroke-linecap="round" d="M82.0,.0L74.7,-4.2C75.4,-3.0,75.8,-1.5,75.8,.0C75.8,1.5,75.4,3.0,74.7,4.2L82.0,.0" stroke="#226e6d"/><rect y="-9.5" fill="#ffffff" width="52.0" height="19.0" x="14.0"/><text xml:space="preserve" style="fill:#454545;font-family:Microsoft YaHei;font-size:10.00pt"><tspan y="5.5" x="14.0">置换收购</tspan></text></g><g id="shape45" transform="translate(178.00,150.00)"><path fill="none" stroke-width="2" d="M.0,.0L.0,47.0L320.8,47.0" stroke="#226e6d"/><path fill="#226e6d" stroke-width="1" stroke-linecap="round" d="M327.0,47.0L319.7,42.8C320.4,44.0,320.8,45.5,320.8,47.0C320.8,48.5,320.4,50.0,319.7,51.2L327.0,47.0" stroke="#226e6d"/><rect y="37.5" fill="#ffffff" width="52.0" height="19.0" x="116.0"/><text xml:space="preserve" style="fill:#454545;font-family:Microsoft YaHei;font-size:10.00pt"><tspan y="52.5" x="116.0">单独收购</tspan></text></g><g id="shape46" transform="translate(446.00,128.00)"><path fill="none" stroke-width="2" d="M.0,.0L127.0,.0L127.0,32.8" stroke="#226e6d"/><path fill="#226e6d" stroke-width="1" stroke-linecap="round" d="M127.0,39.0L131.2,31.7C130.0,32.4,128.5,32.8,127.0,32.8C125.5,32.8,124.0,32.4,122.8,31.7L127.0,39.0" stroke="#226e6d"/></g><g id="shape47" transform="translate(641.00,197.00)"><path fill="none" stroke-width="2" d="M.0,.0L458.8,.0" stroke="#226e6d"/><path fill="#226e6d" stroke-width="1" stroke-linecap="round" d="M465.0,.0L457.7,-4.2C458.4,-3.0,458.8,-1.5,458.8,.0C458.8,1.5,458.4,3.0,457.7,4.2L465.0,.0" stroke="#226e6d"/><rect y="-9.5" fill="#ffffff" width="258.0" height="19.0" x="117.6"/><text xml:space="preserve" style="fill:#454545;font-family:Microsoft YaHei;font-size:10.00pt"><tspan y="5.5" x="117.6">应付客户金额（=收购价格-置换金额）不为0</tspan></text></g><g id="shape48" transform="translate(803.00,394.57)"><path fill="none" stroke-width="2" d="M.0,.0L.0,96.2" stroke="#226e6d"/><path fill="#226e6d" stroke-width="1" stroke-linecap="round" d="M.0,102.4L4.2,95.1C3.0,95.8,1.5,96.2,.0,96.2C-1.5,96.2,-3.0,95.8,-4.2,95.1L.0,102.4" stroke="#226e6d"/><rect y="17.4" fill="#ffffff" width="39.0" height="19.0" x="-18.5"/><rect y="36.4" fill="#ffffff" width="52.0" height="19.0" x="-25.0"/><text xml:space="preserve" style="fill:#454545;font-family:Microsoft YaHei;font-size:10.00pt"><tspan y="32.4" x="-18.5">有差额</tspan><tspan y="51.4" x="-25.0">不管正负</tspan></text></g><g id="shape49" transform="translate(599.64,642.33)"><path fill="none" stroke-width="2" d="M.0,.0L.0,91.7L500.1,91.7" stroke="#ff0000"/><path fill="#ff0000" stroke-width="1" stroke-linecap="round" d="M506.4,91.7L499.0,87.4C499.7,88.7,500.1,90.1,500.1,91.7C500.1,93.2,499.7,94.7,499.0,95.9L506.4,91.7" stroke="#ff0000"/><rect y="72.7" fill="#ffffff" width="99.0" height="19.0" x="66.2"/><rect y="91.7" fill="#ffffff" width="195.0" height="19.0" x="18.2"/><text xml:space="preserve" style="fill:#454545;font-family:Microsoft YaHei;font-size:10.00pt"><tspan y="87.7" x="66.2">3、付给客户部分</tspan><tspan y="106.7" x="18.2">即二手车收购单上的已付客户金额</tspan></text></g><g id="shape50" transform="translate(1174.00,219.50)"><path fill="none" stroke-width="2" d="M.0,.0L.0,478.3" stroke="#ff0000"/><path fill="#ff0000" stroke-width="1" stroke-linecap="round" d="M.0,484.5L4.2,477.2C3.0,477.9,1.5,478.3,.0,478.3C-1.5,478.3,-3.0,477.9,-4.2,477.2L.0,484.5" stroke="#ff0000"/></g><g id="shape51" transform="translate(573.00,649.50)"><path fill="none" stroke-width="2" d="M.0,.0L.0,205.5L724.8,205.5" stroke="#ffc000"/><path fill="#ffc000" stroke-width="1" stroke-linecap="round" d="M731.0,205.5L723.7,201.3C724.4,202.5,724.8,204.0,724.8,205.5C724.8,207.0,724.4,208.5,723.7,209.7L731.0,205.5" stroke="#ffc000"/><rect y="196.0" fill="#ffffff" width="91.0" height="19.0" x="563.4"/><text xml:space="preserve" style="fill:#454545;font-family:Microsoft YaHei;font-size:10.00pt"><tspan y="211.0" x="563.4">收款单生成凭证</tspan></text></g><g id="shape52" transform="translate(871.00,587.00)"><path fill="none" stroke-width="2" d="M.0,.0L447.0,.0L447.0,231.8" stroke="#ffc000"/><path fill="#ffc000" stroke-width="1" stroke-linecap="round" d="M447.0,238.0L451.3,230.7C450.0,231.4,448.6,231.8,447.0,231.8C445.5,231.8,444.0,231.4,442.8,230.7L447.0,238.0" stroke="#ffc000"/><rect y="-9.5" fill="#ffffff" width="78.0" height="19.0" x="320.3"/><text xml:space="preserve" style="fill:#454545;font-family:Microsoft YaHei;font-size:10.00pt"><tspan y="5.5" x="320.3">应收单生成凭</tspan></text></g><g id="shape53" transform="translate(310.50,865.00)"><path fill="#eef7f7" d="M7.5,.0L214.5,.0L214.5,.0C218.6,.0,222.0,13.4,222.0,30.0C222.0,46.6,218.6,60.0,214.5,60.0L7.5,60.0L7.5,60.0C3.4,60.0,.0,46.6,.0,30.0C.0,13.4,3.4,.0,7.5,.0z" fill-rule="nonzero"/><path fill="none" stroke-width="2" d="M7.5,.0L214.5,.0L214.5,.0C218.6,.0,222.0,13.4,222.0,30.0C222.0,46.6,218.6,60.0,214.5,60.0L7.5,60.0L7.5,60.0C3.4,60.0,.0,46.6,.0,30.0C.0,13.4,3.4,.0,7.5,.0zM214.5,.0C210.4,.0,207.0,13.4,207.0,30.0C207.0,46.6,210.4,60.0,214.5,60.0" stroke="#226e6d"/><text xml:space="preserve" style="fill:#454545;font-family:Microsoft YaHei;font-size:10.00pt"><tspan y="26.0" x="81.3">结算记录</tspan><tspan y="45.0" x="42.3">二手车收款与整车应收</tspan></text></g><g id="shape54" transform="translate(885.00,650.00)"><path fill="#eef7f7" d="M7.5,.0L186.5,.0L186.5,.0C190.6,.0,194.0,13.4,194.0,30.0C194.0,46.6,190.6,60.0,186.5,60.0L7.5,60.0L7.5,60.0C3.4,60.0,.0,46.6,.0,30.0C.0,13.4,3.4,.0,7.5,.0z" fill-rule="nonzero"/><path fill="none" stroke-width="2" d="M7.5,.0L186.5,.0L186.5,.0C190.6,.0,194.0,13.4,194.0,30.0C194.0,46.6,190.6,60.0,186.5,60.0L7.5,60.0L7.5,60.0C3.4,60.0,.0,46.6,.0,30.0C.0,13.4,3.4,.0,7.5,.0zM186.5,.0C182.4,.0,179.0,13.4,179.0,30.0C179.0,46.6,182.4,60.0,186.5,60.0" stroke="#226e6d"/><text xml:space="preserve" style="fill:#454545;font-family:Microsoft YaHei;font-size:10.00pt"><tspan y="26.0" x="67.3">结算记录</tspan><tspan y="45.0" x="21.8">二手车收款与二手车应收</tspan></text></g><g id="shape55" transform="translate(573.00,227.00)"><path fill="none" stroke-width="2" d="M.0,.0L.0,95.7" stroke="#226e6d"/><path fill="#226e6d" stroke-width="1" stroke-linecap="round" d="M.0,101.9L4.2,94.6C3.0,95.3,1.5,95.7,.0,95.7C-1.5,95.7,-3.0,95.3,-4.2,94.6L.0,101.9" stroke="#226e6d"/><rect y="14.0" fill="#ffffff" width="104.0" height="19.0" x="-51.0"/><rect y="33.0" fill="#ffffff" width="52.0" height="19.0" x="-25.0"/><text xml:space="preserve" style="fill:#454545;font-family:Microsoft YaHei;font-size:10.00pt"><tspan y="29.0" x="-51.0">二手车实现销售后</tspan><tspan y="48.0" x="-25.0">关联生成</tspan></text></g><g id="shape56" transform="translate(421.50,840.00)"><path fill="none" stroke-width="2" d="M.0,.0L.0,18.8" stroke="#226e6d"/><path fill="#226e6d" stroke-width="1" stroke-linecap="round" d="M.0,25.0L4.2,17.7C3.0,18.4,1.5,18.8,.0,18.8C-1.5,18.8,-3.0,18.4,-4.2,17.7L.0,25.0" stroke="#226e6d"/></g><g id="shape57" transform="translate(871.00,680.00)"><path fill="none" stroke-width="2" d="M.0,.0L7.8,.0" stroke="#226e6d"/><path fill="#226e6d" stroke-width="1" stroke-linecap="round" d="M14.0,.0L6.7,-4.2C7.4,-3.0,7.8,-1.5,7.8,.0C7.8,1.5,7.4,3.0,6.7,4.2L14.0,.0" stroke="#226e6d"/></g><g id="shape58" transform="translate(532.50,895.00)"><path fill="none" stroke-width="2" d="M.0,.0L739.5,.0L739.5,-40.0L765.3,-40.0" stroke="#ffc000"/><path fill="#ffc000" stroke-width="1" stroke-linecap="round" d="M771.5,-40.0L764.2,-44.2C764.9,-43.0,765.3,-41.5,765.3,-40.0C765.3,-38.5,764.9,-37.0,764.2,-35.8L771.5,-40.0" stroke="#ffc000"/><rect y="-9.5" fill="#ffffff" width="52.0" height="19.0" x="640.5"/><text xml:space="preserve" style="fill:#454545;font-family:Microsoft YaHei;font-size:10.00pt"><tspan y="5.5" x="640.5">生成凭证</tspan></text></g><g id="shape59" transform="translate(1106.00,754.01)"><path fill="none" stroke-width="2" d="M.0,.0L-124.0,.0L-124.0,7.8" stroke="#226e6d"/><path fill="#226e6d" stroke-width="1" stroke-linecap="round" d="M-124.0,14.0L-119.8,6.6C-121.0,7.4,-122.5,7.8,-124.0,7.8C-125.5,7.8,-127.0,7.4,-128.2,6.6L-124.0,14.0" stroke="#226e6d"/></g><g id="shape60" transform="translate(1088.50,798.00)"><path fill="none" stroke-width="2" d="M.0,.0L183.5,.0L183.5,57.0L209.3,57.0" stroke="#ffc000"/><path fill="#ffc000" stroke-width="1" stroke-linecap="round" d="M215.5,57.0L208.2,52.8C208.9,54.0,209.3,55.5,209.3,57.0C209.3,58.5,208.9,60.0,208.2,61.2L215.5,57.0" stroke="#ffc000"/><rect y="-9.5" fill="#ffffff" width="52.0" height="19.0" x="85.5"/><text xml:space="preserve" style="fill:#454545;font-family:Microsoft YaHei;font-size:10.00pt"><tspan y="5.5" x="85.5">生成凭证</tspan></text></g></g></svg>